<svg width="31" height="22" viewBox="0 0 31 22" fill="none" xmlns="http://www.w3.org/2000/svg">
<path fill-rule="evenodd" clip-rule="evenodd" d="M29.675 0.522442C30.5275 1.27594 30.6073 2.57944 29.8538 3.43744L14.0413 21.3124C13.8587 21.5189 13.6365 21.6867 13.388 21.8059C13.1394 21.925 12.8695 21.9932 12.5941 22.0062C12.3188 22.0193 12.0436 21.9771 11.7849 21.882C11.5262 21.7869 11.2891 21.6409 11.0878 21.4527L0.775277 11.8277C0.378555 11.4538 0.145981 10.9381 0.128394 10.3932C0.110807 9.84839 0.309639 9.31874 0.681425 8.92006C1.05321 8.52138 1.56771 8.2861 2.11246 8.26565C2.65721 8.24521 3.1879 8.44125 3.58853 8.81094L12.361 16.9784L26.771 0.698442C26.9507 0.4952 27.1687 0.329396 27.4125 0.210525C27.6564 0.0916541 27.9212 0.0220509 28.192 0.00570231C28.4628 -0.0106463 28.7341 0.0265809 28.9905 0.115251C29.2469 0.203921 29.4832 0.342293 29.686 0.522442H29.675Z" fill="black"/>
</svg>
