<svg width="134" height="134" viewBox="0 0 134 134" fill="none" xmlns="http://www.w3.org/2000/svg">
<g clip-path="url(#clip0_9317_7043)">
<path d="M71.1801 59.7427L65.5971 59.3504L51.816 43.4861L45.8408 48.6767L54.4313 58.5658L48.8483 58.1735L42.8531 51.2721L38.7183 54.864C38.292 55.2342 37.8128 55.4007 37.2805 55.3633C36.7483 55.3259 36.297 55.0941 35.9268 54.6678C35.5565 54.2416 35.3901 53.7623 35.4275 53.2301C35.4649 52.6979 35.6967 52.2466 36.1229 51.8763L56.3462 34.3087C56.7705 33.9401 57.2487 33.7746 57.7809 33.812C58.3132 33.8494 58.7654 34.0803 59.1377 34.5048C59.5099 34.9293 59.6754 35.4094 59.634 35.9451C59.5926 36.4808 59.3618 36.9312 58.9415 37.2963L54.8037 40.8908L71.1801 59.7427ZM64.2494 106.075L101.386 73.8157L63.2962 71.1363L64.2494 106.075ZM109.422 74.3776L106.969 74.208L66.8447 109.063C65.57 110.17 64.1716 110.389 62.6496 109.719C61.1276 109.049 60.3337 107.878 60.268 106.205L59.3461 70.8616L23.741 68.3568C23.2199 68.3202 22.773 68.1073 22.4001 67.7183C22.0272 67.3293 21.8626 66.838 21.9061 66.2445C21.9497 65.651 22.1638 65.1854 22.5485 64.8478C22.9332 64.5101 23.4241 64.3632 24.0214 64.407L109.695 70.4245C110.216 70.4611 110.663 70.674 111.036 71.063C111.408 71.452 111.574 71.9443 111.532 72.5398C111.49 73.1353 111.275 73.5999 110.887 73.9335C110.499 74.2672 110.008 74.4141 109.414 74.3743" fill="white" fill-opacity="0.3"/>
</g>
<defs>
<clipPath id="clip0_9317_7043">
<rect width="94.9794" height="94.9794" fill="white" transform="translate(0 62.2871) rotate(-40.9804)"/>
</clipPath>
</defs>
</svg>
