<?xml version="1.0" encoding="UTF-8"?>
<svg version="1.1" xmlns="http://www.w3.org/2000/svg" width="512" height="594">
<path d="M0 0 C0.94738037 -0.0065712 1.89476074 -0.0131424 2.87084961 -0.01991272 C5.9801442 -0.03949357 9.08939107 -0.05126868 12.19873047 -0.0612793 C13.26509609 -0.06535482 14.33146172 -0.06943035 15.43014145 -0.07362938 C21.06507926 -0.09441633 26.69999319 -0.10875472 32.33496094 -0.11816406 C38.15007399 -0.12926627 43.9648084 -0.16373109 49.77978706 -0.20333576 C54.25964066 -0.22946191 58.73940293 -0.23785191 63.21932602 -0.24144554 C65.36353005 -0.24631488 67.50772992 -0.25793871 69.65185928 -0.27648354 C72.64842379 -0.30080911 75.64399216 -0.29992287 78.640625 -0.29296875 C79.52285736 -0.30577881 80.40508972 -0.31858887 81.3140564 -0.33178711 C86.88663415 -0.28467132 89.90915401 0.53774372 94.19091797 4.17700195 C95.79178424 7.37873449 95.69008886 10.70277254 95.19091797 14.17700195 C93.39727886 16.98703656 92.17210862 18.68640663 89.19091797 20.17700195 C86.116963 20.27919832 83.06486503 20.3206389 79.99047852 20.31884766 C79.03571121 20.32232208 78.08094391 20.32579651 77.09724426 20.32937622 C75.01724012 20.33674281 72.93722807 20.34208336 70.85721397 20.34566689 C67.55593381 20.3528303 64.25480248 20.36849976 60.9535675 20.38700867 C51.56452582 20.43945726 42.1755617 20.48737475 32.78637695 20.50292969 C27.0456282 20.51306426 21.30524823 20.54253607 15.56464577 20.5842495 C13.38441584 20.59649609 11.20413364 20.60169245 9.02387047 20.59945107 C-7.57559835 20.58659586 -22.24646589 21.18948288 -34.96142578 33.2121582 C-44.27810661 43.04932399 -48.14043276 54.10965668 -48.06977844 67.50556946 C-48.07360399 68.2929181 -48.07742954 69.08026674 -48.08137101 69.89147443 C-48.09160514 72.50275212 -48.08772727 75.11380598 -48.08374023 77.72509766 C-48.08809206 79.60841066 -48.09327678 81.49172189 -48.09922791 83.37503052 C-48.11257943 88.47226824 -48.11320079 93.56943164 -48.11066461 98.66668344 C-48.10959214 102.93083322 -48.11448536 107.19496814 -48.11927003 111.45911473 C-48.13035221 121.52451236 -48.13081006 131.58987266 -48.12475586 141.65527344 C-48.11871837 152.01797869 -48.13102437 162.38054809 -48.15232593 172.74323016 C-48.16997529 181.6590331 -48.17593798 190.57479293 -48.17268819 199.49061269 C-48.17088029 204.80728457 -48.17346201 210.12385955 -48.18740273 215.44051552 C-48.20003055 220.44337216 -48.19799027 225.44601799 -48.18499184 230.44887161 C-48.18263716 232.27731715 -48.18532064 234.10577776 -48.19361496 235.93420601 C-48.26211712 252.21855844 -46.62279271 265.74256777 -35.30908203 278.36450195 C-26.99493181 286.27661397 -16.30540794 290.29673597 -4.97482777 290.30842972 C-3.95764367 290.31150867 -3.95764367 290.31150867 -2.9199104 290.31464982 C-0.64310661 290.32031318 1.63363657 290.31886339 3.91044617 290.31744385 C5.55755537 290.32002786 7.20466395 290.32304113 8.85177165 290.32644725 C13.38180144 290.33451621 17.91181538 290.33630676 22.4418515 290.33704472 C27.32612208 290.33889545 32.21038444 290.34644288 37.09465027 290.35317993 C47.77650202 290.36676299 58.45835001 290.37278792 69.14020896 290.37719059 C75.80971401 290.37995303 82.47921762 290.38419038 89.14872169 290.38869476 C107.61382169 290.40088734 126.07892053 290.41118671 144.54402447 290.41456985 C145.72587774 290.41478942 146.90773102 290.41500899 148.12539803 290.41523521 C149.31008213 290.41545348 150.49476623 290.41567176 151.71534985 290.41589665 C154.11597868 290.41634012 156.5166075 290.41678668 158.91723633 290.41723633 C160.10803162 290.41745776 161.29882692 290.41767919 162.52570692 290.41790733 C181.82123232 290.42185542 201.11671995 290.43930983 220.41223075 290.46259585 C240.22155622 290.48630903 260.03086274 290.49877169 279.84020263 290.49993777 C290.96284753 290.50085455 302.08544322 290.50660746 313.20807457 290.52475739 C322.67919669 290.54015789 332.15025441 290.54527911 341.62138667 290.53701928 C346.45296957 290.53311264 351.28442275 290.53404316 356.11598969 290.54807663 C360.5419841 290.56081445 364.9677513 290.55961904 369.3937454 290.54748592 C370.9920158 290.54552872 372.59030228 290.5486084 374.18855008 290.55733028 C389.29278591 290.63451546 401.03989404 287.97765312 412.44091797 277.55200195 C421.22735507 268.24976186 424.5174814 256.34184483 424.45161438 243.84170532 C424.45543993 243.05365112 424.45926547 242.26559691 424.46320695 241.45366228 C424.47344112 238.84005066 424.46956321 236.22666269 424.46557617 233.61303711 C424.46992796 231.72810159 424.47511266 229.84316784 424.48106384 227.95823669 C424.49441485 222.85693403 424.49503686 217.75570563 424.49250054 212.6543889 C424.49142818 208.38765953 424.49632098 204.12094502 424.50110596 199.85421884 C424.51218768 189.78406745 424.51264608 179.71395336 424.5065918 169.64379883 C424.50055249 159.27312122 424.51286505 148.9025793 424.53416187 138.53192484 C424.55180436 129.61104204 424.55777504 120.69020232 424.55452412 111.76930273 C424.55271535 106.44875037 424.55530691 101.12829481 424.56923866 95.80775833 C424.5818555 90.80244246 424.57983649 85.79733742 424.56682777 80.79202461 C424.56447083 78.96154648 424.56716483 77.13105332 424.5754509 75.30059242 C424.64592916 58.51289761 422.5534362 45.14411694 410.67529297 32.5090332 C400.28489465 22.75578195 388.0871319 20.7183413 374.27148438 20.79223633 C373.02945251 20.78686356 371.78742065 20.78149078 370.50775146 20.7759552 C367.83015661 20.76622312 365.15318217 20.76170994 362.47563553 20.76631165 C358.23905345 20.77317643 354.00273764 20.75716319 349.76620483 20.73791504 C340.01836186 20.69703569 330.27052776 20.68550838 320.52261353 20.67438507 C311.56507406 20.66386705 302.60766438 20.64709463 293.65020502 20.60628939 C289.44078097 20.58796522 285.23166664 20.58402817 281.02221227 20.59122467 C277.79276141 20.59310472 274.56339908 20.57585662 271.33398438 20.56176758 C270.17234772 20.5679158 269.01071106 20.57406403 267.81387329 20.58039856 C266.21189087 20.56809456 266.21189087 20.56809456 264.57754517 20.55554199 C263.65252512 20.55482948 262.72750507 20.55411697 261.77445412 20.55338287 C258.64585511 20.0975948 256.75617305 18.9930913 254.19091797 17.17700195 C251.86265421 13.96178058 251.79380616 11.06869771 252.19091797 7.17700195 C253.54305968 4.04572642 254.39241402 2.57060595 257.47270107 1.05224991 C260.31681333 0.13646448 262.5152244 -0.07449351 265.49488831 -0.07696533 C266.54460312 -0.08260498 267.59431793 -0.08824463 268.67584229 -0.09405518 C269.81720642 -0.09000671 270.95857056 -0.08595825 272.13452148 -0.08178711 C273.34492599 -0.08529175 274.55533051 -0.08879639 275.80241394 -0.09240723 C279.11695551 -0.09969626 282.431247 -0.09799312 285.74577451 -0.09164906 C289.22618514 -0.08657119 292.70658538 -0.09128621 296.18699646 -0.09442139 C302.03866481 -0.09805922 307.89028268 -0.09327028 313.74194336 -0.08374023 C320.48047606 -0.07289162 327.21888739 -0.07635572 333.95741707 -0.08739305 C339.76064029 -0.09651384 345.56382727 -0.09772686 351.36705536 -0.09251571 C354.82482284 -0.08941761 358.28253361 -0.08892583 361.74029732 -0.09558868 C365.60742909 -0.10251935 369.47442886 -0.09287175 373.34155273 -0.08178711 C374.46874725 -0.08583557 375.59594177 -0.08988403 376.7572937 -0.09405518 C394.71000655 0.00061652 411.86203693 5.0044036 425.40966797 17.3059082 C437.34553897 29.84380779 444.53741504 44.62473181 444.45161438 61.96786499 C444.45543993 62.80492182 444.45926547 63.64197866 444.46320695 64.50440085 C444.47345089 67.28384257 444.46956129 70.06307438 444.46557617 72.8425293 C444.46992741 74.84568979 444.47511193 76.84884863 444.48106384 78.852005 C444.49442069 84.27561024 444.4950362 89.69914564 444.49250054 95.12276411 C444.49142859 99.65790858 444.49631995 104.19303906 444.50110596 108.72818053 C444.51218968 119.4311838 444.51264493 130.13415197 444.5065918 140.8371582 C444.50055221 151.86221155 444.51286531 162.88713728 444.53416187 173.91216886 C444.55180018 183.39355606 444.5577757 192.87490272 444.55452412 202.35630572 C444.55271469 208.01220397 444.55531352 213.66801117 444.56923866 219.3238945 C444.58184866 224.6443841 444.57984287 229.96467529 444.56682777 235.28516197 C444.56446936 237.23174419 444.56717017 239.17834051 444.5754509 241.12490654 C444.65187366 260.494482 440.80100318 278.59432079 426.72607422 292.93481445 C410.4393745 307.339384 393.2094146 311.49043695 371.91049194 311.44442749 C370.26334222 311.44816842 368.61619426 311.4527717 366.9690491 311.45815814 C362.46188236 311.47034894 357.95479006 311.4701323 353.44761062 311.46776938 C348.57898433 311.46736022 343.71038159 311.4784099 338.84176636 311.48788452 C329.30996763 311.5044743 319.77819364 311.50999317 310.24638169 311.51110928 C302.49503727 311.51206077 294.743701 311.51617613 286.99235916 311.52251053 C264.99747576 311.54011791 243.00261185 311.54935026 221.00772135 311.54784958 C219.82278073 311.54776967 218.6378401 311.54768976 217.41699219 311.54760742 C215.6374013 311.54748478 215.6374013 311.54748478 213.82185908 311.54735966 C194.60182049 311.54654704 175.38186033 311.56567991 156.16184442 311.59388416 C136.40882823 311.62264091 116.65585025 311.63642289 96.9028126 311.6346966 C85.82027983 311.63403364 74.73782927 311.63948491 63.6553154 311.6610527 C54.21813764 311.6793013 44.78107935 311.6835817 35.34389155 311.67003386 C30.53377331 311.6635226 25.72388402 311.66332009 20.91378784 311.68074036 C16.50056832 311.69655814 12.08775759 311.69351946 7.67454751 311.67617209 C6.08776015 311.67312122 4.5009416 311.67666143 2.91419105 311.68789224 C-17.58910412 311.82326762 -35.59267777 306.59501463 -50.80908203 292.17700195 C-62.09560869 280.61228625 -68.14931239 265.46256416 -68.06977844 249.38613892 C-68.07551676 248.13055367 -68.07551676 248.13055367 -68.08137101 246.84960306 C-68.09161496 244.07016133 -68.08772536 241.29092952 -68.08374023 238.51147461 C-68.08809148 236.50831411 -68.093276 234.50515528 -68.09922791 232.5019989 C-68.11258475 227.07839367 -68.11320026 221.65485826 -68.11066461 216.2312398 C-68.10959265 211.69609532 -68.11448401 207.16096485 -68.11927003 202.62582338 C-68.13035375 191.92282011 -68.130809 181.21985193 -68.12475586 170.5168457 C-68.11871627 159.49179235 -68.13102937 148.46686663 -68.15232593 137.44183505 C-68.16996424 127.96044784 -68.17593977 118.47910118 -68.17268819 108.99769819 C-68.17087876 103.34179994 -68.17347758 97.68599274 -68.18740273 92.03010941 C-68.20001272 86.70961981 -68.19800693 81.38932862 -68.18499184 76.06884193 C-68.18263342 74.12225972 -68.18533424 72.1756634 -68.19361496 70.22909737 C-68.27484266 49.64169817 -63.80311109 32.29060062 -48.80908203 17.17700195 C-34.35479204 4.81784331 -18.72679372 0.05733941 0 0 Z " fill="#000000" transform="translate(67.80908203125,171.822998046875)"/>
<path d="M0 0 C7.16254073 6.09660908 13.45014918 12.63930455 16.25 21.8125 C16.25 22.8025 16.25 23.7925 16.25 24.8125 C16.86530075 24.80583817 17.4806015 24.79917633 18.11454773 24.79231262 C24.52219413 24.72591004 30.92974267 24.68067885 37.33764648 24.64770508 C39.7286374 24.63262457 42.11960068 24.61215723 44.51049805 24.58618164 C47.94847435 24.54976694 51.38608469 24.53276601 54.82421875 24.51953125 C55.89210129 24.50404739 56.95998383 24.48856354 58.06022644 24.47261047 C67.35041327 24.47050677 67.35041327 24.47050677 71.25 27.8125 C73.22561317 30.68184293 73.53269258 32.87307366 73.25 36.3125 C73.188125 37.44171875 73.188125 37.44171875 73.125 38.59375 C72.07022497 41.2683581 70.65684124 42.44755968 68.25286865 43.97338867 C64.032816 45.74139976 59.44454215 45.29236693 54.9453125 45.203125 C53.86619598 45.19746521 52.78707947 45.19180542 51.67526245 45.18597412 C48.24138324 45.16365097 44.80856184 45.11346017 41.375 45.0625 C39.04168178 45.04242984 36.70834714 45.02417997 34.375 45.0078125 C28.66630805 44.96379951 22.95822962 44.89692739 17.25 44.8125 C17.05002411 45.50224411 16.85004822 46.19198822 16.64401245 46.90263367 C16.37847565 47.80576797 16.11293884 48.70890228 15.83935547 49.6394043 C15.44657913 50.98339546 15.44657913 50.98339546 15.04586792 52.35453796 C11.67352891 62.76968482 2.28301774 70.91858047 -7.04296875 76.08203125 C-17.06447552 80.47906445 -30.43194146 80.66096589 -40.8125 77.25 C-52.31955366 72.13773313 -61.35246965 64.12222316 -66.25 52.375 C-67.29698522 49.56348367 -67.75 47.84350145 -67.75 44.8125 C-68.48234287 44.81363916 -69.21468574 44.81477832 -69.96922082 44.815952 C-113.35010898 44.88305038 -156.73099151 44.93454153 -200.11192114 44.96569599 C-205.31785963 44.96944822 -210.523798 44.97333118 -215.72973633 44.97729492 C-216.7661681 44.97808185 -217.80259988 44.97886878 -218.87043867 44.97967956 C-235.66387964 44.99274224 -252.45728987 45.01640082 -269.2507126 45.04395839 C-286.47551384 45.07198861 -303.70029896 45.08867121 -320.92512208 45.09476548 C-331.5582978 45.09888688 -342.19138666 45.11191545 -352.82453565 45.1362494 C-360.11083702 45.15207718 -367.39709334 45.15690708 -374.68341067 45.15300413 C-378.8905683 45.15107797 -383.0975739 45.15408158 -387.30470467 45.17011642 C-391.1545438 45.18468271 -395.00412821 45.1854738 -398.85397891 45.17519668 C-400.248411 45.17392593 -401.64285879 45.17775929 -403.03725984 45.18714955 C-404.92998045 45.19915684 -406.82279729 45.1909203 -408.71553326 45.18164349 C-409.76773829 45.18278265 -410.81994333 45.18392181 -411.90403336 45.18509549 C-415.19593769 44.7541176 -417.07360994 43.74277615 -419.75 41.8125 C-422.07826375 38.59727863 -422.14711181 35.70419575 -421.75 31.8125 C-420.02703343 28.02197354 -418.60729903 26.30711411 -414.75 24.8125 C-412.02823186 24.55769098 -412.02823186 24.55769098 -408.83858109 24.55078697 C-407.62187863 24.54332148 -406.40517617 24.53585599 -405.15160394 24.52816427 C-403.79957572 24.5299411 -402.44754773 24.531902 -401.09552002 24.5340271 C-399.66075886 24.52902543 -398.22600052 24.52315002 -396.79124618 24.51647437 C-392.84392307 24.50064466 -388.89667109 24.49724206 -384.94932008 24.49582577 C-380.69438787 24.4921369 -376.43949492 24.476984 -372.18458557 24.46321106 C-364.81109273 24.44091826 -357.43761381 24.42591713 -350.06409454 24.41584396 C-339.40317871 24.40126929 -328.74231138 24.37573588 -318.08142397 24.34751268 C-300.78557803 24.30202264 -283.48972512 24.26541698 -266.19384766 24.234375 C-249.3907753 24.20419851 -232.58772001 24.16985239 -215.78466797 24.12988281 C-214.23151311 24.12619049 -214.23151311 24.12619049 -212.64698139 24.12242357 C-207.45259104 24.11004915 -202.25820088 24.09759258 -197.06381083 24.08509517 C-153.95923101 23.98149426 -110.85463 23.89230194 -67.75 23.8125 C-67.2765918 22.84755615 -66.80318359 21.8826123 -66.31542969 20.88842773 C-65.68441303 19.61173324 -65.05321876 18.33512652 -64.421875 17.05859375 C-64.1110498 16.42385132 -63.80022461 15.78910889 -63.47998047 15.13513184 C-58.24609035 4.58149383 -50.30647452 -2.0607439 -39.125 -6.125 C-25.92231619 -9.4887411 -11.1252235 -8.1357927 0 0 Z M-46.13671875 23.625 C-49.5086311 29.30401027 -49.60673416 35.38266683 -48.75 41.8125 C-46.64582021 48.6426451 -42.28093208 53.41685688 -36.1875 57.0625 C-30.5181227 59.94872845 -25.70098664 60.76640868 -19.35546875 59.234375 C-11.33226282 56.52299972 -6.08720421 51.38952491 -2.25 43.875 C-0.79232051 34.94671311 -1.55365884 28.42941526 -6.75 20.8125 C-11.67052156 15.01287782 -17.83979906 12.54903014 -25.25 11.4375 C-34.17168783 12.77575318 -40.61534548 16.40833184 -46.13671875 23.625 Z " fill="#000000" transform="translate(433.75,515.1875)"/>
<path d="M0 0 C2.78744879 1.43152693 5.53953269 2.91902317 8.27905273 4.44018555 C10.9928355 5.94279609 13.72478537 7.40850069 16.46020508 8.87133789 C26.94493794 14.49273146 37.36338466 20.23299655 47.75317383 26.02758789 C54.00531248 29.5121097 60.27442266 32.96590702 66.54223633 36.42211914 C67.78507783 37.10757928 69.02791635 37.7930448 70.27075195 38.47851562 C74.09026278 40.58499002 77.90998164 42.691087 81.72973633 44.79711914 C83.65286469 45.85744119 85.57598644 46.9177752 87.49906921 47.97817993 C88.7685519 48.67813592 90.03809295 49.37798606 91.30769348 50.07772827 C94.39927088 51.78197824 97.48957829 53.48845065 100.57714844 55.19995117 C105.79688863 58.09144432 111.02148455 60.96665107 116.30395508 63.74243164 C132.66262974 72.39620104 132.66262974 72.39620104 137.16723633 81.79711914 C138.71871164 90.07165416 137.56768667 95.43439285 132.94848633 102.53540039 C128.62335008 107.59537846 122.20940247 110.28693381 116.41723633 113.35961914 C115.11280604 114.06367931 113.80902102 114.76893622 112.50585938 115.4753418 C109.85857579 116.90776057 107.20765606 118.33304073 104.55297852 119.75170898 C100.03590967 122.16573095 95.53420158 124.60781137 91.0324707 127.05029297 C88.07119863 128.65641073 85.10754458 130.25807184 82.14379883 131.85961914 C75.15909303 135.64147454 68.21824956 139.50031858 61.28295898 143.37182617 C44.39283482 152.8004497 27.47521519 162.17038 10.43676758 171.32885742 C8.53177212 172.36210442 6.63392627 173.40858832 4.74145508 174.46459961 C3.76821289 175.00616699 2.7949707 175.54773438 1.79223633 176.10571289 C0.47932617 176.84325806 0.47932617 176.84325806 -0.86010742 177.59570312 C-6.55401656 180.43400609 -12.35385673 180.62722108 -18.39526367 178.60961914 C-24.25564699 176.16590718 -27.66899756 172.06455195 -30.42442322 166.37806702 C-32.24321796 160.82830358 -31.82362273 154.93593226 -31.7878418 149.15454102 C-31.79326917 147.67866833 -31.80039527 146.20280107 -31.80908203 144.72694397 C-31.82724546 140.73720203 -31.82027702 136.74787599 -31.80756569 132.75812721 C-31.79740163 128.57250516 -31.80684079 124.38691747 -31.81311035 120.20129395 C-31.82037688 113.17376345 -31.81082526 106.14640138 -31.79174805 99.11889648 C-31.76998114 91.00717974 -31.77703322 82.89586523 -31.79905367 74.78415823 C-31.81723612 67.80555081 -31.81975213 60.82706411 -31.80929899 53.84844065 C-31.80307965 49.68656737 -31.80218527 45.52488282 -31.81544495 41.36302185 C-31.82704442 37.44924128 -31.81890374 33.53597665 -31.79586792 29.62225151 C-31.79060257 28.19043774 -31.79205722 26.75858016 -31.80091858 25.32678413 C-31.85058126 16.48357851 -31.76960526 9.34827657 -25.23510742 2.73852539 C-24.56608398 2.28348633 -23.89706055 1.82844727 -23.20776367 1.35961914 C-22.53616211 0.8865332 -21.86456055 0.41344727 -21.17260742 -0.07397461 C-14.45582905 -4.05990675 -6.82983857 -3.25979907 0 0 Z M-11.27026367 17.79711914 C-11.27026367 64.65711914 -11.27026367 111.51711914 -11.27026367 159.79711914 C-7.40278249 158.25012667 -3.94066351 156.63247002 -0.28979492 154.67211914 C0.86464111 154.05336914 2.01907715 153.43461914 3.20849609 152.79711914 C4.44484056 152.13063371 5.68108512 151.46396293 6.91723633 150.79711914 C8.19576892 150.10955989 9.47433362 149.42206035 10.75292969 148.73461914 C19.62332318 143.95940862 28.45214767 139.11384531 37.2409668 134.19018555 C42.44072792 131.27966593 47.64745246 128.38165232 52.85473633 125.48461914 C54.00820557 124.84282715 55.1616748 124.20103516 56.35009766 123.53979492 C64.83517872 118.82776987 73.36209046 114.19787035 81.90698242 109.59545898 C90.13947699 105.14773423 98.29192669 100.56510379 106.42211914 95.93334961 C107.32285156 95.42046387 108.22358398 94.90757812 109.15161133 94.37915039 C110.3364209 93.70203003 110.3364209 93.70203003 111.54516602 93.01123047 C113.58117852 91.87968262 115.63774891 90.82076256 117.72973633 89.79711914 C116.39508266 85.79315814 114.83867998 85.50265352 111.13989258 83.57446289 C109.97272705 82.95901611 108.80556152 82.34356934 107.60302734 81.70947266 C106.98162872 81.3874588 106.3602301 81.06544495 105.72000122 80.7336731 C103.12285145 79.38771397 100.53681272 78.02102399 97.94981384 76.65568542 C96.65781751 75.97422582 95.36522467 75.29389595 94.07203674 74.61470032 C89.27460792 72.09435433 84.51822261 69.51102039 79.79223633 66.85961914 C78.38346995 66.07170173 76.97461201 65.28394803 75.56567383 64.49633789 C74.81511719 64.07658691 74.06456055 63.65683594 73.29125977 63.22436523 C67.84329644 60.18883401 62.37884882 57.1830012 56.91723633 54.17211914 C55.0422025 53.13825382 53.16718889 52.10435184 51.29217529 51.07044983 C50.02188749 50.37001086 48.75158301 49.66960214 47.48126221 48.96922302 C43.04994904 46.52585421 38.61998475 44.08005295 34.19067383 41.63305664 C28.17663281 38.31063366 22.16003455 34.99288208 16.1418457 31.67797852 C13.87929395 30.43079057 11.61756516 29.18210845 9.35668945 27.93188477 C6.2539958 26.2164086 3.14850066 24.50611889 0.04223633 22.79711914 C-0.87871826 22.28632813 -1.79967285 21.77553711 -2.74853516 21.24926758 C-3.58457275 20.79068359 -4.42061035 20.33209961 -5.28198242 19.85961914 C-6.00861084 19.4587207 -6.73523926 19.05782227 -7.48388672 18.64477539 C-9.24186535 17.65422027 -9.24186535 17.65422027 -11.27026367 17.79711914 Z " fill="#000000" transform="translate(220.270263671875,246.202880859375)"/>
<path d="M0 0 C3.21771591 0.01611055 6.4341765 0.0000139 9.65185547 -0.01904297 C53.09762414 -0.0634213 96.51943281 10.53799226 135.09326172 30.57861328 C135.84792725 30.97032715 136.60259277 31.36204102 137.38012695 31.765625 C151.40345089 39.30247265 151.40345089 39.30247265 153.71826172 45.39111328 C153.64124485 49.62704096 153.1012431 51.84565495 150.65576172 55.32861328 C146.9692568 57.91701035 144.05013749 58.03024249 139.71826172 57.39111328 C137.06592095 56.17820501 134.84063621 54.99477673 132.40576172 53.45361328 C131.0012351 52.61907321 129.59354358 51.78984187 128.18310547 50.96533203 C127.45333496 50.53784668 126.72356445 50.11036133 125.97167969 49.66992188 C68.94735391 17.30877145 -5.60335203 12.25059161 -68.13330078 29.18017578 C-88.68651823 35.08183188 -107.89889581 43.36883918 -125.47705078 55.61767578 C-129.10281914 57.91029254 -131.06161549 58.0693473 -135.28173828 57.39111328 C-138.71923828 55.45361328 -138.71923828 55.45361328 -141.28173828 52.39111328 C-142.08517471 49.21753939 -142.02902647 46.57292627 -141.28173828 43.39111328 C-139.61633551 41.03657832 -138.5456676 40.0394127 -136.28173828 38.39111328 C-135.54955078 37.79814453 -134.81736328 37.20517578 -134.06298828 36.59423828 C-126.38040937 30.62404142 -118.08409026 26.41805287 -109.28173828 22.39111328 C-108.53859375 22.05047852 -107.79544922 21.70984375 -107.02978516 21.35888672 C-91.34741891 14.2651185 -75.34584387 9.33040164 -58.53173828 5.70361328 C-57.66589111 5.51323486 -56.80004395 5.32285645 -55.90795898 5.12670898 C-37.40487627 1.34022361 -18.85715985 -0.1116825 0 0 Z " fill="#000000" transform="translate(239.28173828125,-0.39111328125)"/>
<path d="M0 0 C1.2679541 0.58624146 1.2679541 0.58624146 2.56152344 1.18432617 C16.79505463 8.09010926 16.79505463 8.09010926 19.75 14 C20.11524972 18.45604661 20.28894975 20.94455674 18.25 24.9375 C15.58286828 27.13788367 13.54395253 28.10006752 10.06640625 28.32421875 C5.09787191 27.62879152 0.98152003 24.53781577 -3.25 22 C-44.78545552 -1.13967636 -96.05895822 -3.27860858 -141.25 9 C-154.70355271 12.89962061 -167.3343766 18.7172527 -179.25 26.0625 C-182.16492588 27.70667425 -184.20390619 28.32762083 -187.5625 28.125 C-191.25 27 -191.25 27 -193.75 24.9375 C-195.63138307 21.25312482 -196.29428834 18.0542959 -195.25 14 C-190.9854513 7.46577503 -183.96978733 4.50391332 -177.25 1 C-176.65219727 0.68740234 -176.05439453 0.37480469 -175.43847656 0.05273438 C-122.31819727 -27.25290176 -53.37245938 -24.85704604 0 0 Z " fill="#000000" transform="translate(331.25,71)"/>
<path d="M0 0 C0.65709961 0.32935547 1.31419922 0.65871094 1.99121094 0.99804688 C14.53481286 7.37697963 14.53481286 7.37697963 17 14 C16.93292916 17.89010867 16.57752819 20.15592034 14.375 23.375 C11.18755072 25.55588635 8.81118999 26.51502567 5 26 C-0.16029885 23.94633548 -4.9421159 21.15937133 -9.7734375 18.4375 C-32.47142872 6.23017699 -58.33529007 5.58983467 -82.8046875 11.99609375 C-90.79570591 14.43732453 -97.88227145 17.79316937 -105.10351562 21.96533203 C-109.41116607 24.40321247 -112.94750766 25.73866419 -118 26 C-121.16553069 24.70501017 -122.69376849 23.36747781 -124.875 20.75 C-126.4112222 16.99479018 -126.10949563 14.88323469 -125 11 C-116.7954687 1.61283356 -104.31122942 -2.50103924 -92.8125 -6.375 C-91.82789795 -6.70862549 -90.8432959 -7.04225098 -89.82885742 -7.38598633 C-60.0972226 -17.01122895 -27.74571816 -14.13922949 0 0 Z " fill="#000000" transform="translate(298,115)"/>
<path d="M0 0 C7.51258148 4.32603685 11.79144775 9.47488494 14.7421875 17.6328125 C16.99222105 26.70879054 15.9576651 35.2863826 11.4375 43.4375 C7.12919779 50.39824449 0.1421517 54.26906752 -7.5625 56.4375 C-17.60938428 57.53398737 -26.12175337 55.98219948 -34.3125 49.9375 C-40.95937995 43.60638632 -43.9235932 35.81383359 -44.1875 26.75 C-43.7540861 17.31120837 -40.8784218 11.06485505 -34.5 4.1640625 C-25.19610212 -4.12691102 -11.02836842 -5.19632397 0 0 Z M-22.5625 20.4375 C-24.3259617 23.35104542 -24.57087516 25.03549234 -24.5 28.4375 C-23.2665607 32.38450576 -21.91514284 34.01218391 -18.5625 36.4375 C-15.75715676 37.08924641 -13.37064702 37.0672057 -10.5625 36.4375 C-7.7524654 34.64386089 -6.05309532 33.41869065 -4.5625 30.4375 C-3.94467959 24.56112186 -3.94467959 24.56112186 -6.625 19.5 C-12.6594107 15.26307334 -17.06923728 15.58298876 -22.5625 20.4375 Z " fill="#000000" transform="translate(258.5625,151.5625)"/>
</svg>
