<svg width="56" height="62" viewBox="0 0 56 62" fill="none" xmlns="http://www.w3.org/2000/svg">
<path d="M55.5207 5.90686C55.961 4.28261 55.372 2.54598 54.0385 1.52472C52.7049 0.50346 50.8748 0.387572 49.4215 1.23598L14.1021 21.6573L2.32895 28.4643C0.329104 29.6195 -0.362727 32.1719 0.781283 34.1688C1.92529 36.1657 4.47107 36.8461 6.47092 35.691L15.829 30.2814L36.2252 45.9012L33.4419 56.3458C32.848 58.5776 34.1685 60.858 36.3946 61.4419C38.6206 62.0259 40.9045 60.6927 41.4984 58.4609L45.0014 45.3204L55.5104 5.89894L55.5207 5.90686ZM38.5674 37.1461L23.6812 25.746L44.8728 13.4933L38.5674 37.1461Z" fill="#D9D9D9" fill-opacity="0.3"/>
</svg>
