<svg width="18" height="18" viewBox="0 0 18 18" fill="none" xmlns="http://www.w3.org/2000/svg">
<path d="M7.26924 0.10791C5.18055 0.10791 3.50447 1.54237 3.50447 4.28391C3.50447 6.07422 4.21755 7.89776 5.30032 9.02137C5.72262 10.145 4.96108 10.5631 4.80324 10.6227C2.61762 11.4244 0.0643921 12.8782 0.0643921 14.3224V14.8624C0.0643921 16.8306 3.81255 17.2854 7.29001 17.2854C8.04794 17.2839 8.80558 17.2552 9.56147 17.1996C8.61498 16.2006 8.08855 14.8761 8.09101 13.4999C8.09101 12.26 8.51332 11.1239 9.21531 10.2114C9.11147 9.96776 9.06993 9.58353 9.25893 8.99991C10.3355 7.87491 11.0333 6.06729 11.0333 4.28322C11.0333 1.54237 9.35516 0.108602 7.26855 0.108602L7.26924 0.10791ZM13.5 9.12937C12.341 9.12937 11.2294 9.5898 10.4098 10.4094C9.59025 11.2289 9.12982 12.3405 9.12982 13.4996C9.12982 14.6586 9.59025 15.7702 10.4098 16.5898C11.2294 17.4093 12.341 17.8698 13.5 17.8698C14.6591 17.8698 15.7706 17.4093 16.5902 16.5898C17.4098 15.7702 17.8702 14.6586 17.8702 13.4996C17.8702 12.3405 17.4098 11.2289 16.5902 10.4094C15.7706 9.5898 14.6591 9.12937 13.5 9.12937ZM12.8942 11.0768H14.1058V12.8727H15.9016V14.1271H14.1058V15.923H12.8942V14.1271H11.0769V12.8727H12.8942V11.0768Z" fill="black"/>
</svg>
