<svg width="30" height="30" viewBox="0 0 30 30" fill="none" xmlns="http://www.w3.org/2000/svg">
<path d="M12.6275 9.725C12.1466 9.58407 11.6473 9.51623 11.1462 9.52375C8.74875 9.52375 5.9375 11.6425 5.9375 16.2225C5.9375 20.4225 8.885 25.235 10.6887 26C11.0987 26.175 11.6025 26.2837 12.0438 26.2412C12.9275 26.1537 13.7287 25.715 14.5725 25.4637C14.8575 25.4162 15.1975 25.3712 15.4712 25.37C15.7712 25.3675 16.1088 25.445 16.4388 25.52C17.3325 25.725 18.32 26.3325 19.2575 26.2412C19.5913 26.2087 20.0488 26.0075 20.19 25.9425L20.2775 25.905C21.34 25.4762 22.7625 23.6225 23.7263 21.2762C23.9288 20.7812 23.6612 20.235 23.2212 19.93C21.9725 19.0625 21.1425 17.5125 21.1425 15.9362C21.1425 14.725 21.5337 13.6187 22.2762 12.7825L22.3012 12.7537C22.4799 12.5376 22.6676 12.3291 22.8638 12.1287C23.1825 11.8187 23.2712 11.3225 22.9662 10.9987C21.9562 9.93125 20.6763 9.4025 19.5113 9.4025C19.0431 9.39518 18.5766 9.46097 18.1288 9.5975C17.9563 9.63875 17.1563 9.8375 16.6013 10.0412C16.28 10.13 15.8075 10.25 15.5887 10.3037C15.5105 10.3244 15.4297 10.3341 15.3488 10.3325C14.43 10.3025 13.5113 9.95375 12.6275 9.72375V9.725Z" stroke="black" stroke-width="1.5" stroke-linejoin="round"/>
<path d="M17.3251 6.4725C16.4089 7.57 14.8564 7.78125 14.8564 7.78125C14.8564 7.78125 14.7939 6.21125 15.7114 5.1125C16.6289 4.01375 18.1814 3.805 18.1814 3.805C18.1814 3.805 18.2439 5.375 17.3264 6.4725H17.3251Z" fill="black" stroke="black" stroke-linejoin="round"/>
</svg>
