<svg width="35" height="35" viewBox="0 0 35 35" fill="none" xmlns="http://www.w3.org/2000/svg">
<path d="M29.5312 5.46875H5.46875C4.88859 5.46875 4.33219 5.69922 3.92195 6.10945C3.51172 6.51969 3.28125 7.07609 3.28125 7.65625V29.5312C3.28112 29.7178 3.32869 29.9013 3.41945 30.0642C3.51021 30.2272 3.64114 30.3642 3.7998 30.4623C3.95845 30.5604 4.13956 30.6163 4.3259 30.6247C4.51225 30.6331 4.69764 30.5936 4.86445 30.5102L8.75 28.566L12.6355 30.5102C12.7875 30.5862 12.9551 30.6258 13.125 30.6258C13.2949 30.6258 13.4625 30.5862 13.6145 30.5102L17.5 28.566L21.3855 30.5102C21.5375 30.5862 21.7051 30.6258 21.875 30.6258C22.0449 30.6258 22.2125 30.5862 22.3645 30.5102L26.25 28.566L30.1355 30.5102C30.3024 30.5936 30.4878 30.6331 30.6741 30.6247C30.8604 30.6163 31.0415 30.5604 31.2002 30.4623C31.3589 30.3642 31.4898 30.2272 31.5805 30.0642C31.6713 29.9013 31.7189 29.7178 31.7188 29.5312V7.65625C31.7188 7.07609 31.4883 6.51969 31.078 6.10945C30.6678 5.69922 30.1114 5.46875 29.5312 5.46875ZM29.5312 27.7621L26.7395 26.3648C26.5875 26.2888 26.4199 26.2492 26.25 26.2492C26.0801 26.2492 25.9125 26.2888 25.7605 26.3648L21.875 28.309L17.9895 26.3648C17.8375 26.2888 17.6699 26.2492 17.5 26.2492C17.3301 26.2492 17.1625 26.2888 17.0105 26.3648L13.125 28.309L9.23945 26.3648C9.0875 26.2888 8.91992 26.2492 8.75 26.2492C8.58008 26.2492 8.4125 26.2888 8.26055 26.3648L5.46875 27.7621V7.65625H29.5312V27.7621ZM8.26055 22.8539C8.38908 22.9183 8.52904 22.9567 8.67243 22.9669C8.81582 22.9771 8.95981 22.959 9.09619 22.9136C9.23256 22.8681 9.35864 22.7962 9.46721 22.702C9.57577 22.6078 9.6647 22.4931 9.72891 22.3645L10.5191 20.7812H15.7309L16.5211 22.3645C16.5854 22.493 16.6743 22.6076 16.7829 22.7018C16.8915 22.796 17.0176 22.8678 17.1539 22.9133C17.2903 22.9587 17.4342 22.9769 17.5776 22.9667C17.7209 22.9565 17.8609 22.9182 17.9895 22.8539C18.118 22.7896 18.2326 22.7007 18.3268 22.5921C18.421 22.4835 18.4928 22.3574 18.5383 22.2211C18.5837 22.0847 18.6019 21.9408 18.5917 21.7974C18.5815 21.6541 18.5432 21.5141 18.4789 21.3855L14.1039 12.6355C14.0132 12.4535 13.8735 12.3004 13.7006 12.1934C13.5277 12.0864 13.3284 12.0297 13.125 12.0297C12.9216 12.0297 12.7223 12.0864 12.5494 12.1934C12.3765 12.3004 12.2368 12.4535 12.1461 12.6355L7.77109 21.3855C7.70672 21.5141 7.66832 21.654 7.65809 21.7974C7.64785 21.9408 7.66598 22.0848 7.71144 22.2212C7.7569 22.3576 7.82879 22.4836 7.92301 22.5922C8.01723 22.7008 8.13193 22.7897 8.26055 22.8539ZM13.125 15.5709L14.6371 18.5938H11.6129L13.125 15.5709ZM18.5938 17.5C18.5938 17.2099 18.709 16.9317 18.9141 16.7266C19.1192 16.5215 19.3974 16.4062 19.6875 16.4062H21.875V14.2188C21.875 13.9287 21.9902 13.6505 22.1954 13.4454C22.4005 13.2402 22.6787 13.125 22.9688 13.125C23.2588 13.125 23.537 13.2402 23.7421 13.4454C23.9473 13.6505 24.0625 13.9287 24.0625 14.2188V16.4062H26.25C26.5401 16.4062 26.8183 16.5215 27.0234 16.7266C27.2285 16.9317 27.3438 17.2099 27.3438 17.5C27.3438 17.7901 27.2285 18.0683 27.0234 18.2734C26.8183 18.4785 26.5401 18.5938 26.25 18.5938H24.0625V20.7812C24.0625 21.0713 23.9473 21.3495 23.7421 21.5546C23.537 21.7598 23.2588 21.875 22.9688 21.875C22.6787 21.875 22.4005 21.7598 22.1954 21.5546C21.9902 21.3495 21.875 21.0713 21.875 20.7812V18.5938H19.6875C19.3974 18.5938 19.1192 18.4785 18.9141 18.2734C18.709 18.0683 18.5938 17.7901 18.5938 17.5Z" fill="black"/>
</svg>
