<svg width="16" height="18" viewBox="0 0 16 18" fill="none" xmlns="http://www.w3.org/2000/svg">
<path d="M0 18V2H6.316C6.22467 1.48933 6.34667 1.02833 6.682 0.617C7.01667 0.205667 7.45933 0 8.01 0C8.56067 0 9.00333 0.205667 9.338 0.617C9.67267 1.02833 9.78833 1.48933 9.685 2H16V18H0ZM1 17H15V3H1V17ZM3.5 14.27H9.5V13.27H3.5V14.27ZM3.5 10.5H12.5V9.5H3.5V10.5ZM3.5 6.73H12.5V5.73H3.5V6.73ZM8 2.443C8.21667 2.443 8.396 2.37233 8.538 2.231C8.68 2.08967 8.75067 1.91033 8.75 1.693C8.74933 1.47567 8.67833 1.29667 8.537 1.156C8.39567 1.01533 8.21667 0.944 8 0.942C7.78333 0.94 7.60433 1.011 7.463 1.155C7.32167 1.299 7.25067 1.478 7.25 1.692C7.24933 1.906 7.32033 2.08533 7.463 2.23C7.60567 2.37467 7.78467 2.44633 8 2.443Z" fill="white"/>
</svg>
