<svg width="31" height="31" viewBox="0 0 31 31" fill="none" xmlns="http://www.w3.org/2000/svg">
<path d="M6.45833 27.125C5.74792 27.125 5.13997 26.8723 4.6345 26.3668C4.12903 25.8613 3.87586 25.2529 3.875 24.5417V6.45834C3.875 5.74792 4.12817 5.13998 4.6345 4.63451C5.14083 4.12903 5.74878 3.87587 6.45833 3.87501H11.8833C12.1632 3.10001 12.6316 2.4757 13.2887 2.00209C13.9457 1.52848 14.6828 1.29167 15.5 1.29167C16.3172 1.29167 17.0547 1.52848 17.7126 2.00209C18.3705 2.4757 18.8385 3.10001 19.1167 3.87501H24.5417C25.2521 3.87501 25.8605 4.12817 26.3668 4.63451C26.8731 5.14084 27.1259 5.74878 27.125 6.45834V24.5417C27.125 25.2521 26.8723 25.8605 26.3668 26.3668C25.8613 26.8731 25.2529 27.1259 24.5417 27.125H6.45833ZM6.45833 24.5417H24.5417V6.45834H6.45833V24.5417ZM10.3333 21.9583H16.7917C17.1576 21.9583 17.4646 21.8343 17.7126 21.5863C17.9606 21.3383 18.0842 21.0318 18.0833 20.6667C18.0825 20.3016 17.9585 19.995 17.7113 19.747C17.4642 19.499 17.1576 19.375 16.7917 19.375H10.3333C9.96736 19.375 9.66081 19.499 9.41367 19.747C9.16653 19.995 9.04253 20.3016 9.04167 20.6667C9.04081 21.0318 9.16481 21.3388 9.41367 21.5876C9.66253 21.8365 9.96908 21.9601 10.3333 21.9583ZM10.3333 16.7917H20.6667C21.0326 16.7917 21.3396 16.6677 21.5876 16.4197C21.8356 16.1717 21.9592 15.8651 21.9583 15.5C21.9575 15.1349 21.8335 14.8283 21.5863 14.5803C21.3392 14.3323 21.0326 14.2083 20.6667 14.2083H10.3333C9.96736 14.2083 9.66081 14.3323 9.41367 14.5803C9.16653 14.8283 9.04253 15.1349 9.04167 15.5C9.04081 15.8651 9.16481 16.1721 9.41367 16.421C9.66253 16.6698 9.96908 16.7934 10.3333 16.7917ZM10.3333 11.625H20.6667C21.0326 11.625 21.3396 11.501 21.5876 11.253C21.8356 11.005 21.9592 10.6984 21.9583 10.3333C21.9575 9.96823 21.8335 9.66167 21.5863 9.41367C21.3392 9.16567 21.0326 9.04167 20.6667 9.04167H10.3333C9.96736 9.04167 9.66081 9.16567 9.41367 9.41367C9.16653 9.66167 9.04253 9.96823 9.04167 10.3333C9.04081 10.6984 9.16481 11.0054 9.41367 11.2543C9.66253 11.5032 9.96908 11.6267 10.3333 11.625ZM15.5 5.48959C15.7799 5.48959 16.0115 5.39788 16.1949 5.21446C16.3783 5.03105 16.4696 4.79984 16.4688 4.52084C16.4679 4.24184 16.3762 4.01063 16.1936 3.82721C16.0111 3.6438 15.7799 3.55209 15.5 3.55209C15.2201 3.55209 14.9889 3.6438 14.8064 3.82721C14.6238 4.01063 14.5321 4.24184 14.5312 4.52084C14.5304 4.79984 14.6221 5.03148 14.8064 5.21575C14.9907 5.40003 15.2219 5.49131 15.5 5.48959Z" fill="white"/>
</svg>
