<svg width="10" height="17" viewBox="0 0 10 17" fill="none" xmlns="http://www.w3.org/2000/svg">
<path d="M0.800967 7.7634L0.800956 7.76341C0.607976 7.96176 0.5 8.22758 0.5 8.50432C0.5 8.78107 0.607975 9.04689 0.800956 9.24524L0.800967 9.24525L7.54942 16.1812C7.64587 16.2818 7.7612 16.3626 7.88884 16.4187C8.01744 16.4753 8.15597 16.5058 8.29644 16.5085C8.4369 16.5111 8.5765 16.4859 8.70716 16.4343C8.83781 16.3827 8.95693 16.3056 9.05762 16.2077C9.15831 16.1097 9.23857 15.9927 9.29376 15.8635C9.34894 15.7343 9.37796 15.5955 9.37913 15.455C9.38029 15.3145 9.35359 15.1752 9.30056 15.0451L8.83755 15.2338L9.30056 15.0451C9.24791 14.9159 9.17037 14.7984 9.07234 14.6993L3.04423 8.50432L9.07239 2.30935C9.17039 2.21019 9.24792 2.0927 9.30056 1.96357C9.35359 1.83348 9.38029 1.69416 9.37913 1.55367C9.37796 1.41319 9.34894 1.27433 9.29376 1.14514C9.23857 1.01594 9.15831 0.898971 9.05762 0.800998C8.95693 0.703025 8.83781 0.625993 8.70716 0.57436C8.5765 0.522727 8.4369 0.497518 8.29644 0.500193C8.15597 0.502867 8.01744 0.533371 7.88884 0.58994C7.76119 0.646092 7.64586 0.726818 7.54941 0.827502L0.800967 7.7634Z" fill="black" stroke="black"/>
</svg>
