<svg width="21" height="21" viewBox="0 0 21 21" fill="none" xmlns="http://www.w3.org/2000/svg">
<path d="M1 17.0417V5.125V17.0417ZM1 17.0417C1.00073 17.6492 1.2424 18.2317 1.67202 18.6613C2.10163 19.0909 2.6841 19.3326 3.29167 19.3333L1 17.0417ZM17.0417 2.33333H14.7917V1.45833C14.7917 1.20417 14.6907 0.960413 14.511 0.78069L14.1581 1.13356L14.511 0.780688C14.3313 0.600967 14.0875 0.5 13.8333 0.5C13.5792 0.5 13.3354 0.600967 13.1557 0.78069C12.976 0.960411 12.875 1.20417 12.875 1.45833V2.33333H7.45833V1.45833C7.45833 1.20417 7.35737 0.960412 7.17764 0.780689C6.99792 0.600967 6.75417 0.5 6.5 0.5C6.24583 0.5 6.00208 0.600967 5.82236 0.780689C5.64263 0.960412 5.54167 1.20417 5.54167 1.45833V2.33333L3.29167 2.33333L3.29107 2.33333C2.5511 2.33422 1.8417 2.62856 1.31846 3.1518C0.795229 3.67503 0.500887 4.38444 0.5 5.1244V5.125L0.5 17.0417L0.5 17.0423C0.500887 17.7822 0.795229 18.4916 1.31846 19.0149C1.8417 19.5381 2.5511 19.8324 3.29107 19.8333H3.29167H17.0417C17.7821 19.8333 18.4921 19.5392 19.0157 19.0157C19.5392 18.4921 19.8333 17.7821 19.8333 17.0417V5.125C19.8333 4.3846 19.5392 3.67453 19.0157 3.15099C18.4921 2.62745 17.7821 2.33333 17.0417 2.33333ZM17.9167 17.0417C17.9167 17.2737 17.8245 17.4963 17.6604 17.6604C17.4963 17.8245 17.2737 17.9167 17.0417 17.9167H3.29167C3.0596 17.9167 2.83704 17.8245 2.67295 17.6604C2.50885 17.4963 2.41667 17.2737 2.41667 17.0417V9.75H17.9167V17.0417ZM14.511 5.80264L14.1574 5.44909L14.511 5.80264C14.6907 5.62292 14.7917 5.37917 14.7917 5.125V4.25H17.0417C17.2737 4.25 17.4963 4.34219 17.6604 4.50628C17.8245 4.67038 17.9167 4.89294 17.9167 5.125V7.83333H2.41667V5.125C2.41667 4.64171 2.80741 4.25 3.29167 4.25H5.54167V5.125C5.54167 5.37917 5.64263 5.62292 5.82236 5.80264C6.00208 5.98237 6.24583 6.08333 6.5 6.08333C6.75417 6.08333 6.99792 5.98237 7.17764 5.80264C7.35737 5.62292 7.45833 5.37917 7.45833 5.125V4.25H12.875V5.125C12.875 5.37917 12.976 5.62292 13.1557 5.80264C13.3354 5.98237 13.5792 6.08333 13.8333 6.08333C14.0875 6.08333 14.3313 5.98237 14.511 5.80264Z" fill="#192D49" stroke="#172B47"/>
</svg>
