<svg width="22" height="22" viewBox="0 0 22 22" fill="none" xmlns="http://www.w3.org/2000/svg">
<g clip-path="url(#clip0_7007_15268)">
<path d="M7.52954 5.1979L8.14341 4.91179C8.71806 4.64369 9.39766 4.87096 9.73191 5.44299L10.397 6.58239C10.687 7.07879 10.6423 7.71214 10.2869 8.14719L9.29871 9.35974C9.44974 9.98957 9.74519 10.5912 10.1851 11.1645C10.6037 11.7195 11.1295 12.1849 11.7312 12.533L13.0252 11.9091C13.5158 11.6724 14.0988 11.7976 14.4722 12.2188L15.342 13.2011C15.7759 13.691 15.8049 14.4397 15.4108 14.9525L14.9871 15.5024C14.5657 16.0499 13.8975 16.3144 13.2331 16.1971C11.6648 15.9198 10.0989 14.7005 8.53552 12.5392C6.97081 10.3747 6.27079 8.45797 6.43545 6.78896C6.50504 6.08704 6.9211 5.48167 7.52917 5.19738" fill="white"/>
</g>
<defs>
<clipPath id="clip0_7007_15268">
<rect width="15.3964" height="15.3964" fill="white" transform="translate(9.00586 21.4937) rotate(-125.799)"/>
</clipPath>
</defs>
</svg>
