<svg width="26" height="26" viewBox="0 0 26 26" fill="none" xmlns="http://www.w3.org/2000/svg">
<circle cx="13" cy="13" r="12.5" fill="white" stroke="#172B47"/>
<g clip-path="url(#clip0_8985_5997)">
<path d="M9.52954 7.19796L10.1434 6.91186C10.7181 6.64375 11.3977 6.87102 11.7319 7.44306L12.397 8.58245C12.687 9.07885 12.6423 9.7122 12.2869 10.1473L11.2987 11.3598C11.4497 11.9896 11.7452 12.5912 12.1851 13.1646C12.6037 13.7196 13.1295 14.185 13.7312 14.5331L15.0252 13.9091C15.5158 13.6724 16.0988 13.7977 16.4722 14.2189L17.342 15.2012C17.7759 15.691 17.8049 16.4397 17.4108 16.9526L16.9871 17.5025C16.5657 18.05 15.8975 18.3144 15.2331 18.1972C13.6648 17.9198 12.0989 16.7005 10.5355 14.5393C8.97081 12.3748 8.27079 10.458 8.43545 8.78902C8.50504 8.0871 8.9211 7.48174 9.52917 7.19744" fill="#172B47"/>
</g>
<defs>
<clipPath id="clip0_8985_5997">
<rect width="15.3964" height="15.3964" fill="white" transform="translate(11.0059 23.4937) rotate(-125.799)"/>
</clipPath>
</defs>
</svg>
