<svg width="20" height="9" viewBox="0 0 20 9" fill="none" xmlns="http://www.w3.org/2000/svg">
<path d="M19.9491 5.99199L19.7511 7.029C19.5661 8 18.6591 8.652 17.6311 8.553L15.5841 8.35499C14.6921 8.26899 13.9321 7.63499 13.7061 6.78899L13.0741 4.434C12.1401 4.05066 11.1101 3.87566 9.9841 3.909C8.90067 3.93224 7.83293 4.17266 6.8441 4.616L6.4531 6.821C6.3051 7.657 5.6151 8.28 4.7421 8.368L2.7071 8.57199C1.6921 8.674 0.719096 8.028 0.430096 7.062L0.121096 6.02499C-0.186904 4.99299 0.088096 3.907 0.842096 3.174C2.62276 1.444 5.5921 0.575996 9.7501 0.569996C13.9134 0.565329 16.9751 1.428 18.9351 3.158C19.7591 3.886 20.1451 4.96399 19.9501 5.99199" fill="white"/>
</svg>
