<svg width="19" height="17" viewBox="0 0 19 17" fill="none" xmlns="http://www.w3.org/2000/svg">
<path fill-rule="evenodd" clip-rule="evenodd" d="M6.01512 2.55221C6.2265 1.51513 7.14958 0.78125 8.20646 0.78125H10.7936C11.8505 0.78125 12.7728 1.51513 12.985 2.55221C13.0083 2.66641 13.0695 2.76942 13.1585 2.84466C13.2475 2.91991 13.3593 2.96301 13.4758 2.96704H13.5019C14.6126 3.01613 15.466 3.15229 16.1785 3.62017C16.6274 3.91467 17.0138 4.29308 17.3146 4.73563C17.689 5.28504 17.8537 5.91679 17.9329 6.67996C18.0105 7.4265 18.0105 8.36146 18.0105 9.54579V9.61308C18.0105 10.7974 18.0105 11.7332 17.9329 12.4789C17.8537 13.2421 17.689 13.8738 17.3146 14.424C17.0121 14.8662 16.6262 15.2451 16.1785 15.5395C15.622 15.9045 14.9831 16.066 14.2089 16.1427C13.4505 16.2188 12.4997 16.2188 11.2916 16.2188H7.7085C6.50042 16.2188 5.54962 16.2188 4.79121 16.1427C4.01696 16.066 3.37808 15.9053 2.82154 15.5395C2.37381 15.2449 1.98791 14.8657 1.6855 14.4233C1.31104 13.8738 1.14637 13.2421 1.06721 12.4789C0.989624 11.7332 0.989624 10.7974 0.989624 9.61308V9.54579C0.989624 8.36146 0.989624 7.4265 1.06721 6.67996C1.14637 5.91679 1.31104 5.28504 1.6855 4.73563C1.98791 4.29314 2.37381 3.91396 2.82154 3.61937C3.53404 3.15229 4.38746 3.01613 5.49817 2.96783L5.51162 2.96704H5.52429C5.64079 2.96301 5.75255 2.91991 5.84158 2.84466C5.93061 2.76942 5.99174 2.66641 6.01512 2.55221ZM8.20646 1.96875C7.69979 1.96875 7.27467 2.31946 7.17887 2.78892C7.0245 3.54892 6.35 4.14742 5.53854 4.15454C4.47137 4.20204 3.89979 4.33267 3.47229 4.61292C3.15519 4.82186 2.88174 5.09047 2.66717 5.40379C2.44867 5.72442 2.31725 6.13529 2.24758 6.80267C2.17792 7.48033 2.17712 8.35433 2.17712 9.57983C2.17712 10.8053 2.17712 11.6785 2.24837 12.3562C2.31725 13.0236 2.44867 13.4345 2.66796 13.7559C2.88012 14.0678 3.15325 14.337 3.47308 14.5468C3.80321 14.7629 4.22596 14.8935 4.90917 14.9616C5.60108 15.0305 6.4925 15.0312 7.74096 15.0312H11.2591C12.5068 15.0312 13.3982 15.0313 14.0909 14.9616C14.7741 14.8935 15.1969 14.7637 15.527 14.5468C15.8468 14.337 16.1207 14.0678 16.3329 13.7551C16.5514 13.4345 16.6828 13.0236 16.7525 12.3562C16.8222 11.6785 16.823 10.8045 16.823 9.57983C16.823 8.35513 16.823 7.48033 16.7517 6.80267C16.6828 6.13529 16.5514 5.72442 16.3321 5.40379C16.1176 5.09018 15.8442 4.8213 15.527 4.61213C15.1011 4.33267 14.5295 4.20204 13.4607 4.15454C12.6501 4.14663 11.9756 3.54971 11.8212 2.78892C11.7705 2.5548 11.6406 2.34534 11.4534 2.19591C11.2662 2.04648 11.0331 1.96625 10.7936 1.96875H8.20646ZM9.50004 7.51042C9.02762 7.51042 8.57456 7.69808 8.24051 8.03213C7.90646 8.36618 7.71879 8.81925 7.71879 9.29167C7.71879 9.76408 7.90646 10.2172 8.24051 10.5512C8.57456 10.8853 9.02762 11.0729 9.50004 11.0729C9.97246 11.0729 10.4255 10.8853 10.7596 10.5512C11.0936 10.2172 11.2813 9.76408 11.2813 9.29167C11.2813 8.81925 11.0936 8.36618 10.7596 8.03213C10.4255 7.69808 9.97246 7.51042 9.50004 7.51042ZM6.53129 9.29167C6.53129 8.50431 6.84407 7.74919 7.40082 7.19244C7.95757 6.63569 8.71268 6.32292 9.50004 6.32292C10.2874 6.32292 11.0425 6.63569 11.5993 7.19244C12.156 7.74919 12.4688 8.50431 12.4688 9.29167C12.4688 10.079 12.156 10.8341 11.5993 11.3909C11.0425 11.9476 10.2874 12.2604 9.50004 12.2604C8.71268 12.2604 7.95757 11.9476 7.40082 11.3909C6.84407 10.8341 6.53129 10.079 6.53129 9.29167ZM13.6563 6.91667C13.6563 6.75919 13.7188 6.60817 13.8302 6.49682C13.9415 6.38547 14.0926 6.32292 14.25 6.32292H15.0417C15.1992 6.32292 15.3502 6.38547 15.4616 6.49682C15.5729 6.60817 15.6355 6.75919 15.6355 6.91667C15.6355 7.07414 15.5729 7.22516 15.4616 7.33651C15.3502 7.44786 15.1992 7.51042 15.0417 7.51042H14.25C14.0926 7.51042 13.9415 7.44786 13.8302 7.33651C13.7188 7.22516 13.6563 7.07414 13.6563 6.91667Z" fill="black"/>
</svg>
