<svg width="33" height="33" viewBox="0 0 33 33" fill="none" xmlns="http://www.w3.org/2000/svg">
<path d="M4.55948 27.4134C4.10412 27.4138 3.66722 27.2334 3.34471 26.9119C3.0222 26.5905 2.84045 26.1541 2.83936 25.6988V23.3393L2.84348 9.02002C2.84348 8.10834 3.20564 7.234 3.8503 6.58934C4.49496 5.94468 5.3693 5.58252 6.28098 5.58252H26.73C27.1814 5.58252 27.6284 5.67143 28.0455 5.84418C28.4625 6.01693 28.8415 6.27014 29.1607 6.58934C29.4799 6.90854 29.7331 7.28749 29.9058 7.70455C30.0786 8.1216 30.1675 8.5686 30.1675 9.02002V20.5838C30.1675 21.0352 30.0786 21.4822 29.9058 21.8992C29.7331 22.3163 29.4799 22.6952 29.1607 23.0144C28.8415 23.3337 28.4625 23.5869 28.0455 23.7596C27.6284 23.9324 27.1814 24.0213 26.73 24.0213H9.51223C8.9656 24.0214 8.44138 24.2385 8.05473 24.6249L5.77498 26.9088C5.61546 27.0686 5.42601 27.1954 5.21744 27.282C5.00888 27.3686 4.7853 27.4133 4.55948 27.4134ZM6.28098 6.96027C5.73397 6.96027 5.20937 7.17757 4.82257 7.56436C4.43578 7.95116 4.21848 8.47576 4.21848 9.02277L4.20748 23.3379V25.6946C4.20763 25.7626 4.22792 25.829 4.26579 25.8854C4.30366 25.9419 4.3574 25.9858 4.42023 26.0117C4.48307 26.0376 4.55216 26.0443 4.6188 26.0309C4.68543 26.0176 4.74661 25.9848 4.79461 25.9366L7.08261 23.65C7.4008 23.3298 7.77941 23.0759 8.19649 22.9031C8.61356 22.7304 9.06079 22.6421 9.51223 22.6435H26.73C27.277 22.6435 27.8016 22.4262 28.1884 22.0394C28.5752 21.6526 28.7925 21.128 28.7925 20.581V9.02277C28.7925 8.47576 28.5752 7.95116 28.1884 7.56436C27.8016 7.17757 27.277 6.96027 26.73 6.96027H6.28098Z" fill="#172B47"/>
</svg>
