<svg width="34" height="34" viewBox="0 0 34 34" fill="none" xmlns="http://www.w3.org/2000/svg">
<path d="M24.0833 2.8335V5.66683M17 2.8335V5.66683M9.91665 2.8335V5.66683M19.125 22.6668H24.0833M19.125 12.7502H24.0833M4.95831 14.1668C4.95831 9.49183 4.95831 7.15433 6.4104 5.70225C7.86248 4.25016 10.2 4.25016 14.875 4.25016H19.125C23.8 4.25016 26.1375 4.25016 27.5896 5.70225C29.0416 7.15433 29.0416 9.49183 29.0416 14.1668V21.2502C29.0416 25.9252 29.0416 28.2627 27.5896 29.7147C26.1375 31.1668 23.8 31.1668 19.125 31.1668H14.875C10.2 31.1668 7.86248 31.1668 6.4104 29.7147C4.95831 28.2627 4.95831 25.9252 4.95831 21.2502V14.1668Z" stroke="black" stroke-width="1.5" stroke-linecap="round" stroke-linejoin="round"/>
<path d="M9.91663 14.1668C9.91663 14.1668 10.625 14.1668 11.3333 15.5835C11.3333 15.5835 13.583 12.0418 15.5833 11.3335M9.91663 24.0835C9.91663 24.0835 10.625 24.0835 11.3333 25.5002C11.3333 25.5002 13.583 21.9585 15.5833 21.2502" stroke="black" stroke-width="1.5" stroke-linecap="round" stroke-linejoin="round"/>
</svg>
