<svg width="16" height="16" viewBox="0 0 16 16" fill="none" xmlns="http://www.w3.org/2000/svg">
<path d="M13.5002 1C13.0674 0.999814 12.6461 1.14013 12.2999 1.39986C11.9536 1.6596 11.7009 2.02471 11.5799 2.44032C11.4589 2.85593 11.4761 3.29959 11.6288 3.70462C11.7816 4.10964 12.0617 4.45414 12.427 4.68634L11.1219 9.25406C11.0814 9.25147 11.0408 9.25012 11.0002 9.25C10.57 9.24953 10.1513 9.38854 9.80672 9.64619L7.39566 7.63697C7.5098 7.2983 7.53111 6.93523 7.45737 6.58553C7.38363 6.23583 7.21754 5.91228 6.97636 5.64854C6.73519 5.38479 6.42775 5.19049 6.08602 5.08585C5.7443 4.9812 5.38077 4.97003 5.03327 5.05351C4.68577 5.13698 4.36698 5.31205 4.11007 5.56049C3.85317 5.80894 3.66752 6.12169 3.57246 6.4662C3.4774 6.81071 3.47638 7.17441 3.56953 7.51944C3.66267 7.86448 3.84657 8.17825 4.10209 8.42813L2.68672 11.259C2.62474 11.2531 2.56251 11.2501 2.50025 11.25C2.02112 11.2494 1.55764 11.4206 1.19395 11.7325C0.830267 12.0444 0.590473 12.4764 0.518099 12.9501C0.445726 13.4237 0.545569 13.9076 0.799507 14.3139C1.05344 14.7202 1.44464 15.022 1.9021 15.1645C2.35955 15.307 2.85294 15.2808 3.29269 15.0906C3.73245 14.9003 4.08944 14.5588 4.29885 14.1278C4.50826 13.6969 4.55622 13.2051 4.43402 12.7418C4.31182 12.2785 4.02756 11.8744 3.63284 11.6028L4.97034 8.92816C5.29524 9.01777 5.63755 9.02363 5.96532 8.94518C6.2931 8.86673 6.59566 8.70653 6.84478 8.47953L9.17916 10.4249C9.02064 10.7742 8.96593 11.1618 9.02155 11.5413C9.07717 11.9209 9.24078 12.2765 9.49286 12.5656C9.74495 12.8548 10.0749 13.0653 10.4433 13.1722C10.8117 13.2791 11.2031 13.2777 11.5708 13.1683C11.9385 13.0589 12.267 12.8461 12.517 12.5552C12.7671 12.2643 12.9282 11.9076 12.9812 11.5276C13.0342 11.1477 12.9768 10.7605 12.8159 10.4123C12.655 10.0641 12.3973 9.76949 12.0736 9.56366L13.3786 4.99594C13.4188 4.99838 13.4593 5 13.5002 5C14.0307 5 14.5394 4.78929 14.9145 4.41421C15.2895 4.03914 15.5002 3.53043 15.5002 3C15.5002 2.46957 15.2895 1.96086 14.9145 1.58579C14.5394 1.21071 14.0307 1 13.5002 1ZM2.50025 14.25C2.30247 14.25 2.10913 14.1914 1.94468 14.0815C1.78023 13.9716 1.65206 13.8154 1.57637 13.6327C1.50068 13.45 1.48088 13.2489 1.51946 13.0549C1.55805 12.8609 1.65329 12.6827 1.79314 12.5429C1.933 12.403 2.11118 12.3078 2.30516 12.2692C2.49914 12.2306 2.70021 12.2504 2.88293 12.3261C3.06566 12.4018 3.22184 12.53 3.33172 12.6944C3.4416 12.8589 3.50025 13.0522 3.50025 13.25C3.49995 13.5151 3.3945 13.7693 3.20703 13.9568C3.01956 14.1442 2.76538 14.2497 2.50025 14.25ZM5.50025 8C5.30247 8 5.10913 7.94135 4.94468 7.83147C4.78023 7.72159 4.65206 7.56541 4.57637 7.38268C4.50068 7.19996 4.48088 6.99889 4.51946 6.80491C4.55805 6.61093 4.65329 6.43275 4.79314 6.29289C4.933 6.15304 5.11118 6.0578 5.30516 6.01921C5.49914 5.98063 5.70021 6.00043 5.88293 6.07612C6.06566 6.15181 6.22184 6.27998 6.33172 6.44443C6.4416 6.60888 6.50025 6.80222 6.50025 7C6.49995 7.26513 6.3945 7.51931 6.20703 7.70678C6.01956 7.89425 5.76538 7.9997 5.50025 8ZM11.0002 12.25C10.8025 12.25 10.6091 12.1914 10.4447 12.0815C10.2802 11.9716 10.1521 11.8154 10.0764 11.6327C10.0007 11.45 9.98088 11.2489 10.0195 11.0549C10.0581 10.8609 10.1533 10.6827 10.2931 10.5429C10.433 10.403 10.6112 10.3078 10.8052 10.2692C10.9991 10.2306 11.2002 10.2504 11.3829 10.3261C11.5657 10.4018 11.7218 10.53 11.8317 10.6944C11.9416 10.8589 12.0002 11.0522 12.0002 11.25C12 11.5151 11.8945 11.7693 11.707 11.9568C11.5196 12.1442 11.2654 12.2497 11.0002 12.25ZM13.5002 4C13.3025 4 13.1091 3.94135 12.9447 3.83147C12.7802 3.72159 12.6521 3.56541 12.5764 3.38268C12.5007 3.19996 12.4809 2.99889 12.5195 2.80491C12.5581 2.61093 12.6533 2.43275 12.7931 2.29289C12.933 2.15304 13.1112 2.0578 13.3052 2.01921C13.4991 1.98063 13.7002 2.00043 13.8829 2.07612C14.0657 2.15181 14.2218 2.27998 14.3317 2.44443C14.4416 2.60888 14.5002 2.80222 14.5002 3C14.5 3.26513 14.3945 3.51931 14.207 3.70678C14.0196 3.89425 13.7654 3.9997 13.5002 4Z" fill="white"/>
</svg>
