<svg width="34" height="34" viewBox="0 0 34 34" fill="none" xmlns="http://www.w3.org/2000/svg">
<path fill-rule="evenodd" clip-rule="evenodd" d="M4.25 4.25H26.2083V7.79167H24.7917V5.66667H5.66667V21.9583H20.8158V23.375H4.25V4.25ZM25.5 13.4583C26.0636 13.4583 26.6041 13.2345 27.0026 12.8359C27.4011 12.4374 27.625 11.8969 27.625 11.3333C27.625 10.7697 27.4011 10.2292 27.0026 9.83073C26.6041 9.43222 26.0636 9.20833 25.5 9.20833C24.9364 9.20833 24.3959 9.43222 23.9974 9.83073C23.5989 10.2292 23.375 10.7697 23.375 11.3333C23.375 11.8969 23.5989 12.4374 23.9974 12.8359C24.3959 13.2345 24.9364 13.4583 25.5 13.4583ZM26.9386 14.8821C27.8587 14.8821 28.5869 15.2957 29.0636 15.9347C29.5092 16.5332 29.6976 17.2734 29.7401 17.957C29.7822 18.6581 29.6867 19.3608 29.4589 20.0253C29.2464 20.6415 28.8873 21.279 28.3333 21.7161V28.6875C28.3338 28.9545 28.2339 29.2118 28.0532 29.4084C27.8726 29.605 27.6246 29.7264 27.3586 29.7484C27.0926 29.7705 26.828 29.6916 26.6175 29.5274C26.4069 29.3632 26.2659 29.1259 26.2225 28.8625L25.3088 23.375H25.0977L24.0649 28.883C24.0159 29.143 23.8716 29.3753 23.6604 29.5345C23.4491 29.6937 23.1861 29.7684 22.9227 29.744C22.6592 29.7195 22.4144 29.5977 22.2361 29.4023C22.0577 29.2069 21.9587 28.952 21.9583 28.6875V18.5817C21.8167 18.7975 21.6769 19.0145 21.539 19.2327L21.4838 19.3198L21.4696 19.3425L21.466 19.3488C21.3706 19.5021 21.2376 19.6285 21.0797 19.7162C20.9218 19.8038 20.7442 19.8497 20.5636 19.8496H17.022C16.7402 19.8496 16.4699 19.7377 16.2707 19.5384C16.0714 19.3392 15.9595 19.0689 15.9595 18.7871C15.9595 18.5053 16.0714 18.2351 16.2707 18.0358C16.4699 17.8366 16.7402 17.7246 17.022 17.7246H19.9807C20.1528 17.4583 20.3795 17.1126 20.6175 16.7655C20.8654 16.4036 21.1388 16.0204 21.3825 15.72C21.5008 15.5734 21.6332 15.4204 21.7664 15.295C21.8315 15.2334 21.9222 15.1534 22.0327 15.0825C22.2274 14.9538 22.4552 14.8844 22.6886 14.8828L26.9386 14.8821Z" fill="black"/>
</svg>
