<svg width="9" height="11" viewBox="0 0 9 11" fill="none" xmlns="http://www.w3.org/2000/svg">
<path d="M4.5 0C4.85558 0 5.14286 0.307227 5.14286 0.6875V1.03125H5.46429C5.81987 1.03125 6.10714 1.33848 6.10714 1.71875C6.10714 2.09902 5.81987 2.40625 5.46429 2.40625H5.14286V3.4375H8.19643C8.6404 3.4375 9 3.82207 9 4.29688C9 4.41074 8.97991 4.52246 8.93772 4.62773L7.39286 8.59375H1.60714L0.0622768 4.62773C0.0200893 4.52246 0 4.41074 0 4.29688C0 3.82207 0.359598 3.4375 0.803571 3.4375H3.85714V2.40625H3.53571C3.18013 2.40625 2.89286 2.09902 2.89286 1.71875C2.89286 1.33848 3.18013 1.03125 3.53571 1.03125H3.85714V0.6875C3.85714 0.307227 4.14442 0 4.5 0ZM0.775446 10.1707L1.60714 9.28125H7.39286L8.22455 10.1707C8.30893 10.2609 8.35714 10.3855 8.35714 10.5145C8.35714 10.783 8.15424 11 7.90312 11H1.09687C0.845759 11 0.642857 10.783 0.642857 10.5145C0.642857 10.3855 0.691071 10.2609 0.775446 10.1707Z" fill="#EC5951"/>
</svg>
