<svg width="13" height="13" viewBox="0 0 13 13" fill="none" xmlns="http://www.w3.org/2000/svg">
<path d="M2.12483 12.125C1.59358 12.125 1.21608 11.8881 0.992325 11.4144C0.768575 10.9406 0.823158 10.5004 1.15608 10.0938L4.62483 5.875V2.125H3.99983C3.82274 2.125 3.67441 2.065 3.55483 1.945C3.43524 1.825 3.37524 1.67667 3.37483 1.5C3.37441 1.32333 3.43441 1.175 3.55483 1.055C3.67524 0.935 3.82358 0.875 3.99983 0.875H8.99983C9.17691 0.875 9.32545 0.935 9.44545 1.055C9.56545 1.175 9.62524 1.32333 9.62483 1.5C9.62441 1.67667 9.56441 1.82521 9.44483 1.94562C9.32524 2.06604 9.17691 2.12583 8.99983 2.125H8.37483V5.875L11.8436 10.0938C12.1769 10.5 12.2317 10.9402 12.0079 11.4144C11.7842 11.8885 11.4065 12.1254 10.8748 12.125H2.12483Z" fill="#F7941E"/>
</svg>
