<svg width="70" height="74" viewBox="0 0 70 74" fill="none" xmlns="http://www.w3.org/2000/svg">
<path d="M62.2642 32.7289L34.9004 25.0134L21.0561 7.43769L24.6893 4.57582L21.8275 0.942599L0.0281388 18.1138L2.89001 21.7471L6.52324 18.8852L20.3675 36.4609L21.4594 64.8706C21.5249 66.5837 22.0629 68.2453 23.0142 69.6715C23.9654 71.0977 25.2926 72.233 26.849 72.9517C28.4055 73.6704 30.1304 73.9445 31.8329 73.7436C33.5354 73.5427 35.1492 72.8748 36.4956 71.8136L65.4906 48.9745C66.8376 47.914 67.8649 46.5016 68.4589 44.8934C69.053 43.2853 69.1905 41.5442 68.8563 39.8627C68.5222 38.1813 67.7294 36.625 66.5656 35.3662C65.4018 34.1074 63.9125 33.1951 62.2623 32.7303M24.9309 34.7798L10.1565 16.0233L17.4229 10.2996L32.1973 29.0561L42.3118 31.9072L25.3338 45.2808L24.9309 34.7798ZM62.6305 45.3398L33.6356 68.179C32.9589 68.7109 32.1483 69.0454 31.2935 69.1457C30.4386 69.2461 29.5726 69.1082 28.7912 68.7475C28.0097 68.3867 27.3431 67.817 26.8649 67.1013C26.3867 66.3856 26.1156 65.5517 26.0815 64.6917L25.5543 50.9946L47.815 33.4599L61.0095 37.179C61.8376 37.4137 62.5848 37.8726 63.1686 38.505C63.7524 39.1375 64.1501 39.919 64.3178 40.7633C64.4855 41.6075 64.4167 42.4817 64.119 43.2893C63.8212 44.0968 63.3061 44.8065 62.6305 45.3398Z" fill="white" fill-opacity="0.3"/>
</svg>
