<svg width="25" height="25" viewBox="0 0 25 25" fill="none" xmlns="http://www.w3.org/2000/svg">
<path d="M15.8836 12.5001L22.4338 5.9499C23.3682 5.01553 23.3682 3.50063 22.4338 2.56626C21.4994 1.63188 19.9846 1.63188 19.0502 2.56626L12.5 9.11646L5.94978 2.56626C5.0154 1.63188 3.50051 1.63188 2.56614 2.56626C1.63176 3.50063 1.63176 5.01553 2.56614 5.9499L9.11633 12.5001L2.56614 19.0503C1.63176 19.9847 1.63176 21.4996 2.56614 22.4339C3.03333 22.9011 3.64563 23.1347 4.25793 23.1347C4.87024 23.1347 5.48259 22.9011 5.94973 22.4339L12.5 15.8837L19.0502 22.4339C19.5174 22.9011 20.1297 23.1347 20.742 23.1347C21.3543 23.1347 21.9666 22.9011 22.4338 22.4339C23.3681 21.4996 23.3681 19.9847 22.4338 19.0503L15.8836 12.5001Z" fill="black"/>
</svg>
