<svg width="27" height="31" viewBox="0 0 27 31" fill="none" xmlns="http://www.w3.org/2000/svg">
<path d="M0.958252 14.8617C0.958252 12.4286 0.958252 11.212 1.44917 10.1424C1.94188 9.07279 2.86458 8.28266 4.71179 6.69883L6.50346 5.16337C9.84492 2.30208 11.5112 0.868744 13.4999 0.868744C15.4887 0.868744 17.1567 2.30029 20.4964 5.16158L22.288 6.69704C24.1335 8.28087 25.058 9.07099 25.5489 10.1406C26.0416 11.2102 26.0416 12.4268 26.0416 14.8599V22.4583C26.0416 25.8374 26.0416 27.5252 24.9917 28.5751C23.9418 29.625 22.254 29.625 18.8749 29.625H8.12492C4.74584 29.625 3.05809 29.625 2.00817 28.5751C0.958252 27.5252 0.958252 25.8374 0.958252 22.4583V14.8617Z" stroke="#172B47"/>
<path d="M17.9791 29.625V20.6667C17.9791 20.1915 17.7903 19.7358 17.4543 19.3998C17.1183 19.0638 16.6626 18.875 16.1874 18.875H10.8124C10.3372 18.875 9.88152 19.0638 9.54552 19.3998C9.20952 19.7358 9.02075 20.1915 9.02075 20.6667V29.625" stroke="#172B47" stroke-linecap="round" stroke-linejoin="round"/>
</svg>
