<svg width="32" height="32" viewBox="0 0 32 32" fill="none" xmlns="http://www.w3.org/2000/svg">
<g clip-path="url(#clip0_10585_21021)">
<path d="M14.5143 1.14307H28.9189C29.9909 1.14307 30.8595 2.01164 30.8595 3.08364V18.5762C30.8595 19.6505 29.9909 20.5191 28.9189 20.5191H17.1429M7.19774 9.14535C8.25891 9.14535 9.27661 8.7238 10.027 7.97344C10.7773 7.22308 11.1989 6.20538 11.1989 5.14421C11.1989 4.08304 10.7773 3.06533 10.027 2.31497C9.27661 1.56461 8.25891 1.14307 7.19774 1.14307C6.13657 1.14307 5.11886 1.56461 4.3685 2.31497C3.61814 3.06533 3.19659 4.08304 3.19659 5.14421C3.19659 6.20538 3.61814 7.22308 4.3685 7.97344C5.11886 8.7238 6.13657 9.14535 7.19774 9.14535Z" stroke="black" stroke-width="1.5" stroke-linecap="round" stroke-linejoin="round"/>
<path d="M20.5715 12.6336C20.5715 11.3376 19.52 10.2861 18.224 10.2861H7.19774C5.59208 10.2867 4.05235 10.9249 2.91698 12.0602C1.7816 13.1956 1.14349 14.7353 1.14288 16.341V21.7147H3.73717L4.60345 30.8576H9.79203L11.7852 14.9833H18.224C19.52 14.9833 20.5715 13.9318 20.5715 12.6336Z" stroke="black" stroke-width="1.5" stroke-linecap="round" stroke-linejoin="round"/>
</g>
<defs>
<clipPath id="clip0_10585_21021">
<rect width="32" height="32" fill="white"/>
</clipPath>
</defs>
</svg>
