<svg width="17" height="17" viewBox="0 0 17 17" fill="none" xmlns="http://www.w3.org/2000/svg">
<path d="M3.54199 8.49992V2.83325M13.4587 14.1666V12.0416M3.54199 14.1666V11.3333M13.4587 9.20825V2.83325M8.50033 4.95825V2.83325M8.50033 14.1666V7.79159" stroke="#172B47" stroke-linecap="round"/>
<path d="M3.54167 11.3333C4.32407 11.3333 4.95833 10.6991 4.95833 9.91667C4.95833 9.13426 4.32407 8.5 3.54167 8.5C2.75926 8.5 2.125 9.13426 2.125 9.91667C2.125 10.6991 2.75926 11.3333 3.54167 11.3333Z" stroke="#172B47" stroke-linecap="round"/>
<path d="M8.49967 7.79159C9.28208 7.79159 9.91634 7.15732 9.91634 6.37492C9.91634 5.59252 9.28208 4.95825 8.49967 4.95825C7.71727 4.95825 7.08301 5.59252 7.08301 6.37492C7.08301 7.15732 7.71727 7.79159 8.49967 7.79159Z" stroke="#172B47" stroke-linecap="round"/>
<path d="M13.4587 12.0416C14.2411 12.0416 14.8753 11.4073 14.8753 10.6249C14.8753 9.84252 14.2411 9.20825 13.4587 9.20825C12.6763 9.20825 12.042 9.84252 12.042 10.6249C12.042 11.4073 12.6763 12.0416 13.4587 12.0416Z" stroke="#172B47" stroke-linecap="round"/>
</svg>
