<svg width="23" height="23" viewBox="0 0 23 23" fill="none" xmlns="http://www.w3.org/2000/svg">
<path d="M10.542 16.2916H6.70866C5.38296 16.2916 4.25309 15.8242 3.31903 14.8895C2.38498 13.9548 1.91763 12.825 1.91699 11.4999C1.91635 10.1749 2.3837 9.04499 3.31903 8.11029C4.25437 7.1756 5.38424 6.70825 6.70866 6.70825H10.542V8.62492H6.70866C5.91005 8.62492 5.23123 8.90443 4.6722 9.46346C4.11317 10.0225 3.83366 10.7013 3.83366 11.4999C3.83366 12.2985 4.11317 12.9773 4.6722 13.5364C5.23123 14.0954 5.91005 14.3749 6.70866 14.3749H10.542V16.2916ZM7.66699 12.4583V10.5416H15.3337V12.4583H7.66699ZM12.4587 16.2916V14.3749H16.292C17.0906 14.3749 17.7694 14.0954 18.3284 13.5364C18.8875 12.9773 19.167 12.2985 19.167 11.4999C19.167 10.7013 18.8875 10.0225 18.3284 9.46346C17.7694 8.90443 17.0906 8.62492 16.292 8.62492H12.4587V6.70825H16.292C17.6177 6.70825 18.7479 7.1756 19.6826 8.11029C20.6173 9.04499 21.0843 10.1749 21.0837 11.4999C21.083 12.825 20.6157 13.9552 19.6816 14.8905C18.7476 15.8258 17.6177 16.2929 16.292 16.2916H12.4587Z" fill="#BF1E2D"/>
</svg>
