<svg width="24" height="20" viewBox="0 0 24 20" fill="none" xmlns="http://www.w3.org/2000/svg">
<path d="M10.7875 12.4042L15.375 9.45296C15.6383 9.28296 15.77 9.04879 15.77 8.75046C15.77 8.45212 15.6383 8.21837 15.375 8.04921L10.7875 5.09671C10.5158 4.90587 10.2333 4.88921 9.94 5.04671C9.64667 5.20337 9.5 5.45171 9.5 5.79171V11.7092C9.5 12.0492 9.64667 12.2975 9.94 12.4542C10.2333 12.6117 10.5163 12.595 10.7888 12.4042M2.76875 17.5005C2.19375 17.5005 1.71334 17.308 1.3275 16.923C0.941669 16.538 0.749169 16.0571 0.750003 15.4805V2.02046C0.750003 1.44462 0.942919 0.964208 1.32875 0.579208C1.71459 0.194208 2.19459 0.0012911 2.76875 0.000457764H21.2313C21.8063 0.000457764 22.2863 0.193374 22.6713 0.579208C23.0563 0.965041 23.2492 1.44546 23.25 2.02046V15.4817C23.25 16.0567 23.0571 16.5371 22.6713 16.923C22.2854 17.3088 21.8054 17.5013 21.2313 17.5005H15.75V18.9905C15.75 19.2813 15.6542 19.5221 15.4625 19.713C15.2708 19.9038 15.03 19.9996 14.74 20.0005H9.26C8.97 20.0005 8.72917 19.9046 8.5375 19.713C8.34584 19.5213 8.25 19.2805 8.25 18.9905V17.5005H2.76875ZM2.76875 16.2505H21.2313C21.4229 16.2505 21.5992 16.1705 21.76 16.0105C21.9208 15.8505 22.0008 15.6738 22 15.4805V2.02046C22 1.82796 21.92 1.65129 21.76 1.49046C21.6 1.32962 21.4238 1.24962 21.2313 1.25046H2.76875C2.57709 1.25046 2.40084 1.33046 2.24 1.49046C2.07917 1.65046 1.99917 1.82712 2 2.02046V15.4817C2 15.6734 2.08 15.8496 2.24 16.0105C2.4 16.1713 2.57625 16.2513 2.76875 16.2505Z" fill="white"/>
</svg>
