<svg width="27" height="27" viewBox="0 0 27 27" fill="none" xmlns="http://www.w3.org/2000/svg">
<path d="M12.4088 15.6634L16.5375 13.0072C16.7745 12.8542 16.893 12.6435 16.893 12.375C16.893 12.1065 16.7745 11.8961 16.5375 11.7439L12.4088 9.08662C12.1643 8.91487 11.91 8.89987 11.646 9.04162C11.382 9.18262 11.25 9.40613 11.25 9.71213V15.0379C11.25 15.3439 11.382 15.5674 11.646 15.7084C11.91 15.8501 12.1646 15.8351 12.4099 15.6634M5.19188 20.25C4.67438 20.25 4.242 20.0767 3.89475 19.7303C3.5475 19.3837 3.37425 18.951 3.375 18.432V6.318C3.375 5.79975 3.54863 5.36737 3.89588 5.02087C4.24313 4.67437 4.67513 4.50075 5.19188 4.5H21.8081C22.3256 4.5 22.7576 4.67362 23.1041 5.02087C23.4506 5.36812 23.6243 5.8005 23.625 6.318V18.4331C23.625 18.9506 23.4514 19.383 23.1041 19.7303C22.7569 20.0775 22.3249 20.2507 21.8081 20.25H16.875V21.591C16.875 21.8527 16.7888 22.0695 16.6163 22.2413C16.4438 22.413 16.227 22.4993 15.966 22.5H11.034C10.773 22.5 10.5563 22.4137 10.3838 22.2413C10.2113 22.0688 10.125 21.852 10.125 21.591V20.25H5.19188ZM5.19188 19.125H21.8081C21.9806 19.125 22.1393 19.053 22.284 18.909C22.4288 18.765 22.5008 18.606 22.5 18.432V6.318C22.5 6.14475 22.428 5.98575 22.284 5.841C22.14 5.69625 21.9814 5.62425 21.8081 5.625H5.19188C5.01938 5.625 4.86075 5.697 4.716 5.841C4.57125 5.985 4.49925 6.144 4.5 6.318V18.4331C4.5 18.6056 4.572 18.7643 4.716 18.909C4.86 19.0538 5.01863 19.1257 5.19188 19.125Z" fill="#BF1E2D"/>
</svg>
