<svg width="31" height="25" viewBox="0 0 31 25" fill="none" xmlns="http://www.w3.org/2000/svg">
<path d="M15.25 0.5C14.6975 0.5 14.1676 0.719494 13.7769 1.11019C13.3862 1.50089 13.1667 2.0308 13.1667 2.58333C13.1667 3.13587 13.3862 3.66577 13.7769 4.05647C14.1676 4.44717 14.6975 4.66667 15.25 4.66667H27.9167C28.4692 4.66667 28.9991 4.44717 29.3898 4.05647C29.7805 3.66577 30 3.13587 30 2.58333C30 2.0308 29.7805 1.5009 29.3898 1.11019C28.9991 0.719493 28.4692 0.5 27.9167 0.5H15.25ZM7.44353 10.6102C7.05283 11.0009 6.83333 11.5308 6.83333 12.0833C6.83333 12.6359 7.05283 13.1658 7.44353 13.5565C7.83423 13.9472 8.36413 14.1667 8.91667 14.1667H21.5833C22.1359 14.1667 22.6658 13.9472 23.0565 13.5565C23.4472 13.1658 23.6667 12.6359 23.6667 12.0833C23.6667 11.5308 23.4472 11.0009 23.0565 10.6102C22.6658 10.2195 22.1359 10 21.5833 10H8.91667C8.36413 10 7.83423 10.2195 7.44353 10.6102ZM1.11019 20.1102C0.719493 20.5009 0.5 21.0308 0.5 21.5833C0.5 22.1359 0.719493 22.6658 1.11019 23.0565C1.5009 23.4472 2.0308 23.6667 2.58333 23.6667H15.25C15.8025 23.6667 16.3324 23.4472 16.7231 23.0565C17.1138 22.6658 17.3333 22.1359 17.3333 21.5833C17.3333 21.0308 17.1138 20.5009 16.7231 20.1102C16.3324 19.7195 15.8025 19.5 15.25 19.5H2.58333C2.0308 19.5 1.5009 19.7195 1.11019 20.1102Z" fill="#172B47" stroke="black"/>
</svg>
