<svg width="18" height="17" viewBox="0 0 18 17" fill="none" xmlns="http://www.w3.org/2000/svg">
<path d="M1.125 5.9625C1.125 5.0085 1.125 4.32563 1.17 3.79125C1.21275 3.26363 1.29375 2.9295 1.431 2.66062L0.42975 2.14987C0.198 2.60325 0.0967498 3.10275 0.0472498 3.70012C-2.05357e-07 4.29075 0 5.02763 0 5.9625H1.125ZM1.125 7.3125V5.9625H0V7.3125H1.125ZM0 7.3125V12.9375H1.125V7.3125H0ZM0 12.9375V15.0908H1.125V12.9375H0ZM0 15.0908C0 16.0425 1.15088 16.5195 1.82475 15.8456L1.02937 15.0503C1.03905 15.0438 1.04968 15.0388 1.06087 15.0356L1.09012 15.0379C1.09946 15.0432 1.1074 15.0507 1.11327 15.0597C1.11914 15.0687 1.12277 15.0789 1.12388 15.0896L0 15.0908ZM1.82475 15.8456L4.00612 13.6643L3.21075 12.8689L1.02825 15.0514L1.82475 15.8456ZM12.0375 12.375H4.40325V13.5H12.0375V12.375ZM15.3394 12.069C15.0705 12.2063 14.7364 12.2873 14.2087 12.3311C13.6732 12.375 12.9915 12.375 12.0375 12.375V13.5C12.9735 13.5 13.7093 13.5 14.2999 13.4516C14.8973 13.4033 15.3968 13.302 15.8501 13.0714L15.3394 12.069ZM16.5679 10.8394C16.2983 11.3683 15.8683 11.7994 15.3394 12.069L15.8501 13.0714C16.5913 12.6938 17.1938 12.0913 17.5714 11.3501L16.5679 10.8394ZM16.875 7.5375C16.875 8.4915 16.875 9.17438 16.83 9.70875C16.7872 10.2364 16.7062 10.5705 16.5679 10.8394L17.5714 11.3501C17.802 10.8968 17.9033 10.3973 17.9516 9.79988C18 9.20925 18 8.47238 18 7.5375H16.875ZM16.875 5.9625V7.5375H18V5.9625H16.875ZM16.5679 2.66062C16.7051 2.9295 16.7873 3.26363 16.8311 3.79125C16.875 4.32563 16.875 5.0085 16.875 5.9625H18C18 5.0265 18 4.29075 17.9516 3.70012C17.9033 3.10275 17.802 2.60325 17.5714 2.14987L16.5679 2.66062ZM15.3394 1.431C15.8684 1.70088 16.2985 2.13132 16.5679 2.66062L17.5714 2.14987C17.1938 1.40872 16.5913 0.806172 15.8501 0.428625L15.3394 1.431ZM12.0375 1.125C12.9915 1.125 13.6732 1.125 14.2087 1.17C14.7364 1.21275 15.0705 1.29375 15.3394 1.431L15.8501 0.428625C15.3968 0.196875 14.8973 0.0967498 14.2999 0.0472498C13.7093 -2.05357e-07 12.9724 0 12.0375 0V1.125ZM5.9625 1.125H12.0375V0H5.9625V1.125ZM2.66062 1.431C2.9295 1.29487 3.26362 1.21275 3.79125 1.16888C4.32562 1.125 5.0085 1.125 5.9625 1.125V0C5.0265 0 4.29075 2.47266e-07 3.70012 0.0483753C3.10275 0.0967503 2.60325 0.198 2.14987 0.428625L2.66062 1.431ZM1.431 2.66062C1.70069 2.13115 2.13115 1.70069 2.66062 1.431L2.14987 0.428625C1.4089 0.805879 0.807488 1.40914 0.42975 2.14987L1.431 2.66062ZM4.00612 13.6643C4.11154 13.5591 4.25435 13.5 4.40325 13.5V12.375C3.95585 12.3754 3.52691 12.5534 3.21075 12.87L4.00612 13.6643Z" fill="#172B47"/>
<path d="M5.0625 5.0625H12.9375M5.0625 8.4375H10.6875" stroke="#172B47" stroke-linecap="round" stroke-linejoin="round"/>
</svg>
