<svg width="16" height="4" viewBox="0 0 16 4" fill="none" xmlns="http://www.w3.org/2000/svg">
<path d="M2 2H2.015V2.015H2V2Z" stroke="black" stroke-linecap="round" stroke-linejoin="round"/>
<path d="M2.75 2C2.75 2.19891 2.67098 2.38968 2.53033 2.53033C2.38968 2.67098 2.19891 2.75 2 2.75C1.80109 2.75 1.61032 2.67098 1.46967 2.53033C1.32902 2.38968 1.25 2.19891 1.25 2C1.25 1.80109 1.32902 1.61032 1.46967 1.46967C1.61032 1.32902 1.80109 1.25 2 1.25C2.19891 1.25 2.38968 1.32902 2.53033 1.46967C2.67098 1.61032 2.75 1.80109 2.75 2ZM8 2H8.015V2.015H8V2Z" stroke="black" stroke-linecap="round" stroke-linejoin="round"/>
<path d="M8.75 2C8.75 2.19891 8.67098 2.38968 8.53033 2.53033C8.38968 2.67098 8.19891 2.75 8 2.75C7.80109 2.75 7.61032 2.67098 7.46967 2.53033C7.32902 2.38968 7.25 2.19891 7.25 2C7.25 1.80109 7.32902 1.61032 7.46967 1.46967C7.61032 1.32902 7.80109 1.25 8 1.25C8.19891 1.25 8.38968 1.32902 8.53033 1.46967C8.67098 1.61032 8.75 1.80109 8.75 2ZM13.985 2H14V2.015H13.985V2Z" stroke="black" stroke-linecap="round" stroke-linejoin="round"/>
<path d="M14.7349 2C14.7349 2.19891 14.6558 2.38968 14.5152 2.53033C14.3745 2.67098 14.1838 2.75 13.9849 2.75C13.786 2.75 13.5952 2.67098 13.4545 2.53033C13.3139 2.38968 13.2349 2.19891 13.2349 2C13.2349 1.80109 13.3139 1.61032 13.4545 1.46967C13.5952 1.32902 13.786 1.25 13.9849 1.25C14.1838 1.25 14.3745 1.32902 14.5152 1.46967C14.6558 1.61032 14.7349 1.80109 14.7349 2Z" stroke="black" stroke-linecap="round" stroke-linejoin="round"/>
</svg>
