<svg width="36" height="36" viewBox="0 0 36 36" fill="none" xmlns="http://www.w3.org/2000/svg">
<path d="M19.3199 10.5255L26.4809 12.432M17.7869 16.2195L21.3659 17.1735M17.9654 26.949L19.3964 27.3315C23.4464 28.4115 25.4714 28.95 27.0674 28.0335C28.6619 27.1185 29.2049 25.104 30.2894 21.078L31.8239 15.3825C32.9099 11.355 33.4514 9.34201 32.5304 7.75501C31.6094 6.16801 29.5859 5.62951 25.5344 4.55101L24.1034 4.16851C20.0534 3.08851 18.0284 2.55001 16.4339 3.46651C14.8379 4.38151 14.2949 6.39601 13.2089 10.422L11.6759 16.1175C10.5899 20.145 10.0469 22.158 10.9694 23.745C11.8904 25.3305 13.9154 25.8705 17.9654 26.949Z" stroke="#172B47" stroke-width="1.5" stroke-linecap="round" stroke-linejoin="round"/>
<path d="M18 31.419L16.572 31.809C12.531 32.9085 10.512 33.459 8.91904 32.5245C7.32904 31.5915 6.78604 29.5395 5.70454 25.4325L4.17304 19.6245C3.09004 15.519 2.54854 13.4655 3.46804 11.8485C4.26304 10.449 6.00004 10.5 8.25004 10.5" stroke="#172B47" stroke-width="1.5" stroke-linecap="round" stroke-linejoin="round"/>
</svg>
