<svg width="19" height="19" viewBox="0 0 19 19" fill="none" xmlns="http://www.w3.org/2000/svg">
<g clip-path="url(#clip0_9737_483)">
<path d="M1.58325 12.6667C1.58325 10.4278 1.58325 9.30763 2.27913 8.61255C2.97421 7.91667 4.09442 7.91667 6.33325 7.91667H12.6666C14.9054 7.91667 16.0256 7.91667 16.7207 8.61255C17.4166 9.30763 17.4166 10.4278 17.4166 12.6667C17.4166 14.9055 17.4166 16.0257 16.7207 16.7208C16.0256 17.4167 14.9054 17.4167 12.6666 17.4167H6.33325C4.09442 17.4167 2.97421 17.4167 2.27913 16.7208C1.58325 16.0257 1.58325 14.9055 1.58325 12.6667Z" stroke="#BF1E2D" stroke-width="1.5"/>
<path d="M4.75 7.91667V6.33333C4.74886 5.17639 5.17 4.05881 5.93438 3.19035C6.69877 2.32188 7.75383 1.76225 8.90156 1.61649C10.0493 1.47073 11.2107 1.74886 12.1679 2.39868C13.1252 3.0485 13.8123 4.02534 14.1004 5.14583" stroke="#BF1E2D" stroke-width="1.5" stroke-linecap="round"/>
<path d="M6.33325 12.6667H6.34038M9.49279 12.6667H9.49992M12.6595 12.6667H12.6666" stroke="#BF1E2D" stroke-width="2" stroke-linecap="round" stroke-linejoin="round"/>
</g>
<defs>
<clipPath id="clip0_9737_483">
<rect width="19" height="19" fill="white"/>
</clipPath>
</defs>
</svg>
