<svg width="14" height="18" viewBox="0 0 14 18" fill="none" xmlns="http://www.w3.org/2000/svg">
<path d="M11.6667 17.1666C11.025 17.1666 10.4759 16.9383 10.0193 16.4818C9.56278 16.0252 9.33411 15.4757 9.33333 14.8333V3.16659C9.33333 2.52492 9.562 1.97581 10.0193 1.51925C10.4767 1.0627 11.0258 0.834032 11.6667 0.833254C12.3076 0.832476 12.8571 1.06114 13.3152 1.51925C13.7733 1.97736 14.0016 2.52648 14 3.16659V14.8333C14 15.4749 13.7717 16.0244 13.3152 16.4818C12.8586 16.9391 12.3091 17.1674 11.6667 17.1666ZM2.33333 17.1666C1.69167 17.1666 1.14256 16.9383 0.686 16.4818C0.229444 16.0252 0.000777778 15.4757 0 14.8333V3.16659C0 2.52492 0.228666 1.97581 0.686 1.51925C1.14333 1.0627 1.69244 0.834032 2.33333 0.833254C2.97422 0.832476 3.52372 1.06114 3.98183 1.51925C4.43994 1.97736 4.66822 2.52648 4.66667 3.16659V14.8333C4.66667 15.4749 4.43839 16.0244 3.98183 16.4818C3.52528 16.9391 2.97578 17.1674 2.33333 17.1666Z" fill="white"/>
</svg>
