<svg width="47" height="47" viewBox="0 0 47 47" fill="none" xmlns="http://www.w3.org/2000/svg">
<path d="M23.9333 22.7583C15.018 22.7583 7.7771 29.9845 7.7771 38.9145V44.0552H40.0749V38.9145C40.0749 29.9845 32.8487 22.7583 23.9333 22.7583Z" fill="#56436B"/>
<path d="M23.9333 22.7583C15.018 22.7583 7.7771 29.9845 7.7771 38.9145V44.0552H40.0749V38.9145C40.0749 29.9845 32.8487 22.7583 23.9333 22.7583Z" fill="url(#paint0_radial_7054_16751)"/>
<path d="M23.9333 22.7583C15.018 22.7583 7.7771 29.9845 7.7771 38.9145V44.0552H40.0749V38.9145C40.0749 29.9845 32.8487 22.7583 23.9333 22.7583Z" fill="url(#paint1_radial_7054_16751)"/>
<path d="M34.2381 26.5756C34.2729 26.505 34.2832 26.4249 34.2675 26.3478C34.2518 26.2707 34.211 26.201 34.1515 26.1496C31.4255 23.7967 27.7683 22.4983 23.9378 22.4983C20.1073 22.4983 16.4281 23.8099 13.7006 26.1511C13.6408 26.2023 13.5997 26.2719 13.5838 26.349C13.5678 26.4261 13.5779 26.5063 13.6125 26.577C15.4866 30.3958 19.1291 33.3524 23.9378 33.3524C28.7465 33.3524 32.3537 30.3943 34.2381 26.5756Z" fill="url(#paint2_radial_7054_16751)"/>
<path d="M34.2381 26.5756C34.2729 26.505 34.2832 26.4249 34.2675 26.3478C34.2518 26.2707 34.211 26.201 34.1515 26.1496C31.4255 23.7967 27.7683 22.4983 23.9378 22.4983C20.1073 22.4983 16.4281 23.8099 13.7006 26.1511C13.6408 26.2023 13.5997 26.2719 13.5838 26.349C13.5678 26.4261 13.5779 26.5063 13.6125 26.577C15.4866 30.3958 19.1291 33.3524 23.9378 33.3524C28.7465 33.3524 32.3537 30.3943 34.2381 26.5756Z" fill="url(#paint3_radial_7054_16751)"/>
<path d="M34.2381 26.5756C34.2729 26.505 34.2832 26.4249 34.2675 26.3478C34.2518 26.2707 34.211 26.201 34.1515 26.1496C31.4255 23.7967 27.7683 22.4983 23.9378 22.4983C20.1073 22.4983 16.4281 23.8099 13.7006 26.1511C13.6408 26.2023 13.5997 26.2719 13.5838 26.349C13.5678 26.4261 13.5779 26.5063 13.6125 26.577C15.4866 30.3958 19.1291 33.3524 23.9378 33.3524C28.7465 33.3524 32.3537 30.3943 34.2381 26.5756Z" fill="url(#paint4_radial_7054_16751)"/>
<path d="M34.2381 26.5756C34.2729 26.505 34.2832 26.4249 34.2675 26.3478C34.2518 26.2707 34.211 26.201 34.1515 26.1496C31.4255 23.7967 27.7683 22.4983 23.9378 22.4983C20.1073 22.4983 16.4281 23.8099 13.7006 26.1511C13.6408 26.2023 13.5997 26.2719 13.5838 26.349C13.5678 26.4261 13.5779 26.5063 13.6125 26.577C15.4866 30.3958 19.1291 33.3524 23.9378 33.3524C28.7465 33.3524 32.3537 30.3943 34.2381 26.5756Z" fill="url(#paint5_radial_7054_16751)"/>
<path d="M34.2381 26.5756C34.2729 26.505 34.2832 26.4249 34.2675 26.3478C34.2518 26.2707 34.211 26.201 34.1515 26.1496C31.4255 23.7967 27.7683 22.4983 23.9378 22.4983C20.1073 22.4983 16.4281 23.8099 13.7006 26.1511C13.6408 26.2023 13.5997 26.2719 13.5838 26.349C13.5678 26.4261 13.5779 26.5063 13.6125 26.577C15.4866 30.3958 19.1291 33.3524 23.9378 33.3524C28.7465 33.3524 32.3537 30.3943 34.2381 26.5756Z" fill="url(#paint6_radial_7054_16751)"/>
<path d="M34.2381 26.5756C34.2729 26.505 34.2832 26.4249 34.2675 26.3478C34.2518 26.2707 34.211 26.201 34.1515 26.1496C31.4255 23.7967 27.7683 22.4983 23.9378 22.4983C20.1073 22.4983 16.4281 23.8099 13.7006 26.1511C13.6408 26.2023 13.5997 26.2719 13.5838 26.349C13.5678 26.4261 13.5779 26.5063 13.6125 26.577C15.4866 30.3958 19.1291 33.3524 23.9378 33.3524C28.7465 33.3524 32.3537 30.3943 34.2381 26.5756Z" fill="url(#paint7_radial_7054_16751)"/>
<g filter="url(#filter0_f_7054_16751)">
<path d="M23.4943 27.708C23.5868 27.7711 23.7439 27.8255 23.9055 27.8313C24.0511 27.8272 24.193 27.7847 24.3168 27.708C25.8105 26.6857 26.9311 25.6679 26.9311 23.9098V18.5723C26.9311 16.898 25.5799 15.5467 23.9055 15.5467C22.2311 15.5467 20.8799 16.898 20.8799 18.5723V23.9098C20.8799 25.6679 22.0005 26.6857 23.4943 27.708Z" stroke="#1F0F21" stroke-width="0.4"/>
</g>
<path d="M23.4943 27.708C23.5868 27.7711 23.7439 27.8255 23.9055 27.8313C24.0511 27.8272 24.193 27.7847 24.3168 27.708C25.8105 26.6857 26.9311 25.6679 26.9311 23.9098V18.5723C26.9311 16.898 25.5799 15.5467 23.9055 15.5467C22.2311 15.5467 20.8799 16.898 20.8799 18.5723V23.9098C20.8799 25.6679 22.0005 26.6857 23.4943 27.708Z" fill="url(#paint8_radial_7054_16751)"/>
<path d="M23.4943 27.708C23.5868 27.7711 23.7439 27.8255 23.9055 27.8313C24.0511 27.8272 24.193 27.7847 24.3168 27.708C25.8105 26.6857 26.9311 25.6679 26.9311 23.9098V18.5723C26.9311 16.898 25.5799 15.5467 23.9055 15.5467C22.2311 15.5467 20.8799 16.898 20.8799 18.5723V23.9098C20.8799 25.6679 22.0005 26.6857 23.4943 27.708Z" fill="url(#paint9_radial_7054_16751)"/>
<path d="M23.4943 27.708C23.5868 27.7711 23.7439 27.8255 23.9055 27.8313C24.0511 27.8272 24.193 27.7847 24.3168 27.708C25.8105 26.6857 26.9311 25.6679 26.9311 23.9098V18.5723C26.9311 16.898 25.5799 15.5467 23.9055 15.5467C22.2311 15.5467 20.8799 16.898 20.8799 18.5723V23.9098C20.8799 25.6679 22.0005 26.6857 23.4943 27.708Z" fill="url(#paint10_radial_7054_16751)"/>
<path d="M36.7526 17.1374V4.11984H35.5776V17.1374H36.7526Z" fill="url(#paint11_linear_7054_16751)"/>
<path d="M36.7526 17.1374V4.11984H35.5776V17.1374H36.7526Z" fill="url(#paint12_radial_7054_16751)"/>
<path d="M35.5776 17.1021C35.3376 17.2327 35.1479 17.4396 35.0385 17.6901C34.9292 17.9405 34.9064 18.2203 34.9737 18.4851C35.0411 18.75 35.1948 18.9848 35.4106 19.1526C35.6264 19.3203 35.8918 19.4114 36.1651 19.4114C36.4384 19.4114 36.7039 19.3203 36.9197 19.1526C37.1354 18.9848 37.2891 18.75 37.3565 18.4851C37.4239 18.2203 37.4011 17.9405 37.2918 17.6901C37.1824 17.4396 36.9927 17.2327 36.7526 17.1021H35.5776Z" fill="url(#paint13_radial_7054_16751)"/>
<path d="M35.5776 17.1021C35.3376 17.2327 35.1479 17.4396 35.0385 17.6901C34.9292 17.9405 34.9064 18.2203 34.9737 18.4851C35.0411 18.75 35.1948 18.9848 35.4106 19.1526C35.6264 19.3203 35.8918 19.4114 36.1651 19.4114C36.4384 19.4114 36.7039 19.3203 36.9197 19.1526C37.1354 18.9848 37.2891 18.75 37.3565 18.4851C37.4239 18.2203 37.4011 17.9405 37.2918 17.6901C37.1824 17.4396 36.9927 17.2327 36.7526 17.1021H35.5776Z" fill="url(#paint14_radial_7054_16751)"/>
<g filter="url(#filter1_f_7054_16751)">
<path d="M36.3164 5.4476V16.8554" stroke="url(#paint15_linear_7054_16751)" stroke-width="0.15"/>
</g>
<path d="M34.9122 19.9823L34.1529 23.2709C34.1304 23.3685 34.1304 23.47 34.1529 23.5677C34.1754 23.6653 34.2198 23.7566 34.2827 23.8346C34.3457 23.9125 34.4256 23.9751 34.5163 24.0177C34.607 24.0602 34.7063 24.0816 34.8065 24.0802H37.5427C37.642 24.0786 37.7397 24.0547 37.8285 24.0102C37.9172 23.9657 37.9948 23.9018 38.0555 23.8232C38.1162 23.7446 38.1584 23.6533 38.1789 23.5562C38.1995 23.459 38.1979 23.3585 38.1743 23.2621L37.3782 19.9721C37.3389 19.8129 37.2474 19.6714 37.1182 19.5702C36.9891 19.4691 36.8299 19.4141 36.6659 19.4139H35.6275C35.4613 19.4136 35.3 19.4697 35.1698 19.5729C35.0396 19.6762 34.9483 19.8205 34.9107 19.9823" fill="url(#paint16_linear_7054_16751)"/>
<path d="M34.9122 19.9823L34.1529 23.2709C34.1304 23.3685 34.1304 23.47 34.1529 23.5677C34.1754 23.6653 34.2198 23.7566 34.2827 23.8346C34.3457 23.9125 34.4256 23.9751 34.5163 24.0177C34.607 24.0602 34.7063 24.0816 34.8065 24.0802H37.5427C37.642 24.0786 37.7397 24.0547 37.8285 24.0102C37.9172 23.9657 37.9948 23.9018 38.0555 23.8232C38.1162 23.7446 38.1584 23.6533 38.1789 23.5562C38.1995 23.459 38.1979 23.3585 38.1743 23.2621L37.3782 19.9721C37.3389 19.8129 37.2474 19.6714 37.1182 19.5702C36.9891 19.4691 36.8299 19.4141 36.6659 19.4139H35.6275C35.4613 19.4136 35.3 19.4697 35.1698 19.5729C35.0396 19.6762 34.9483 19.8205 34.9107 19.9823" fill="url(#paint17_linear_7054_16751)"/>
<path d="M34.9122 19.9823L34.1529 23.2709C34.1304 23.3685 34.1304 23.47 34.1529 23.5677C34.1754 23.6653 34.2198 23.7566 34.2827 23.8346C34.3457 23.9125 34.4256 23.9751 34.5163 24.0177C34.607 24.0602 34.7063 24.0816 34.8065 24.0802H37.5427C37.642 24.0786 37.7397 24.0547 37.8285 24.0102C37.9172 23.9657 37.9948 23.9018 38.0555 23.8232C38.1162 23.7446 38.1584 23.6533 38.1789 23.5562C38.1995 23.459 38.1979 23.3585 38.1743 23.2621L37.3782 19.9721C37.3389 19.8129 37.2474 19.6714 37.1182 19.5702C36.9891 19.4691 36.8299 19.4141 36.6659 19.4139H35.6275C35.4613 19.4136 35.3 19.4697 35.1698 19.5729C35.0396 19.6762 34.9483 19.8205 34.9107 19.9823" fill="url(#paint18_radial_7054_16751)"/>
<path d="M34.9122 19.9823L34.1529 23.2709C34.1304 23.3685 34.1304 23.47 34.1529 23.5677C34.1754 23.6653 34.2198 23.7566 34.2827 23.8346C34.3457 23.9125 34.4256 23.9751 34.5163 24.0177C34.607 24.0602 34.7063 24.0816 34.8065 24.0802H37.5427C37.642 24.0786 37.7397 24.0547 37.8285 24.0102C37.9172 23.9657 37.9948 23.9018 38.0555 23.8232C38.1162 23.7446 38.1584 23.6533 38.1789 23.5562C38.1995 23.459 38.1979 23.3585 38.1743 23.2621L37.3782 19.9721C37.3389 19.8129 37.2474 19.6714 37.1182 19.5702C36.9891 19.4691 36.8299 19.4141 36.6659 19.4139H35.6275C35.4613 19.4136 35.3 19.4697 35.1698 19.5729C35.0396 19.6762 34.9483 19.8205 34.9107 19.9823" fill="url(#paint19_radial_7054_16751)"/>
<path d="M34.9122 19.9823L34.1529 23.2709C34.1304 23.3685 34.1304 23.47 34.1529 23.5677C34.1754 23.6653 34.2198 23.7566 34.2827 23.8346C34.3457 23.9125 34.4256 23.9751 34.5163 24.0177C34.607 24.0602 34.7063 24.0816 34.8065 24.0802H37.5427C37.642 24.0786 37.7397 24.0547 37.8285 24.0102C37.9172 23.9657 37.9948 23.9018 38.0555 23.8232C38.1162 23.7446 38.1584 23.6533 38.1789 23.5562C38.1995 23.459 38.1979 23.3585 38.1743 23.2621L37.3782 19.9721C37.3389 19.8129 37.2474 19.6714 37.1182 19.5702C36.9891 19.4691 36.8299 19.4141 36.6659 19.4139H35.6275C35.4613 19.4136 35.3 19.4697 35.1698 19.5729C35.0396 19.6762 34.9483 19.8205 34.9107 19.9823" fill="url(#paint20_radial_7054_16751)"/>
<path d="M13.307 44.0552V26.7459C11.5681 28.2607 10.1746 30.131 9.22065 32.2306C8.26666 34.3301 7.7744 36.6099 7.77711 38.916V44.0566L13.307 44.0552Z" fill="url(#paint21_radial_7054_16751)"/>
<path d="M13.307 44.0552V26.7459C11.5681 28.2607 10.1746 30.131 9.22065 32.2306C8.26666 34.3301 7.7744 36.6099 7.77711 38.916V44.0566L13.307 44.0552Z" fill="url(#paint22_radial_7054_16751)"/>
<path d="M13.307 44.0552V26.7459C11.5681 28.2607 10.1746 30.131 9.22065 32.2306C8.26666 34.3301 7.7744 36.6099 7.77711 38.916V44.0566L13.307 44.0552Z" fill="url(#paint23_linear_7054_16751)"/>
<path d="M34.5452 44.0552V26.7459C36.284 28.2607 37.6775 30.131 38.6315 32.2306C39.5855 34.3301 40.0777 36.6099 40.075 38.916V44.0566L34.5452 44.0552Z" fill="url(#paint24_radial_7054_16751)"/>
<path d="M34.5452 44.0552V26.7459C36.284 28.2607 37.6775 30.131 38.6315 32.2306C39.5855 34.3301 40.0777 36.6099 40.075 38.916V44.0566L34.5452 44.0552Z" fill="url(#paint25_radial_7054_16751)"/>
<g filter="url(#filter2_f_7054_16751)">
<path d="M17.5635 34.9137C17.5635 34.6375 17.7911 34.4143 18.0717 34.4143C18.3507 34.4143 18.5784 34.6375 18.5784 34.9137V43.8628H17.5635V34.9137Z" fill="url(#paint26_linear_7054_16751)"/>
<path d="M23.418 34.9137C23.418 34.6375 23.6456 34.4143 23.9262 34.4143C24.2067 34.4143 24.4343 34.6375 24.4343 34.9137V43.8628H23.418V34.9137Z" fill="url(#paint27_linear_7054_16751)"/>
<path d="M29.2725 34.9137C29.2725 34.6375 29.5001 34.4143 29.7806 34.4143C30.0612 34.4143 30.2888 34.6375 30.2888 34.9137V43.8628H29.2739L29.2725 34.9137Z" fill="url(#paint28_linear_7054_16751)"/>
</g>
<g filter="url(#filter3_f_7054_16751)">
<path d="M30.2093 7.52002H27.0912C26.9937 7.51645 26.898 7.4932 26.8098 7.45167C26.7216 7.41014 26.6427 7.35118 26.5779 7.27836C26.5131 7.20554 26.4636 7.12035 26.4326 7.02792C26.4016 6.93549 26.3896 6.83774 26.3973 6.74055C26.405 6.64336 26.4324 6.54873 26.4776 6.46238C26.5229 6.37603 26.5852 6.29973 26.6607 6.23807C26.7362 6.17642 26.8235 6.13069 26.9171 6.10364C27.0108 6.07658 27.109 6.06876 27.2057 6.08065C28.015 6.2099 29.0901 6.38908 29.8098 6.56827C31.4357 6.97071 31.8852 7.76237 32.01 8.32783C31.7901 8.0662 31.514 7.85765 31.2022 7.71777C30.8903 7.57788 30.551 7.51028 30.2093 7.52002Z" fill="#504A4C"/>
</g>
<g filter="url(#filter4_f_7054_16751)">
<path d="M30.2093 7.42896H27.0912C26.9937 7.42539 26.898 7.40214 26.8098 7.3606C26.7216 7.31907 26.6427 7.26012 26.5779 7.1873C26.5131 7.11447 26.4636 7.02928 26.4326 6.93685C26.4016 6.84443 26.3896 6.74667 26.3973 6.64948C26.405 6.55229 26.4324 6.45767 26.4776 6.37132C26.5229 6.28496 26.5852 6.20866 26.6607 6.14701C26.7362 6.08536 26.8235 6.03963 26.9171 6.01257C27.0108 5.98552 27.109 5.9777 27.2057 5.98958C28.015 6.11736 29.0901 6.29802 29.8098 6.47427C31.4357 6.87818 31.8852 7.66983 32.01 8.2353C31.7901 7.97367 31.514 7.76512 31.2022 7.62524C30.8903 7.48535 30.551 7.41922 30.2093 7.42896Z" fill="#49373D"/>
</g>
<g filter="url(#filter5_f_7054_16751)">
<path d="M30.5412 7.49797H27.3276C27.225 7.49732 27.1236 7.47551 27.0298 7.43391C26.936 7.39231 26.8518 7.33181 26.7824 7.25619C26.7131 7.18056 26.6601 7.09145 26.6267 6.99441C26.5933 6.89737 26.5804 6.7945 26.5886 6.69222C26.5968 6.58993 26.626 6.49044 26.6744 6.39996C26.7228 6.30948 26.7893 6.22995 26.8698 6.16635C26.9504 6.10275 27.0431 6.05644 27.1424 6.03032C27.2416 6.0042 27.3451 5.99882 27.4465 6.01453C28.2808 6.14672 29.3882 6.33179 30.13 6.51391C31.8058 6.93104 32.2685 7.74766 32.3977 8.32929C32.1709 8.05984 31.8861 7.84512 31.5646 7.70117C31.2431 7.55723 30.8933 7.48776 30.5412 7.49797Z" fill="#725050"/>
</g>
<path d="M31.1758 17.7396C31.662 17.7232 32.1323 17.5627 32.5271 17.2784V18.6708C32.5271 20.0073 31.7325 21.197 30.5222 21.6905C30.7778 21.1471 30.9526 20.5566 31.0392 19.9251L31.1758 17.7396Z" fill="url(#paint29_radial_7054_16751)"/>
<path d="M16.6337 17.7396C16.1475 17.7232 15.6772 17.5627 15.2825 17.2784V18.6708C15.2825 20.0073 16.0771 21.197 17.2873 21.6905C17.0269 21.1315 16.8526 20.5363 16.7703 19.9251L16.6337 17.7396Z" fill="url(#paint30_radial_7054_16751)"/>
<g filter="url(#filter6_ii_7054_16751)">
<path d="M16.6894 20.0044C16.8742 21.4143 17.5657 22.7089 18.6348 23.6465C19.704 24.584 21.0778 25.1005 22.4998 25.0995H25.3213C26.7433 25.1009 28.1173 24.5848 29.1867 23.6475C30.2562 22.7102 30.948 21.4158 31.1331 20.0059C31.3094 17.1888 31.4856 14.382 31.6178 11.5664C31.6117 11.0139 31.3949 10.4846 31.0116 10.0865C30.6284 9.68854 30.1076 9.45189 29.5557 9.42497H27.4612C26.7601 9.42386 26.0743 9.21926 25.4872 8.83601C24.9001 8.45276 24.4368 7.90733 24.1536 7.26591C24.08 7.0818 23.9529 6.92396 23.7888 6.8127C23.6247 6.70145 23.431 6.64189 23.2327 6.64169H21.3292C18.568 6.64169 16.3325 8.90357 16.3325 11.6942C16.3325 14.4775 16.5058 17.2167 16.6894 20.0059" fill="url(#paint31_radial_7054_16751)"/>
</g>
<path d="M16.6894 20.0044C16.8742 21.4143 17.5657 22.7089 18.6348 23.6465C19.704 24.584 21.0778 25.1005 22.4998 25.0995H25.3213C26.7433 25.1009 28.1173 24.5848 29.1867 23.6475C30.2562 22.7102 30.948 21.4158 31.1331 20.0059C31.3094 17.1888 31.4856 14.382 31.6178 11.5664C31.6117 11.0139 31.3949 10.4846 31.0116 10.0865C30.6284 9.68854 30.1076 9.45189 29.5557 9.42497H27.4612C26.7601 9.42386 26.0743 9.21926 25.4872 8.83601C24.9001 8.45276 24.4368 7.90733 24.1536 7.26591C24.08 7.0818 23.9529 6.92396 23.7888 6.8127C23.6247 6.70145 23.431 6.64189 23.2327 6.64169H21.3292C18.568 6.64169 16.3325 8.90357 16.3325 11.6942C16.3325 14.4775 16.5058 17.2167 16.6894 20.0059" fill="url(#paint32_linear_7054_16751)"/>
<path d="M16.6894 20.0044C16.8742 21.4143 17.5657 22.7089 18.6348 23.6465C19.704 24.584 21.0778 25.1005 22.4998 25.0995H25.3213C26.7433 25.1009 28.1173 24.5848 29.1867 23.6475C30.2562 22.7102 30.948 21.4158 31.1331 20.0059C31.3094 17.1888 31.4856 14.382 31.6178 11.5664C31.6117 11.0139 31.3949 10.4846 31.0116 10.0865C30.6284 9.68854 30.1076 9.45189 29.5557 9.42497H27.4612C26.7601 9.42386 26.0743 9.21926 25.4872 8.83601C24.9001 8.45276 24.4368 7.90733 24.1536 7.26591C24.08 7.0818 23.9529 6.92396 23.7888 6.8127C23.6247 6.70145 23.431 6.64189 23.2327 6.64169H21.3292C18.568 6.64169 16.3325 8.90357 16.3325 11.6942C16.3325 14.4775 16.5058 17.2167 16.6894 20.0059" fill="url(#paint33_radial_7054_16751)"/>
<path d="M16.6894 20.0044C16.8742 21.4143 17.5657 22.7089 18.6348 23.6465C19.704 24.584 21.0778 25.1005 22.4998 25.0995H25.3213C26.7433 25.1009 28.1173 24.5848 29.1867 23.6475C30.2562 22.7102 30.948 21.4158 31.1331 20.0059C31.3094 17.1888 31.4856 14.382 31.6178 11.5664C31.6117 11.0139 31.3949 10.4846 31.0116 10.0865C30.6284 9.68854 30.1076 9.45189 29.5557 9.42497H27.4612C26.7601 9.42386 26.0743 9.21926 25.4872 8.83601C24.9001 8.45276 24.4368 7.90733 24.1536 7.26591C24.08 7.0818 23.9529 6.92396 23.7888 6.8127C23.6247 6.70145 23.431 6.64189 23.2327 6.64169H21.3292C18.568 6.64169 16.3325 8.90357 16.3325 11.6942C16.3325 14.4775 16.5058 17.2167 16.6894 20.0059" fill="url(#paint34_radial_7054_16751)"/>
<path d="M16.6894 20.0044C16.8742 21.4143 17.5657 22.7089 18.6348 23.6465C19.704 24.584 21.0778 25.1005 22.4998 25.0995H25.3213C26.7433 25.1009 28.1173 24.5848 29.1867 23.6475C30.2562 22.7102 30.948 21.4158 31.1331 20.0059C31.3094 17.1888 31.4856 14.382 31.6178 11.5664C31.6117 11.0139 31.3949 10.4846 31.0116 10.0865C30.6284 9.68854 30.1076 9.45189 29.5557 9.42497H27.4612C26.7601 9.42386 26.0743 9.21926 25.4872 8.83601C24.9001 8.45276 24.4368 7.90733 24.1536 7.26591C24.08 7.0818 23.9529 6.92396 23.7888 6.8127C23.6247 6.70145 23.431 6.64189 23.2327 6.64169H21.3292C18.568 6.64169 16.3325 8.90357 16.3325 11.6942C16.3325 14.4775 16.5058 17.2167 16.6894 20.0059" fill="url(#paint35_radial_7054_16751)"/>
<path d="M16.6894 20.0044C16.8742 21.4143 17.5657 22.7089 18.6348 23.6465C19.704 24.584 21.0778 25.1005 22.4998 25.0995H25.3213C26.7433 25.1009 28.1173 24.5848 29.1867 23.6475C30.2562 22.7102 30.948 21.4158 31.1331 20.0059C31.3094 17.1888 31.4856 14.382 31.6178 11.5664C31.6117 11.0139 31.3949 10.4846 31.0116 10.0865C30.6284 9.68854 30.1076 9.45189 29.5557 9.42497H27.4612C26.7601 9.42386 26.0743 9.21926 25.4872 8.83601C24.9001 8.45276 24.4368 7.90733 24.1536 7.26591C24.08 7.0818 23.9529 6.92396 23.7888 6.8127C23.6247 6.70145 23.431 6.64189 23.2327 6.64169H21.3292C18.568 6.64169 16.3325 8.90357 16.3325 11.6942C16.3325 14.4775 16.5058 17.2167 16.6894 20.0059" fill="url(#paint36_radial_7054_16751)"/>
<path d="M16.6894 20.0044C16.8742 21.4143 17.5657 22.7089 18.6348 23.6465C19.704 24.584 21.0778 25.1005 22.4998 25.0995H25.3213C26.7433 25.1009 28.1173 24.5848 29.1867 23.6475C30.2562 22.7102 30.948 21.4158 31.1331 20.0059C31.3094 17.1888 31.4856 14.382 31.6178 11.5664C31.6117 11.0139 31.3949 10.4846 31.0116 10.0865C30.6284 9.68854 30.1076 9.45189 29.5557 9.42497H27.4612C26.7601 9.42386 26.0743 9.21926 25.4872 8.83601C24.9001 8.45276 24.4368 7.90733 24.1536 7.26591C24.08 7.0818 23.9529 6.92396 23.7888 6.8127C23.6247 6.70145 23.431 6.64189 23.2327 6.64169H21.3292C18.568 6.64169 16.3325 8.90357 16.3325 11.6942C16.3325 14.4775 16.5058 17.2167 16.6894 20.0059" fill="url(#paint37_radial_7054_16751)"/>
<path d="M16.6894 20.0044C16.8742 21.4143 17.5657 22.7089 18.6348 23.6465C19.704 24.584 21.0778 25.1005 22.4998 25.0995H25.3213C26.7433 25.1009 28.1173 24.5848 29.1867 23.6475C30.2562 22.7102 30.948 21.4158 31.1331 20.0059C31.3094 17.1888 31.4856 14.382 31.6178 11.5664C31.6117 11.0139 31.3949 10.4846 31.0116 10.0865C30.6284 9.68854 30.1076 9.45189 29.5557 9.42497H27.4612C26.7601 9.42386 26.0743 9.21926 25.4872 8.83601C24.9001 8.45276 24.4368 7.90733 24.1536 7.26591C24.08 7.0818 23.9529 6.92396 23.7888 6.8127C23.6247 6.70145 23.431 6.64189 23.2327 6.64169H21.3292C18.568 6.64169 16.3325 8.90357 16.3325 11.6942C16.3325 14.4775 16.5058 17.2167 16.6894 20.0059" fill="url(#paint38_radial_7054_16751)"/>
<path d="M16.6894 20.0044C16.8742 21.4143 17.5657 22.7089 18.6348 23.6465C19.704 24.584 21.0778 25.1005 22.4998 25.0995H25.3213C26.7433 25.1009 28.1173 24.5848 29.1867 23.6475C30.2562 22.7102 30.948 21.4158 31.1331 20.0059C31.3094 17.1888 31.4856 14.382 31.6178 11.5664C31.6117 11.0139 31.3949 10.4846 31.0116 10.0865C30.6284 9.68854 30.1076 9.45189 29.5557 9.42497H27.4612C26.7601 9.42386 26.0743 9.21926 25.4872 8.83601C24.9001 8.45276 24.4368 7.90733 24.1536 7.26591C24.08 7.0818 23.9529 6.92396 23.7888 6.8127C23.6247 6.70145 23.431 6.64189 23.2327 6.64169H21.3292C18.568 6.64169 16.3325 8.90357 16.3325 11.6942C16.3325 14.4775 16.5058 17.2167 16.6894 20.0059" fill="url(#paint39_radial_7054_16751)"/>
<g filter="url(#filter7_f_7054_16751)">
<path d="M23.3048 15.087L22.4206 17.8365C22.2694 18.402 22.6321 18.9675 23.1447 18.9675H24.239C24.753 18.9675 25.1143 18.3932 24.9645 17.8365L24.2243 15.087C24.0656 14.4775 23.4708 14.4775 23.3048 15.087Z" fill="#D69790"/>
</g>
<g filter="url(#filter8_f_7054_16751)">
<path d="M23.3327 14.8021L22.5381 17.5516C22.3765 18.117 22.7658 18.6825 23.3165 18.6825H24.4915C25.0438 18.6825 25.433 18.1082 25.2714 17.5516L24.4769 14.8021C24.3065 14.1925 23.5119 14.1925 23.3327 14.8021Z" fill="#DEAB9D"/>
<path d="M23.3327 14.8021L22.5381 17.5516C22.3765 18.117 22.7658 18.6825 23.3165 18.6825H24.4915C25.0438 18.6825 25.433 18.1082 25.2714 17.5516L24.4769 14.8021C24.3065 14.1925 23.5119 14.1925 23.3327 14.8021Z" fill="url(#paint40_linear_7054_16751)"/>
<path d="M23.3327 14.8021L22.5381 17.5516C22.3765 18.117 22.7658 18.6825 23.3165 18.6825H24.4915C25.0438 18.6825 25.433 18.1082 25.2714 17.5516L24.4769 14.8021C24.3065 14.1925 23.5119 14.1925 23.3327 14.8021Z" fill="url(#paint41_radial_7054_16751)"/>
<path d="M23.3327 14.8021L22.5381 17.5516C22.3765 18.117 22.7658 18.6825 23.3165 18.6825H24.4915C25.0438 18.6825 25.433 18.1082 25.2714 17.5516L24.4769 14.8021C24.3065 14.1925 23.5119 14.1925 23.3327 14.8021Z" fill="url(#paint42_linear_7054_16751)"/>
<path d="M23.3327 14.8021L22.5381 17.5516C22.3765 18.117 22.7658 18.6825 23.3165 18.6825H24.4915C25.0438 18.6825 25.433 18.1082 25.2714 17.5516L24.4769 14.8021C24.3065 14.1925 23.5119 14.1925 23.3327 14.8021Z" fill="url(#paint43_radial_7054_16751)"/>
<path d="M23.3327 14.8021L22.5381 17.5516C22.3765 18.117 22.7658 18.6825 23.3165 18.6825H24.4915C25.0438 18.6825 25.433 18.1082 25.2714 17.5516L24.4769 14.8021C24.3065 14.1925 23.5119 14.1925 23.3327 14.8021Z" fill="url(#paint44_linear_7054_16751)"/>
</g>
<g filter="url(#filter9_f_7054_16751)">
<path d="M21.8845 19.6137C21.8189 19.5794 21.7424 19.5675 21.6694 19.58C21.5964 19.5925 21.5296 19.6286 21.4791 19.6827C21.4271 19.7352 21.3952 19.8042 21.389 19.8778C21.3829 19.9514 21.4028 20.0248 21.4453 20.0852C21.9667 20.8739 22.873 21.3982 23.904 21.3982C24.9366 21.3982 25.8428 20.8739 26.3642 20.0837C26.4061 20.0227 26.4255 19.9491 26.4191 19.8754C26.4126 19.8017 26.3808 19.7326 26.3289 19.6798C26.2783 19.6264 26.2116 19.5909 26.139 19.5787C26.0664 19.5666 25.9918 19.5783 25.9265 19.6122C25.3009 19.933 24.607 20.0977 23.904 20.0925C23.2018 20.0962 22.5104 19.9321 21.8845 19.6137Z" stroke="url(#paint45_linear_7054_16751)" stroke-width="0.15"/>
</g>
<path d="M23.904 20.2027C23.1842 20.2069 22.474 20.0381 21.833 19.7106C21.6274 19.6078 21.4071 19.8369 21.5364 20.0235C22.0372 20.7828 22.9096 21.2881 23.904 21.2881C24.8983 21.2881 25.7722 20.7828 26.2731 20.0235C26.4009 19.8296 26.182 19.6064 25.9764 19.7106C25.3357 20.0389 24.6238 20.2077 23.904 20.2027Z" fill="url(#paint46_radial_7054_16751)"/>
<g filter="url(#filter10_ii_7054_16751)">
<path d="M31.1656 5.93523C31.9352 6.1996 32.6255 6.73717 33.0603 7.50679C33.3934 8.08731 33.5555 8.75028 33.5277 9.41904C33.4999 10.0878 33.2833 10.735 32.9031 11.2859C32.6403 11.6713 32.4991 12.1266 32.4977 12.5931V14.3703C32.1963 14.1686 31.8561 14.0321 31.499 13.9693L31.6165 11.5664C31.6104 11.0141 31.3938 10.485 31.0108 10.087C30.6279 9.68906 30.1074 9.45226 29.5558 9.42498H27.4614C26.7603 9.42368 26.0746 9.21901 25.4875 8.83578C24.9004 8.45255 24.4371 7.90722 24.1538 7.26592C24.0801 7.08181 23.9531 6.92396 23.7889 6.81271C23.6248 6.70146 23.4311 6.64189 23.2328 6.6417H21.3294C18.5681 6.6417 16.3327 8.90357 16.3327 11.6942L16.3767 13.9943C15.9931 14.043 15.6255 14.1781 15.3016 14.3894V12.5931C15.3001 12.1266 15.1589 11.6714 14.8962 11.2859C14.5339 10.7523 14.3227 10.1307 14.2849 9.48685C14.2472 8.84301 14.3843 8.20094 14.6818 7.6287C15.0931 6.84099 15.7881 6.23886 16.6264 5.94404C17.4851 5.64193 18.2154 5.05662 18.6973 4.28435C19.3142 3.29588 20.3923 3.20923 21.6378 3.20923C22.1225 3.20923 22.5822 3.31204 23.0096 3.48829C23.5824 3.73798 24.2243 3.73798 24.7941 3.48829C25.2157 3.31204 25.6754 3.20923 26.1601 3.20923C27.4203 3.20923 28.5321 3.32085 29.1416 4.33135C29.6028 5.09363 30.324 5.64735 31.1656 5.93523Z" fill="url(#paint47_linear_7054_16751)"/>
<path d="M31.1656 5.93523C31.9352 6.1996 32.6255 6.73717 33.0603 7.50679C33.3934 8.08731 33.5555 8.75028 33.5277 9.41904C33.4999 10.0878 33.2833 10.735 32.9031 11.2859C32.6403 11.6713 32.4991 12.1266 32.4977 12.5931V14.3703C32.1963 14.1686 31.8561 14.0321 31.499 13.9693L31.6165 11.5664C31.6104 11.0141 31.3938 10.485 31.0108 10.087C30.6279 9.68906 30.1074 9.45226 29.5558 9.42498H27.4614C26.7603 9.42368 26.0746 9.21901 25.4875 8.83578C24.9004 8.45255 24.4371 7.90722 24.1538 7.26592C24.0801 7.08181 23.9531 6.92396 23.7889 6.81271C23.6248 6.70146 23.4311 6.64189 23.2328 6.6417H21.3294C18.5681 6.6417 16.3327 8.90357 16.3327 11.6942L16.3767 13.9943C15.9931 14.043 15.6255 14.1781 15.3016 14.3894V12.5931C15.3001 12.1266 15.1589 11.6714 14.8962 11.2859C14.5339 10.7523 14.3227 10.1307 14.2849 9.48685C14.2472 8.84301 14.3843 8.20094 14.6818 7.6287C15.0931 6.84099 15.7881 6.23886 16.6264 5.94404C17.4851 5.64193 18.2154 5.05662 18.6973 4.28435C19.3142 3.29588 20.3923 3.20923 21.6378 3.20923C22.1225 3.20923 22.5822 3.31204 23.0096 3.48829C23.5824 3.73798 24.2243 3.73798 24.7941 3.48829C25.2157 3.31204 25.6754 3.20923 26.1601 3.20923C27.4203 3.20923 28.5321 3.32085 29.1416 4.33135C29.6028 5.09363 30.324 5.64735 31.1656 5.93523Z" fill="url(#paint48_radial_7054_16751)"/>
<path d="M31.1656 5.93523C31.9352 6.1996 32.6255 6.73717 33.0603 7.50679C33.3934 8.08731 33.5555 8.75028 33.5277 9.41904C33.4999 10.0878 33.2833 10.735 32.9031 11.2859C32.6403 11.6713 32.4991 12.1266 32.4977 12.5931V14.3703C32.1963 14.1686 31.8561 14.0321 31.499 13.9693L31.6165 11.5664C31.6104 11.0141 31.3938 10.485 31.0108 10.087C30.6279 9.68906 30.1074 9.45226 29.5558 9.42498H27.4614C26.7603 9.42368 26.0746 9.21901 25.4875 8.83578C24.9004 8.45255 24.4371 7.90722 24.1538 7.26592C24.0801 7.08181 23.9531 6.92396 23.7889 6.81271C23.6248 6.70146 23.4311 6.64189 23.2328 6.6417H21.3294C18.5681 6.6417 16.3327 8.90357 16.3327 11.6942L16.3767 13.9943C15.9931 14.043 15.6255 14.1781 15.3016 14.3894V12.5931C15.3001 12.1266 15.1589 11.6714 14.8962 11.2859C14.5339 10.7523 14.3227 10.1307 14.2849 9.48685C14.2472 8.84301 14.3843 8.20094 14.6818 7.6287C15.0931 6.84099 15.7881 6.23886 16.6264 5.94404C17.4851 5.64193 18.2154 5.05662 18.6973 4.28435C19.3142 3.29588 20.3923 3.20923 21.6378 3.20923C22.1225 3.20923 22.5822 3.31204 23.0096 3.48829C23.5824 3.73798 24.2243 3.73798 24.7941 3.48829C25.2157 3.31204 25.6754 3.20923 26.1601 3.20923C27.4203 3.20923 28.5321 3.32085 29.1416 4.33135C29.6028 5.09363 30.324 5.64735 31.1656 5.93523Z" fill="url(#paint49_radial_7054_16751)"/>
<path d="M31.1656 5.93523C31.9352 6.1996 32.6255 6.73717 33.0603 7.50679C33.3934 8.08731 33.5555 8.75028 33.5277 9.41904C33.4999 10.0878 33.2833 10.735 32.9031 11.2859C32.6403 11.6713 32.4991 12.1266 32.4977 12.5931V14.3703C32.1963 14.1686 31.8561 14.0321 31.499 13.9693L31.6165 11.5664C31.6104 11.0141 31.3938 10.485 31.0108 10.087C30.6279 9.68906 30.1074 9.45226 29.5558 9.42498H27.4614C26.7603 9.42368 26.0746 9.21901 25.4875 8.83578C24.9004 8.45255 24.4371 7.90722 24.1538 7.26592C24.0801 7.08181 23.9531 6.92396 23.7889 6.81271C23.6248 6.70146 23.4311 6.64189 23.2328 6.6417H21.3294C18.5681 6.6417 16.3327 8.90357 16.3327 11.6942L16.3767 13.9943C15.9931 14.043 15.6255 14.1781 15.3016 14.3894V12.5931C15.3001 12.1266 15.1589 11.6714 14.8962 11.2859C14.5339 10.7523 14.3227 10.1307 14.2849 9.48685C14.2472 8.84301 14.3843 8.20094 14.6818 7.6287C15.0931 6.84099 15.7881 6.23886 16.6264 5.94404C17.4851 5.64193 18.2154 5.05662 18.6973 4.28435C19.3142 3.29588 20.3923 3.20923 21.6378 3.20923C22.1225 3.20923 22.5822 3.31204 23.0096 3.48829C23.5824 3.73798 24.2243 3.73798 24.7941 3.48829C25.2157 3.31204 25.6754 3.20923 26.1601 3.20923C27.4203 3.20923 28.5321 3.32085 29.1416 4.33135C29.6028 5.09363 30.324 5.64735 31.1656 5.93523Z" fill="url(#paint50_radial_7054_16751)"/>
<path d="M31.1656 5.93523C31.9352 6.1996 32.6255 6.73717 33.0603 7.50679C33.3934 8.08731 33.5555 8.75028 33.5277 9.41904C33.4999 10.0878 33.2833 10.735 32.9031 11.2859C32.6403 11.6713 32.4991 12.1266 32.4977 12.5931V14.3703C32.1963 14.1686 31.8561 14.0321 31.499 13.9693L31.6165 11.5664C31.6104 11.0141 31.3938 10.485 31.0108 10.087C30.6279 9.68906 30.1074 9.45226 29.5558 9.42498H27.4614C26.7603 9.42368 26.0746 9.21901 25.4875 8.83578C24.9004 8.45255 24.4371 7.90722 24.1538 7.26592C24.0801 7.08181 23.9531 6.92396 23.7889 6.81271C23.6248 6.70146 23.4311 6.64189 23.2328 6.6417H21.3294C18.5681 6.6417 16.3327 8.90357 16.3327 11.6942L16.3767 13.9943C15.9931 14.043 15.6255 14.1781 15.3016 14.3894V12.5931C15.3001 12.1266 15.1589 11.6714 14.8962 11.2859C14.5339 10.7523 14.3227 10.1307 14.2849 9.48685C14.2472 8.84301 14.3843 8.20094 14.6818 7.6287C15.0931 6.84099 15.7881 6.23886 16.6264 5.94404C17.4851 5.64193 18.2154 5.05662 18.6973 4.28435C19.3142 3.29588 20.3923 3.20923 21.6378 3.20923C22.1225 3.20923 22.5822 3.31204 23.0096 3.48829C23.5824 3.73798 24.2243 3.73798 24.7941 3.48829C25.2157 3.31204 25.6754 3.20923 26.1601 3.20923C27.4203 3.20923 28.5321 3.32085 29.1416 4.33135C29.6028 5.09363 30.324 5.64735 31.1656 5.93523Z" fill="url(#paint51_radial_7054_16751)"/>
</g>
<g filter="url(#filter11_i_7054_16751)">
<path d="M29.4881 11.4137C29.1943 11.1361 28.8434 10.926 28.46 10.7983C28.0047 10.6558 27.4348 10.6176 26.6461 10.7131C26.5921 10.7196 26.5399 10.7368 26.4925 10.7635C26.4451 10.7902 26.4035 10.826 26.3699 10.8688C26.3363 10.9117 26.3116 10.9607 26.297 11.0131C26.2823 11.0655 26.2782 11.1203 26.2848 11.1743C26.2913 11.2283 26.3084 11.2805 26.3352 11.3278C26.3619 11.3752 26.3977 11.4169 26.4405 11.4504C26.4833 11.484 26.5324 11.5088 26.5848 11.5234C26.6372 11.538 26.6919 11.5421 26.7459 11.5356C27.4656 11.4474 27.9063 11.4944 28.2103 11.5899C28.507 11.6839 28.7067 11.8352 28.9417 12.0394C29.0253 12.1068 29.1318 12.1392 29.2388 12.1298C29.3458 12.1205 29.445 12.0701 29.5157 11.9892C29.5863 11.9083 29.6229 11.8031 29.6178 11.6959C29.6126 11.5886 29.5662 11.4874 29.4881 11.4137Z" fill="#202020"/>
</g>
<g filter="url(#filter12_i_7054_16751)">
<path d="M18.803 11.2506C19.5872 10.7915 20.5006 10.6026 21.4027 10.7131C21.4569 10.7193 21.5093 10.7362 21.557 10.7627C21.6046 10.7893 21.6466 10.825 21.6804 10.8678C21.7142 10.9106 21.7392 10.9596 21.754 11.0122C21.7688 11.0647 21.7731 11.1196 21.7666 11.1738C21.7602 11.2279 21.743 11.2803 21.7163 11.3278C21.6895 11.3753 21.6536 11.4171 21.6106 11.4507C21.5677 11.4844 21.5185 11.5092 21.4659 11.5237C21.4133 11.5383 21.3584 11.5423 21.3043 11.5356C20.5845 11.447 19.8556 11.5966 19.2289 11.9615C19.1822 11.9901 19.1366 12.0204 19.0923 12.0526L19.0879 12.0555C19.0009 12.1229 18.8906 12.1529 18.7814 12.139C18.6722 12.1251 18.5729 12.0684 18.5056 11.9813C18.4382 11.8943 18.4081 11.784 18.422 11.6748C18.4359 11.5656 18.4927 11.4664 18.5797 11.399L18.803 11.2506Z" fill="#202020"/>
</g>
<g filter="url(#filter13_if_7054_16751)">
<path d="M24.2521 7.47155C24.2173 7.40451 24.1845 7.33642 24.1537 7.26739C24.0803 7.08301 23.9534 6.92485 23.7892 6.81332C23.6251 6.7018 23.4313 6.64202 23.2328 6.6417H21.3293C18.5681 6.6417 16.3326 8.90358 16.3326 11.6942V12.1055C15.8245 11.7192 15.1841 10.904 15.1841 9.58214C15.1841 7.97974 16.3532 7.16899 17.0993 6.65199C17.3094 6.50658 17.4871 6.38467 17.5943 6.27305L17.7426 6.11736C18.2655 5.56217 19.1967 4.57517 20.8241 4.14336C21.5676 3.95488 22.334 3.87182 23.1006 3.89661C23.7939 3.9157 24.2845 4.51349 24.2845 5.20967V7.45245L24.2521 7.47155Z" fill="#23181C"/>
<path d="M24.2521 7.47155C24.2173 7.40451 24.1845 7.33642 24.1537 7.26739C24.0803 7.08301 23.9534 6.92485 23.7892 6.81332C23.6251 6.7018 23.4313 6.64202 23.2328 6.6417H21.3293C18.5681 6.6417 16.3326 8.90358 16.3326 11.6942V12.1055C15.8245 11.7192 15.1841 10.904 15.1841 9.58214C15.1841 7.97974 16.3532 7.16899 17.0993 6.65199C17.3094 6.50658 17.4871 6.38467 17.5943 6.27305L17.7426 6.11736C18.2655 5.56217 19.1967 4.57517 20.8241 4.14336C21.5676 3.95488 22.334 3.87182 23.1006 3.89661C23.7939 3.9157 24.2845 4.51349 24.2845 5.20967V7.45245L24.2521 7.47155Z" fill="url(#paint52_radial_7054_16751)"/>
<path d="M24.2521 7.47155C24.2173 7.40451 24.1845 7.33642 24.1537 7.26739C24.0803 7.08301 23.9534 6.92485 23.7892 6.81332C23.6251 6.7018 23.4313 6.64202 23.2328 6.6417H21.3293C18.5681 6.6417 16.3326 8.90358 16.3326 11.6942V12.1055C15.8245 11.7192 15.1841 10.904 15.1841 9.58214C15.1841 7.97974 16.3532 7.16899 17.0993 6.65199C17.3094 6.50658 17.4871 6.38467 17.5943 6.27305L17.7426 6.11736C18.2655 5.56217 19.1967 4.57517 20.8241 4.14336C21.5676 3.95488 22.334 3.87182 23.1006 3.89661C23.7939 3.9157 24.2845 4.51349 24.2845 5.20967V7.45245L24.2521 7.47155Z" fill="url(#paint53_radial_7054_16751)"/>
</g>
<g filter="url(#filter14_f_7054_16751)">
<path d="M31.7001 12.3566L31.656 11.4137C31.6413 10.271 30.6969 9.32805 29.5557 9.28105H27.4613C26.1321 9.28105 24.9203 8.55402 24.2844 7.39664C24.2844 7.39664 24.1889 7.17633 24.0934 6.8018C23.7277 5.37418 25.0878 4.28583 26.536 4.56196C28.0018 4.84396 29.682 5.33599 30.9217 6.1438C33.5302 7.84608 33.0734 10.9128 31.7001 12.3566Z" fill="#1F151B"/>
<path d="M31.7001 12.3566L31.656 11.4137C31.6413 10.271 30.6969 9.32805 29.5557 9.28105H27.4613C26.1321 9.28105 24.9203 8.55402 24.2844 7.39664C24.2844 7.39664 24.1889 7.17633 24.0934 6.8018C23.7277 5.37418 25.0878 4.28583 26.536 4.56196C28.0018 4.84396 29.682 5.33599 30.9217 6.1438C33.5302 7.84608 33.0734 10.9128 31.7001 12.3566Z" fill="url(#paint54_radial_7054_16751)"/>
<path d="M31.7001 12.3566L31.656 11.4137C31.6413 10.271 30.6969 9.32805 29.5557 9.28105H27.4613C26.1321 9.28105 24.9203 8.55402 24.2844 7.39664C24.2844 7.39664 24.1889 7.17633 24.0934 6.8018C23.7277 5.37418 25.0878 4.28583 26.536 4.56196C28.0018 4.84396 29.682 5.33599 30.9217 6.1438C33.5302 7.84608 33.0734 10.9128 31.7001 12.3566Z" fill="url(#paint55_radial_7054_16751)"/>
<path d="M31.7001 12.3566L31.656 11.4137C31.6413 10.271 30.6969 9.32805 29.5557 9.28105H27.4613C26.1321 9.28105 24.9203 8.55402 24.2844 7.39664C24.2844 7.39664 24.1889 7.17633 24.0934 6.8018C23.7277 5.37418 25.0878 4.28583 26.536 4.56196C28.0018 4.84396 29.682 5.33599 30.9217 6.1438C33.5302 7.84608 33.0734 10.9128 31.7001 12.3566Z" fill="url(#paint56_radial_7054_16751)"/>
</g>
<path d="M27.4803 13.3803C28.457 13.3803 29.2825 14.053 29.5072 14.9636C29.5221 15.0243 29.5231 15.0877 29.5099 15.1488C29.4967 15.2099 29.4697 15.2672 29.4311 15.3163C29.3924 15.3655 29.3431 15.4051 29.2868 15.4323C29.2305 15.4595 29.1687 15.4735 29.1062 15.4733H25.7692C25.7186 15.4735 25.6686 15.4625 25.6227 15.4412C25.5768 15.4198 25.5362 15.3886 25.5038 15.3497C25.4714 15.3109 25.448 15.2653 25.4352 15.2163C25.4224 15.1674 25.4206 15.1162 25.4299 15.0665C25.5235 14.5914 25.7791 14.1636 26.153 13.8561C26.527 13.5485 26.9961 13.3804 27.4803 13.3803Z" fill="white"/>
<path d="M27.1704 13.7857C27.3755 13.7859 27.5778 13.8333 27.7616 13.9244C27.9454 14.0155 28.1057 14.1478 28.23 14.3109C28.3544 14.474 28.4394 14.6636 28.4785 14.865C28.5176 15.0664 28.5098 15.274 28.4556 15.4718H25.8794C25.8262 15.2735 25.8194 15.0656 25.8594 14.8642C25.8994 14.6628 25.9852 14.4733 26.1101 14.3103C26.2351 14.1473 26.3958 14.0153 26.5799 13.9243C26.764 13.8333 26.9651 13.7859 27.1704 13.7857Z" fill="url(#paint57_radial_7054_16751)"/>
<path d="M26.4068 15.1208C26.4068 14.6963 26.7461 14.357 27.1706 14.357C27.3023 14.3558 27.4321 14.3887 27.5473 14.4527C27.6625 14.5167 27.7591 14.6095 27.8277 14.722C27.8962 14.8345 27.9344 14.9629 27.9384 15.0946C27.9424 15.2263 27.9121 15.3568 27.8506 15.4733H26.4979C26.4365 15.3661 26.4051 15.2443 26.4068 15.1208Z" fill="black"/>
<g filter="url(#filter15_f_7054_16751)">
<path d="M27.0736 14.0692C27.1676 14.1955 26.9693 14.3512 26.7431 14.5201C26.5169 14.689 26.3495 14.808 26.254 14.6816C26.16 14.5539 26.2658 14.3145 26.492 14.1441C26.7181 13.9752 26.9766 13.9414 27.0736 14.0692Z" fill="#C7A7A3"/>
<path d="M27.0736 14.0692C27.1676 14.1955 26.9693 14.3512 26.7431 14.5201C26.5169 14.689 26.3495 14.808 26.254 14.6816C26.16 14.5539 26.2658 14.3145 26.492 14.1441C26.7181 13.9752 26.9766 13.9414 27.0736 14.0692Z" fill="url(#paint58_radial_7054_16751)"/>
</g>
<g filter="url(#filter16_f_7054_16751)">
<path d="M28.3586 14.9445C28.3191 14.6838 28.1983 14.4423 28.0135 14.2542L27.6257 14.6802L27.8005 15.0194L28.3586 14.9445Z" fill="url(#paint59_linear_7054_16751)"/>
</g>
<path d="M20.3276 13.3803C19.3524 13.3803 18.5269 14.053 18.3022 14.9636C18.2873 15.0243 18.2863 15.0877 18.2995 15.1488C18.3127 15.2099 18.3397 15.2672 18.3783 15.3163C18.417 15.3655 18.4663 15.4051 18.5226 15.4323C18.5789 15.4595 18.6407 15.4735 18.7032 15.4733H22.0402C22.2517 15.4733 22.4221 15.2794 22.3795 15.0665C22.2849 14.5919 22.029 14.1647 21.6553 13.8574C21.2815 13.5501 20.8115 13.3815 20.3276 13.3803Z" fill="white"/>
<path d="M20.6375 13.7857C20.4324 13.7859 20.2301 13.8333 20.0463 13.9244C19.8625 14.0155 19.7022 14.1478 19.5779 14.3109C19.4536 14.474 19.3685 14.6636 19.3294 14.865C19.2903 15.0664 19.2981 15.274 19.3524 15.4718H21.93C21.9614 15.3569 21.9777 15.2384 21.9785 15.1193C21.9758 14.7652 21.8334 14.4264 21.5823 14.1767C21.3312 13.927 20.9917 13.7865 20.6375 13.7857Z" fill="url(#paint60_radial_7054_16751)"/>
<path d="M21.4013 15.1208C21.4017 15.0204 21.3822 14.9209 21.344 14.8281C21.3057 14.7352 21.2495 14.6509 21.1785 14.5799C21.1075 14.5089 21.0231 14.4526 20.9303 14.4144C20.8375 14.3761 20.738 14.3567 20.6376 14.357C20.5059 14.356 20.3763 14.3892 20.2613 14.4533C20.1463 14.5173 20.0499 14.6102 19.9815 14.7226C19.9132 14.8351 19.8751 14.9634 19.8712 15.095C19.8672 15.2266 19.8975 15.3569 19.959 15.4733H21.3102C21.3688 15.365 21.4001 15.244 21.4013 15.1208Z" fill="black"/>
<g filter="url(#filter17_f_7054_16751)">
<path d="M21.858 14.9651C21.858 14.5333 21.507 14.2454 21.413 14.1573L20.9812 14.5759L21.2456 15.1164L21.858 14.9651Z" fill="url(#paint61_linear_7054_16751)"/>
</g>
<g filter="url(#filter18_f_7054_16751)">
<path d="M20.3732 14.6179C20.6578 14.4671 20.8266 14.2281 20.7503 14.0841C20.6739 13.94 20.3814 13.9454 20.0968 14.0962C19.8122 14.2469 19.6434 14.4859 19.7197 14.63C19.7961 14.7741 20.0886 14.7687 20.3732 14.6179Z" fill="#C7A7A3" fill-opacity="0.9"/>
<path d="M20.3732 14.6179C20.6578 14.4671 20.8266 14.2281 20.7503 14.0841C20.6739 13.94 20.3814 13.9454 20.0968 14.0962C19.8122 14.2469 19.6434 14.4859 19.7197 14.63C19.7961 14.7741 20.0886 14.7687 20.3732 14.6179Z" fill="url(#paint62_radial_7054_16751)"/>
</g>
<path d="M31.2668 17.8747C31.3653 16.284 31.4607 14.6948 31.543 13.1027C32.1236 13.2055 32.6463 13.5178 33.0119 13.9803C33.3775 14.4429 33.5607 15.0235 33.5267 15.6122C33.4926 16.2008 33.2437 16.7565 32.8272 17.1738C32.4106 17.5911 31.8554 17.8396 31.2668 17.8747Z" fill="url(#paint63_linear_7054_16751)"/>
<path d="M31.2668 17.8747C31.3653 16.284 31.4607 14.6948 31.543 13.1027C32.1236 13.2055 32.6463 13.5178 33.0119 13.9803C33.3775 14.4429 33.5607 15.0235 33.5267 15.6122C33.4926 16.2008 33.2437 16.7565 32.8272 17.1738C32.4106 17.5911 31.8554 17.8396 31.2668 17.8747Z" fill="url(#paint64_radial_7054_16751)"/>
<path d="M31.2668 17.8747C31.3653 16.284 31.4607 14.6948 31.543 13.1027C32.1236 13.2055 32.6463 13.5178 33.0119 13.9803C33.3775 14.4429 33.5607 15.0235 33.5267 15.6122C33.4926 16.2008 33.2437 16.7565 32.8272 17.1738C32.4106 17.5911 31.8554 17.8396 31.2668 17.8747Z" fill="url(#paint65_radial_7054_16751)"/>
<path d="M31.2668 17.8747C31.3653 16.284 31.4607 14.6948 31.543 13.1027C32.1236 13.2055 32.6463 13.5178 33.0119 13.9803C33.3775 14.4429 33.5607 15.0235 33.5267 15.6122C33.4926 16.2008 33.2437 16.7565 32.8272 17.1738C32.4106 17.5911 31.8554 17.8396 31.2668 17.8747Z" fill="url(#paint66_radial_7054_16751)"/>
<path d="M16.3605 13.0895C15.7853 13.1709 15.2585 13.4565 14.8764 13.8942C14.4943 14.3318 14.2824 14.8923 14.2793 15.4733C14.2793 16.7584 15.2854 17.8086 16.5529 17.8762C16.456 16.2821 16.3919 14.6862 16.3605 13.0895Z" fill="url(#paint67_linear_7054_16751)"/>
<path d="M16.3605 13.0895C15.7853 13.1709 15.2585 13.4565 14.8764 13.8942C14.4943 14.3318 14.2824 14.8923 14.2793 15.4733C14.2793 16.7584 15.2854 17.8086 16.5529 17.8762C16.456 16.2821 16.3919 14.6862 16.3605 13.0895Z" fill="url(#paint68_radial_7054_16751)"/>
<g filter="url(#filter19_f_7054_16751)">
<path d="M16.2987 14.078C15.9721 14.1522 15.682 14.3387 15.479 14.605C15.2759 14.8713 15.1728 15.2004 15.1877 15.535C15.2026 15.8695 15.3344 16.1882 15.5603 16.4354C15.7862 16.6827 16.0917 16.8427 16.4235 16.8877C16.3707 15.9517 16.3291 15.015 16.2987 14.078Z" fill="url(#paint69_radial_7054_16751)"/>
</g>
<g filter="url(#filter20_f_7054_16751)">
<path d="M31.3916 16.9127C31.4504 15.9638 31.5062 15.015 31.5576 14.0662C31.9164 14.1123 32.2445 14.2929 32.4754 14.5714C32.7064 14.8499 32.8231 15.2056 32.8021 15.5668C32.781 15.9281 32.6237 16.2678 32.3619 16.5176C32.1002 16.7674 31.7534 16.9086 31.3916 16.9127Z" fill="url(#paint70_linear_7054_16751)"/>
</g>
<g filter="url(#filter21_f_7054_16751)">
<path d="M18.8589 11.6692C19.2437 11.3931 20.2013 10.9084 21.3337 11.0994" stroke="#353535" stroke-width="0.15" stroke-linecap="round"/>
</g>
<g filter="url(#filter22_f_7054_16751)">
<path d="M29.2312 11.6002C28.8464 11.3241 27.8888 10.8394 26.7563 11.0303" stroke="#353535" stroke-width="0.15" stroke-linecap="round"/>
</g>
<g filter="url(#filter23_i_7054_16751)">
<path d="M14.6538 7.67863L16.431 4.78079L31.4974 4.6207L33.138 7.58757C26.2878 9.95079 17.722 8.7567 14.6538 7.67863Z" fill="url(#paint71_radial_7054_16751)"/>
<path d="M14.6538 7.67863L16.431 4.78079L31.4974 4.6207L33.138 7.58757C26.2878 9.95079 17.722 8.7567 14.6538 7.67863Z" fill="url(#paint72_radial_7054_16751)"/>
</g>
<path d="M35.5924 5.29485H12.1364C11.4902 5.29485 10.9614 4.7661 10.9614 4.11985C10.9614 3.4736 11.4902 2.94485 12.1364 2.94485H35.5777C36.2239 2.94485 36.7527 3.4736 36.7527 4.11985C36.7674 4.7661 36.2386 5.29485 35.5924 5.29485Z" fill="url(#paint73_linear_7054_16751)"/>
<path d="M35.5924 5.29485H12.1364C11.4902 5.29485 10.9614 4.7661 10.9614 4.11985C10.9614 3.4736 11.4902 2.94485 12.1364 2.94485H35.5777C36.2239 2.94485 36.7527 3.4736 36.7527 4.11985C36.7674 4.7661 36.2386 5.29485 35.5924 5.29485Z" fill="url(#paint74_radial_7054_16751)"/>
<path d="M35.5924 5.29485H12.1364C11.4902 5.29485 10.9614 4.7661 10.9614 4.11985C10.9614 3.4736 11.4902 2.94485 12.1364 2.94485H35.5777C36.2239 2.94485 36.7527 3.4736 36.7527 4.11985C36.7674 4.7661 36.2386 5.29485 35.5924 5.29485Z" fill="url(#paint75_radial_7054_16751)"/>
<defs>
<filter id="filter0_f_7054_16751" x="20.2799" y="14.9467" width="7.25117" height="13.4849" filterUnits="userSpaceOnUse" color-interpolation-filters="sRGB">
<feFlood flood-opacity="0" result="BackgroundImageFix"/>
<feBlend mode="normal" in="SourceGraphic" in2="BackgroundImageFix" result="shape"/>
<feGaussianBlur stdDeviation="0.2" result="effect1_foregroundBlur_7054_16751"/>
</filter>
<filter id="filter1_f_7054_16751" x="35.9915" y="5.1976" width="0.649902" height="11.9078" filterUnits="userSpaceOnUse" color-interpolation-filters="sRGB">
<feFlood flood-opacity="0" result="BackgroundImageFix"/>
<feBlend mode="normal" in="SourceGraphic" in2="BackgroundImageFix" result="shape"/>
<feGaussianBlur stdDeviation="0.125" result="effect1_foregroundBlur_7054_16751"/>
</filter>
<filter id="filter2_f_7054_16751" x="17.4135" y="34.2643" width="13.0253" height="9.74847" filterUnits="userSpaceOnUse" color-interpolation-filters="sRGB">
<feFlood flood-opacity="0" result="BackgroundImageFix"/>
<feBlend mode="normal" in="SourceGraphic" in2="BackgroundImageFix" result="shape"/>
<feGaussianBlur stdDeviation="0.075" result="effect1_foregroundBlur_7054_16751"/>
</filter>
<filter id="filter3_f_7054_16751" x="25.395" y="5.07526" width="7.61499" height="4.25256" filterUnits="userSpaceOnUse" color-interpolation-filters="sRGB">
<feFlood flood-opacity="0" result="BackgroundImageFix"/>
<feBlend mode="normal" in="SourceGraphic" in2="BackgroundImageFix" result="shape"/>
<feGaussianBlur stdDeviation="0.5" result="effect1_foregroundBlur_7054_16751"/>
</filter>
<filter id="filter4_f_7054_16751" x="25.395" y="4.98419" width="7.61499" height="4.2511" filterUnits="userSpaceOnUse" color-interpolation-filters="sRGB">
<feFlood flood-opacity="0" result="BackgroundImageFix"/>
<feBlend mode="normal" in="SourceGraphic" in2="BackgroundImageFix" result="shape"/>
<feGaussianBlur stdDeviation="0.5" result="effect1_foregroundBlur_7054_16751"/>
</filter>
<filter id="filter5_f_7054_16751" x="25.5862" y="5.00574" width="7.81152" height="4.32355" filterUnits="userSpaceOnUse" color-interpolation-filters="sRGB">
<feFlood flood-opacity="0" result="BackgroundImageFix"/>
<feBlend mode="normal" in="SourceGraphic" in2="BackgroundImageFix" result="shape"/>
<feGaussianBlur stdDeviation="0.5" result="effect1_foregroundBlur_7054_16751"/>
</filter>
<filter id="filter6_ii_7054_16751" x="16.3325" y="6.64169" width="16.2854" height="18.6578" filterUnits="userSpaceOnUse" color-interpolation-filters="sRGB">
<feFlood flood-opacity="0" result="BackgroundImageFix"/>
<feBlend mode="normal" in="SourceGraphic" in2="BackgroundImageFix" result="shape"/>
<feColorMatrix in="SourceAlpha" type="matrix" values="0 0 0 0 0 0 0 0 0 0 0 0 0 0 0 0 0 0 127 0" result="hardAlpha"/>
<feOffset dx="1"/>
<feGaussianBlur stdDeviation="0.7"/>
<feComposite in2="hardAlpha" operator="arithmetic" k2="-1" k3="1"/>
<feColorMatrix type="matrix" values="0 0 0 0 0.913725 0 0 0 0 0.686275 0 0 0 0 0.592157 0 0 0 1 0"/>
<feBlend mode="normal" in2="shape" result="effect1_innerShadow_7054_16751"/>
<feColorMatrix in="SourceAlpha" type="matrix" values="0 0 0 0 0 0 0 0 0 0 0 0 0 0 0 0 0 0 127 0" result="hardAlpha"/>
<feOffset dy="0.2"/>
<feGaussianBlur stdDeviation="0.375"/>
<feComposite in2="hardAlpha" operator="arithmetic" k2="-1" k3="1"/>
<feColorMatrix type="matrix" values="0 0 0 0 0.780392 0 0 0 0 0.568627 0 0 0 0 0.486275 0 0 0 1 0"/>
<feBlend mode="normal" in2="effect1_innerShadow_7054_16751" result="effect2_innerShadow_7054_16751"/>
</filter>
<filter id="filter7_f_7054_16751" x="21.386" y="13.6299" width="4.61279" height="6.33759" filterUnits="userSpaceOnUse" color-interpolation-filters="sRGB">
<feFlood flood-opacity="0" result="BackgroundImageFix"/>
<feBlend mode="normal" in="SourceGraphic" in2="BackgroundImageFix" result="shape"/>
<feGaussianBlur stdDeviation="0.5" result="effect1_foregroundBlur_7054_16751"/>
</filter>
<filter id="filter8_f_7054_16751" x="22.3012" y="14.1449" width="3.20713" height="4.73759" filterUnits="userSpaceOnUse" color-interpolation-filters="sRGB">
<feFlood flood-opacity="0" result="BackgroundImageFix"/>
<feBlend mode="normal" in="SourceGraphic" in2="BackgroundImageFix" result="shape"/>
<feGaussianBlur stdDeviation="0.1" result="effect1_foregroundBlur_7054_16751"/>
</filter>
<filter id="filter9_f_7054_16751" x="21.213" y="19.3991" width="5.38237" height="2.17417" filterUnits="userSpaceOnUse" color-interpolation-filters="sRGB">
<feFlood flood-opacity="0" result="BackgroundImageFix"/>
<feBlend mode="normal" in="SourceGraphic" in2="BackgroundImageFix" result="shape"/>
<feGaussianBlur stdDeviation="0.05" result="effect1_foregroundBlur_7054_16751"/>
</filter>
<filter id="filter10_ii_7054_16751" x="14.2788" y="2.70923" width="19.252" height="11.6801" filterUnits="userSpaceOnUse" color-interpolation-filters="sRGB">
<feFlood flood-opacity="0" result="BackgroundImageFix"/>
<feBlend mode="normal" in="SourceGraphic" in2="BackgroundImageFix" result="shape"/>
<feColorMatrix in="SourceAlpha" type="matrix" values="0 0 0 0 0 0 0 0 0 0 0 0 0 0 0 0 0 0 127 0" result="hardAlpha"/>
<feOffset dy="-0.5"/>
<feGaussianBlur stdDeviation="0.625"/>
<feComposite in2="hardAlpha" operator="arithmetic" k2="-1" k3="1"/>
<feColorMatrix type="matrix" values="0 0 0 0 0.137255 0 0 0 0 0.0901961 0 0 0 0 0.145098 0 0 0 1 0"/>
<feBlend mode="normal" in2="shape" result="effect1_innerShadow_7054_16751"/>
<feColorMatrix in="SourceAlpha" type="matrix" values="0 0 0 0 0 0 0 0 0 0 0 0 0 0 0 0 0 0 127 0" result="hardAlpha"/>
<feOffset dy="-0.2"/>
<feGaussianBlur stdDeviation="0.2"/>
<feComposite in2="hardAlpha" operator="arithmetic" k2="-1" k3="1"/>
<feColorMatrix type="matrix" values="0 0 0 0 0.0784314 0 0 0 0 0.0352941 0 0 0 0 0.0470588 0 0 0 1 0"/>
<feBlend mode="normal" in2="effect1_innerShadow_7054_16751" result="effect2_innerShadow_7054_16751"/>
</filter>
<filter id="filter11_i_7054_16751" x="26.2817" y="10.4605" width="3.43643" height="1.6709" filterUnits="userSpaceOnUse" color-interpolation-filters="sRGB">
<feFlood flood-opacity="0" result="BackgroundImageFix"/>
<feBlend mode="normal" in="SourceGraphic" in2="BackgroundImageFix" result="shape"/>
<feColorMatrix in="SourceAlpha" type="matrix" values="0 0 0 0 0 0 0 0 0 0 0 0 0 0 0 0 0 0 127 0" result="hardAlpha"/>
<feOffset dx="0.1" dy="-0.2"/>
<feGaussianBlur stdDeviation="0.125"/>
<feComposite in2="hardAlpha" operator="arithmetic" k2="-1" k3="1"/>
<feColorMatrix type="matrix" values="0 0 0 0 0.0588235 0 0 0 0 0.054902 0 0 0 0 0.0588235 0 0 0 1 0"/>
<feBlend mode="normal" in2="shape" result="effect1_innerShadow_7054_16751"/>
</filter>
<filter id="filter12_i_7054_16751" x="18.4187" y="10.4823" width="3.45083" height="1.66004" filterUnits="userSpaceOnUse" color-interpolation-filters="sRGB">
<feFlood flood-opacity="0" result="BackgroundImageFix"/>
<feBlend mode="normal" in="SourceGraphic" in2="BackgroundImageFix" result="shape"/>
<feColorMatrix in="SourceAlpha" type="matrix" values="0 0 0 0 0 0 0 0 0 0 0 0 0 0 0 0 0 0 127 0" result="hardAlpha"/>
<feOffset dx="0.1" dy="-0.2"/>
<feGaussianBlur stdDeviation="0.125"/>
<feComposite in2="hardAlpha" operator="arithmetic" k2="-1" k3="1"/>
<feColorMatrix type="matrix" values="0 0 0 0 0.0588235 0 0 0 0 0.054902 0 0 0 0 0.0588235 0 0 0 1 0"/>
<feBlend mode="normal" in2="shape" result="effect1_innerShadow_7054_16751"/>
</filter>
<filter id="filter13_if_7054_16751" x="14.6841" y="3.39233" width="10.1003" height="9.21312" filterUnits="userSpaceOnUse" color-interpolation-filters="sRGB">
<feFlood flood-opacity="0" result="BackgroundImageFix"/>
<feBlend mode="normal" in="SourceGraphic" in2="BackgroundImageFix" result="shape"/>
<feColorMatrix in="SourceAlpha" type="matrix" values="0 0 0 0 0 0 0 0 0 0 0 0 0 0 0 0 0 0 127 0" result="hardAlpha"/>
<feOffset dx="0.4" dy="0.2"/>
<feGaussianBlur stdDeviation="0.2"/>
<feComposite in2="hardAlpha" operator="arithmetic" k2="-1" k3="1"/>
<feColorMatrix type="matrix" values="0 0 0 0 0.286275 0 0 0 0 0.243137 0 0 0 0 0.227451 0 0 0 1 0"/>
<feBlend mode="normal" in2="shape" result="effect1_innerShadow_7054_16751"/>
<feGaussianBlur stdDeviation="0.25" result="effect2_foregroundBlur_7054_16751"/>
</filter>
<filter id="filter14_f_7054_16751" x="23.5332" y="4.01892" width="9.77319" height="8.83769" filterUnits="userSpaceOnUse" color-interpolation-filters="sRGB">
<feFlood flood-opacity="0" result="BackgroundImageFix"/>
<feBlend mode="normal" in="SourceGraphic" in2="BackgroundImageFix" result="shape"/>
<feGaussianBlur stdDeviation="0.25" result="effect1_foregroundBlur_7054_16751"/>
</filter>
<filter id="filter15_f_7054_16751" x="26.1197" y="13.8917" width="1.07769" height="0.942752" filterUnits="userSpaceOnUse" color-interpolation-filters="sRGB">
<feFlood flood-opacity="0" result="BackgroundImageFix"/>
<feBlend mode="normal" in="SourceGraphic" in2="BackgroundImageFix" result="shape"/>
<feGaussianBlur stdDeviation="0.05" result="effect1_foregroundBlur_7054_16751"/>
</filter>
<filter id="filter16_f_7054_16751" x="27.4257" y="14.0542" width="1.13291" height="1.16521" filterUnits="userSpaceOnUse" color-interpolation-filters="sRGB">
<feFlood flood-opacity="0" result="BackgroundImageFix"/>
<feBlend mode="normal" in="SourceGraphic" in2="BackgroundImageFix" result="shape"/>
<feGaussianBlur stdDeviation="0.1" result="effect1_foregroundBlur_7054_16751"/>
</filter>
<filter id="filter17_f_7054_16751" x="20.7812" y="13.9573" width="1.27695" height="1.35909" filterUnits="userSpaceOnUse" color-interpolation-filters="sRGB">
<feFlood flood-opacity="0" result="BackgroundImageFix"/>
<feBlend mode="normal" in="SourceGraphic" in2="BackgroundImageFix" result="shape"/>
<feGaussianBlur stdDeviation="0.1" result="effect1_foregroundBlur_7054_16751"/>
</filter>
<filter id="filter18_f_7054_16751" x="19.6014" y="13.8795" width="1.26714" height="0.955157" filterUnits="userSpaceOnUse" color-interpolation-filters="sRGB">
<feFlood flood-opacity="0" result="BackgroundImageFix"/>
<feBlend mode="normal" in="SourceGraphic" in2="BackgroundImageFix" result="shape"/>
<feGaussianBlur stdDeviation="0.05" result="effect1_foregroundBlur_7054_16751"/>
</filter>
<filter id="filter19_f_7054_16751" x="14.9363" y="13.828" width="1.7373" height="3.30972" filterUnits="userSpaceOnUse" color-interpolation-filters="sRGB">
<feFlood flood-opacity="0" result="BackgroundImageFix"/>
<feBlend mode="normal" in="SourceGraphic" in2="BackgroundImageFix" result="shape"/>
<feGaussianBlur stdDeviation="0.125" result="effect1_foregroundBlur_7054_16751"/>
</filter>
<filter id="filter20_f_7054_16751" x="30.8916" y="13.5662" width="2.41284" height="3.84644" filterUnits="userSpaceOnUse" color-interpolation-filters="sRGB">
<feFlood flood-opacity="0" result="BackgroundImageFix"/>
<feBlend mode="normal" in="SourceGraphic" in2="BackgroundImageFix" result="shape"/>
<feGaussianBlur stdDeviation="0.25" result="effect1_foregroundBlur_7054_16751"/>
</filter>
<filter id="filter21_f_7054_16751" x="18.5339" y="10.7309" width="3.12476" height="1.26331" filterUnits="userSpaceOnUse" color-interpolation-filters="sRGB">
<feFlood flood-opacity="0" result="BackgroundImageFix"/>
<feBlend mode="normal" in="SourceGraphic" in2="BackgroundImageFix" result="shape"/>
<feGaussianBlur stdDeviation="0.125" result="effect1_foregroundBlur_7054_16751"/>
</filter>
<filter id="filter22_f_7054_16751" x="26.4314" y="10.6619" width="3.12476" height="1.26331" filterUnits="userSpaceOnUse" color-interpolation-filters="sRGB">
<feFlood flood-opacity="0" result="BackgroundImageFix"/>
<feBlend mode="normal" in="SourceGraphic" in2="BackgroundImageFix" result="shape"/>
<feGaussianBlur stdDeviation="0.125" result="effect1_foregroundBlur_7054_16751"/>
</filter>
<filter id="filter23_i_7054_16751" x="14.6538" y="4.5707" width="18.4841" height="4.38435" filterUnits="userSpaceOnUse" color-interpolation-filters="sRGB">
<feFlood flood-opacity="0" result="BackgroundImageFix"/>
<feBlend mode="normal" in="SourceGraphic" in2="BackgroundImageFix" result="shape"/>
<feColorMatrix in="SourceAlpha" type="matrix" values="0 0 0 0 0 0 0 0 0 0 0 0 0 0 0 0 0 0 127 0" result="hardAlpha"/>
<feOffset dy="-0.05"/>
<feGaussianBlur stdDeviation="0.025"/>
<feComposite in2="hardAlpha" operator="arithmetic" k2="-1" k3="1"/>
<feColorMatrix type="matrix" values="0 0 0 0 0.360784 0 0 0 0 0.337255 0 0 0 0 0.372549 0 0 0 1 0"/>
<feBlend mode="normal" in2="shape" result="effect1_innerShadow_7054_16751"/>
</filter>
<radialGradient id="paint0_radial_7054_16751" cx="0" cy="0" r="1" gradientUnits="userSpaceOnUse" gradientTransform="translate(34.6508 33.9487) rotate(90) scale(15.9727 5.37012)">
<stop stop-color="#70647F"/>
<stop offset="1" stop-color="#70647F" stop-opacity="0"/>
</radialGradient>
<radialGradient id="paint1_radial_7054_16751" cx="0" cy="0" r="1" gradientUnits="userSpaceOnUse" gradientTransform="translate(13.2159 31.5164) scale(1.92773 10.373)">
<stop stop-color="#5D516A"/>
<stop offset="1" stop-color="#5D516A" stop-opacity="0"/>
</radialGradient>
<radialGradient id="paint2_radial_7054_16751" cx="0" cy="0" r="1" gradientUnits="userSpaceOnUse" gradientTransform="translate(23.9378 31.3564) rotate(-90) scale(6.93066 23.292)">
<stop offset="0.201" stop-color="#46404E"/>
<stop offset="1" stop-color="#3A3142"/>
</radialGradient>
<radialGradient id="paint3_radial_7054_16751" cx="0" cy="0" r="1" gradientUnits="userSpaceOnUse" gradientTransform="translate(23.926 24.816) rotate(90) scale(8.7207 11.0774)">
<stop offset="0.932" stop-color="#342542" stop-opacity="0"/>
<stop offset="0.995" stop-color="#342542"/>
</radialGradient>
<radialGradient id="paint4_radial_7054_16751" cx="0" cy="0" r="1" gradientUnits="userSpaceOnUse" gradientTransform="translate(23.3136 22.842) rotate(145.631) scale(10.4679 14.4319)">
<stop offset="0.928" stop-color="#6A656F" stop-opacity="0"/>
<stop offset="1" stop-color="#6A656F"/>
</radialGradient>
<radialGradient id="paint5_radial_7054_16751" cx="0" cy="0" r="1" gradientUnits="userSpaceOnUse" gradientTransform="translate(22.9464 22.4983) rotate(34.266) scale(12.024 16.5772)">
<stop offset="0.939" stop-color="#655F6B" stop-opacity="0"/>
<stop offset="0.971" stop-color="#655F6B"/>
</radialGradient>
<radialGradient id="paint6_radial_7054_16751" cx="0" cy="0" r="1" gradientUnits="userSpaceOnUse" gradientTransform="translate(23.926 34.6831) rotate(-90) scale(14.7793 15.6354)">
<stop offset="0.506" stop-color="#57525D" stop-opacity="0"/>
<stop offset="1" stop-color="#57525D"/>
</radialGradient>
<radialGradient id="paint7_radial_7054_16751" cx="0" cy="0" r="1" gradientUnits="userSpaceOnUse" gradientTransform="translate(23.926 23.5925) rotate(90) scale(5.00293 7.7238)">
<stop offset="0.422" stop-color="#170919"/>
<stop offset="1" stop-color="#361E27" stop-opacity="0"/>
</radialGradient>
<radialGradient id="paint8_radial_7054_16751" cx="0" cy="0" r="1" gradientUnits="userSpaceOnUse" gradientTransform="translate(25.8413 26.7606) rotate(-154.408) scale(4.83467 4.0706)">
<stop stop-color="#CD9E8E"/>
<stop offset="1" stop-color="#B78273"/>
</radialGradient>
<radialGradient id="paint9_radial_7054_16751" cx="0" cy="0" r="1" gradientUnits="userSpaceOnUse" gradientTransform="translate(23.9055 24.9467) rotate(90) scale(1.37695 3.02563)">
<stop stop-color="#B0797E"/>
<stop offset="1" stop-color="#B0797E" stop-opacity="0"/>
</radialGradient>
<radialGradient id="paint10_radial_7054_16751" cx="0" cy="0" r="1" gradientUnits="userSpaceOnUse" gradientTransform="translate(23.9055 21.3615) rotate(90) scale(6.66915 6.25955)">
<stop offset="0.81" stop-color="#B5836A" stop-opacity="0"/>
<stop offset="1" stop-color="#B5836A"/>
</radialGradient>
<linearGradient id="paint11_linear_7054_16751" x1="35.2207" y1="13.1336" x2="36.9627" y2="13.1336" gradientUnits="userSpaceOnUse">
<stop stop-color="#33203C"/>
<stop offset="1" stop-color="#61546D"/>
</linearGradient>
<radialGradient id="paint12_radial_7054_16751" cx="0" cy="0" r="1" gradientUnits="userSpaceOnUse" gradientTransform="translate(36.5206 17.1374) rotate(-90) scale(3.42913 0.264831)">
<stop stop-color="#70635D"/>
<stop offset="1" stop-color="#70635D" stop-opacity="0"/>
</radialGradient>
<radialGradient id="paint13_radial_7054_16751" cx="0" cy="0" r="1" gradientUnits="userSpaceOnUse" gradientTransform="translate(36.8995 17.6838) rotate(126.437) scale(2.00944 1.80092)">
<stop stop-color="#686071"/>
<stop offset="0.661" stop-color="#402A4C"/>
</radialGradient>
<radialGradient id="paint14_radial_7054_16751" cx="0" cy="0" r="1" gradientUnits="userSpaceOnUse" gradientTransform="translate(34.9343 18.258) rotate(-6.43651) scale(1.17707 1.38059)">
<stop offset="0.087" stop-color="#685352"/>
<stop offset="1" stop-color="#685352" stop-opacity="0"/>
</radialGradient>
<linearGradient id="paint15_linear_7054_16751" x1="-nan" y1="-nan" x2="-nan" y2="-nan" gradientUnits="userSpaceOnUse">
<stop stop-color="#60546C"/>
<stop offset="1" stop-color="#504B55"/>
</linearGradient>
<linearGradient id="paint16_linear_7054_16751" x1="37.8556" y1="21.7463" x2="34.4496" y2="21.7463" gradientUnits="userSpaceOnUse">
<stop stop-color="#F9B72A"/>
<stop offset="0.897" stop-color="#FAAC28"/>
</linearGradient>
<linearGradient id="paint17_linear_7054_16751" x1="34.3776" y1="21.4482" x2="35.9389" y2="21.6318" gradientUnits="userSpaceOnUse">
<stop stop-color="#BD9130"/>
<stop offset="1" stop-color="#FBB229" stop-opacity="0"/>
</linearGradient>
<radialGradient id="paint18_radial_7054_16751" cx="0" cy="0" r="1" gradientUnits="userSpaceOnUse" gradientTransform="translate(38.0191 21.5682) rotate(169.33) scale(1.63813 8.17214)">
<stop offset="0.286" stop-color="#FFD93A"/>
<stop offset="1" stop-color="#FFD93A" stop-opacity="0"/>
</radialGradient>
<radialGradient id="paint19_radial_7054_16751" cx="0" cy="0" r="1" gradientUnits="userSpaceOnUse" gradientTransform="translate(36.1651 24.816) rotate(-90) scale(1.92773 4.24532)">
<stop offset="0.422" stop-color="#9B6733"/>
<stop offset="1" stop-color="#DB9820" stop-opacity="0"/>
</radialGradient>
<radialGradient id="paint20_radial_7054_16751" cx="0" cy="0" r="1" gradientUnits="userSpaceOnUse" gradientTransform="translate(36.1651 19.2509) rotate(90) scale(0.585209 2.02947)">
<stop offset="0.161" stop-color="#845D03"/>
<stop offset="1" stop-color="#EBA429" stop-opacity="0"/>
</radialGradient>
<radialGradient id="paint21_radial_7054_16751" cx="0" cy="0" r="1" gradientUnits="userSpaceOnUse" gradientTransform="translate(7.77711 44.0552) rotate(-90) scale(24.0484 6.41057)">
<stop stop-color="#766C83"/>
<stop offset="0.441" stop-color="#58496A"/>
<stop offset="1" stop-color="#4D4159"/>
</radialGradient>
<radialGradient id="paint22_radial_7054_16751" cx="0" cy="0" r="1" gradientUnits="userSpaceOnUse" gradientTransform="translate(13.307 44.0552) rotate(-90) scale(15.4515 1.21044)">
<stop offset="0.286" stop-color="#4F445B"/>
<stop offset="1" stop-color="#4F445B" stop-opacity="0"/>
</radialGradient>
<linearGradient id="paint23_linear_7054_16751" x1="13.5199" y1="41.219" x2="12.8942" y2="41.219" gradientUnits="userSpaceOnUse">
<stop offset="0.444" stop-color="#433850"/>
<stop offset="1" stop-color="#433850" stop-opacity="0"/>
</linearGradient>
<radialGradient id="paint24_radial_7054_16751" cx="0" cy="0" r="1" gradientUnits="userSpaceOnUse" gradientTransform="translate(37.3094 44.0552) rotate(-100.465) scale(15.2243 4.27595)">
<stop stop-color="#736782"/>
<stop offset="1" stop-color="#5F5070"/>
</radialGradient>
<radialGradient id="paint25_radial_7054_16751" cx="0" cy="0" r="1" gradientUnits="userSpaceOnUse" gradientTransform="translate(34.2955 34.0118) rotate(87.413) scale(17.6921 1.03323)">
<stop offset="0.177" stop-color="#3F2A51"/>
<stop offset="1" stop-color="#3F2A51" stop-opacity="0"/>
</radialGradient>
<linearGradient id="paint26_linear_7054_16751" x1="23.9261" y1="43.8628" x2="23.9261" y2="34.4143" gradientUnits="userSpaceOnUse">
<stop stop-color="#3F3748"/>
<stop offset="1" stop-color="#3F3748" stop-opacity="0"/>
</linearGradient>
<linearGradient id="paint27_linear_7054_16751" x1="23.9262" y1="43.8628" x2="23.9262" y2="34.4143" gradientUnits="userSpaceOnUse">
<stop stop-color="#3F3748"/>
<stop offset="1" stop-color="#3F3748" stop-opacity="0"/>
</linearGradient>
<linearGradient id="paint28_linear_7054_16751" x1="23.9262" y1="43.8628" x2="23.9262" y2="34.4143" gradientUnits="userSpaceOnUse">
<stop stop-color="#3F3748"/>
<stop offset="1" stop-color="#3F3748" stop-opacity="0"/>
</linearGradient>
<radialGradient id="paint29_radial_7054_16751" cx="0" cy="0" r="1" gradientUnits="userSpaceOnUse" gradientTransform="translate(31.0142 17.2784) rotate(69.6568) scale(3.22126 3.82661)">
<stop offset="0.215" stop-color="#313131"/>
<stop offset="1" stop-color="#1A161E"/>
</radialGradient>
<radialGradient id="paint30_radial_7054_16751" cx="0" cy="0" r="1" gradientUnits="userSpaceOnUse" gradientTransform="translate(14.8467 18.0109) rotate(17.447) scale(2.31463 7.14078)">
<stop stop-color="#564943"/>
<stop offset="0.746" stop-color="#1E191C"/>
</radialGradient>
<radialGradient id="paint31_radial_7054_16751" cx="0" cy="0" r="1" gradientUnits="userSpaceOnUse" gradientTransform="translate(28.1031 15.8699) rotate(180) scale(7.81858 13.831)">
<stop stop-color="#FFDCC0"/>
<stop offset="1" stop-color="#D6A195"/>
</radialGradient>
<linearGradient id="paint32_linear_7054_16751" x1="31.6178" y1="18.3902" x2="25.1083" y2="18.3902" gradientUnits="userSpaceOnUse">
<stop stop-color="#FFD6BA"/>
<stop offset="1" stop-color="#FFD6BA" stop-opacity="0"/>
</linearGradient>
<radialGradient id="paint33_radial_7054_16751" cx="0" cy="0" r="1" gradientUnits="userSpaceOnUse" gradientTransform="translate(24.7797 7.06646) rotate(90) scale(19.047 15.7732)">
<stop offset="0.764" stop-color="#BE8689" stop-opacity="0"/>
<stop offset="0.981" stop-color="#A56F76"/>
</radialGradient>
<radialGradient id="paint34_radial_7054_16751" cx="0" cy="0" r="1" gradientUnits="userSpaceOnUse" gradientTransform="translate(27.5641 13.9061) rotate(-90) scale(1.71742 2.12533)">
<stop offset="0.325" stop-color="#F6B8A8"/>
<stop offset="1" stop-color="#F6B8A8" stop-opacity="0"/>
</radialGradient>
<radialGradient id="paint35_radial_7054_16751" cx="0" cy="0" r="1" gradientUnits="userSpaceOnUse" gradientTransform="translate(20.4641 13.9766) rotate(-89.7943) scale(1.63657 1.78097)">
<stop offset="0.378" stop-color="#D39991"/>
<stop offset="1" stop-color="#D39991" stop-opacity="0"/>
</radialGradient>
<radialGradient id="paint36_radial_7054_16751" cx="0" cy="0" r="1" gradientUnits="userSpaceOnUse" gradientTransform="translate(29.0372 17.3474) rotate(176.388) scale(12.7316 32.5228)">
<stop offset="0.836" stop-color="#E6AD97" stop-opacity="0"/>
<stop offset="1" stop-color="#E6AD97"/>
</radialGradient>
<radialGradient id="paint37_radial_7054_16751" cx="0" cy="0" r="1" gradientUnits="userSpaceOnUse" gradientTransform="translate(15.7274 9.40147) rotate(-46.6112) scale(6.74562 2.46937)">
<stop offset="0.428" stop-color="#9F6D5C"/>
<stop offset="1" stop-color="#9F6D5C" stop-opacity="0"/>
</radialGradient>
<radialGradient id="paint38_radial_7054_16751" cx="0" cy="0" r="1" gradientUnits="userSpaceOnUse" gradientTransform="translate(27.5343 8.42464) rotate(121.159) scale(5.03852 4.15971)">
<stop offset="0.078" stop-color="#F6C3B0"/>
<stop offset="1" stop-color="#F6C3B0" stop-opacity="0"/>
</radialGradient>
<radialGradient id="paint39_radial_7054_16751" cx="0" cy="0" r="1" gradientUnits="userSpaceOnUse" gradientTransform="translate(22.986 6.64169) rotate(90) scale(3.46239 8.85208)">
<stop offset="0.502" stop-color="#BF8679"/>
<stop offset="1" stop-color="#BF8679" stop-opacity="0"/>
</radialGradient>
<linearGradient id="paint40_linear_7054_16751" x1="25.1583" y1="16.8789" x2="23.9055" y2="16.9318" gradientUnits="userSpaceOnUse">
<stop offset="0.36" stop-color="#FFDFC7"/>
<stop offset="1" stop-color="#FFDFC7" stop-opacity="0"/>
</linearGradient>
<radialGradient id="paint41_radial_7054_16751" cx="0" cy="0" r="1" gradientUnits="userSpaceOnUse" gradientTransform="translate(24.6017 17.9041) rotate(90) scale(0.365073 1.14737)">
<stop stop-color="#FFDDC7"/>
<stop offset="1" stop-color="#FFDDC7" stop-opacity="0"/>
</radialGradient>
<linearGradient id="paint42_linear_7054_16751" x1="23.9055" y1="18.5826" x2="23.9055" y2="17.8879" gradientUnits="userSpaceOnUse">
<stop stop-color="#D89793"/>
<stop offset="1" stop-color="#D89793" stop-opacity="0"/>
</linearGradient>
<radialGradient id="paint43_radial_7054_16751" cx="0" cy="0" r="1" gradientUnits="userSpaceOnUse" gradientTransform="translate(24.7764 17.054) rotate(155.369) scale(2.50269 4.02201)">
<stop offset="0.714" stop-color="#D3968C" stop-opacity="0"/>
<stop offset="1" stop-color="#D3968C"/>
</radialGradient>
<linearGradient id="paint44_linear_7054_16751" x1="23.9055" y1="14.3453" x2="23.9055" y2="15.3543" gradientUnits="userSpaceOnUse">
<stop stop-color="#E8BBA8"/>
<stop offset="1" stop-color="#E8BBA8" stop-opacity="0"/>
</linearGradient>
<linearGradient id="paint45_linear_7054_16751" x1="22.1077" y1="20.9326" x2="22.5836" y2="19.6842" gradientUnits="userSpaceOnUse">
<stop stop-color="#E1ACA6"/>
<stop offset="1" stop-color="#E1ACA6" stop-opacity="0"/>
</linearGradient>
<radialGradient id="paint46_radial_7054_16751" cx="0" cy="0" r="1" gradientUnits="userSpaceOnUse" gradientTransform="translate(23.904 21.1647) rotate(-90) scale(1.07792 4.33669)">
<stop stop-color="#88014E"/>
<stop offset="1" stop-color="#86004D"/>
</radialGradient>
<linearGradient id="paint47_linear_7054_16751" x1="34.153" y1="7.40104" x2="16.785" y2="7.40104" gradientUnits="userSpaceOnUse">
<stop stop-color="#443D40"/>
<stop offset="1" stop-color="#272127"/>
</linearGradient>
<radialGradient id="paint48_radial_7054_16751" cx="0" cy="0" r="1" gradientUnits="userSpaceOnUse" gradientTransform="translate(16.083 11.5444) rotate(-90) scale(5.23645 13.2424)">
<stop offset="0.536" stop-color="#3E3433"/>
<stop offset="1" stop-color="#3E3433" stop-opacity="0"/>
</radialGradient>
<radialGradient id="paint49_radial_7054_16751" cx="0" cy="0" r="1" gradientUnits="userSpaceOnUse" gradientTransform="translate(31.1744 13.5037) rotate(-87.4013) scale(3.76152 6.6647)">
<stop stop-color="#4F4D4D"/>
<stop offset="1" stop-color="#4F4D4D" stop-opacity="0"/>
</radialGradient>
<radialGradient id="paint50_radial_7054_16751" cx="0" cy="0" r="1" gradientUnits="userSpaceOnUse" gradientTransform="translate(30.0456 4.11869) rotate(-146.667) scale(4.22241 3.09946)">
<stop stop-color="#5E5A5B"/>
<stop offset="1" stop-color="#5E5A5B" stop-opacity="0"/>
</radialGradient>
<radialGradient id="paint51_radial_7054_16751" cx="0" cy="0" r="1" gradientUnits="userSpaceOnUse" gradientTransform="translate(22.5506 1.73718) rotate(58.465) scale(2.58816 5.99297)">
<stop offset="0.287" stop-color="#484646"/>
<stop offset="1" stop-color="#484646" stop-opacity="0"/>
</radialGradient>
<radialGradient id="paint52_radial_7054_16751" cx="0" cy="0" r="1" gradientUnits="userSpaceOnUse" gradientTransform="translate(24.2845 5.11567) rotate(180) scale(3.29192 1.22176)">
<stop stop-color="#423C3F"/>
<stop offset="1" stop-color="#423C3F" stop-opacity="0"/>
</radialGradient>
<radialGradient id="paint53_radial_7054_16751" cx="0" cy="0" r="1" gradientUnits="userSpaceOnUse" gradientTransform="translate(15.7834 11.0111) rotate(-57.724) scale(9.01319 9.98568)">
<stop offset="0.093" stop-color="#0B0306"/>
<stop offset="0.311" stop-color="#1C0C20"/>
<stop offset="1" stop-color="#1C0C20" stop-opacity="0"/>
</radialGradient>
<radialGradient id="paint54_radial_7054_16751" cx="0" cy="0" r="1" gradientUnits="userSpaceOnUse" gradientTransform="translate(29.0108 6.27599) scale(4.57401 1.78836)">
<stop stop-color="#4E494B"/>
<stop offset="1" stop-color="#4E494B" stop-opacity="0"/>
</radialGradient>
<radialGradient id="paint55_radial_7054_16751" cx="0" cy="0" r="1" gradientUnits="userSpaceOnUse" gradientTransform="translate(27.8432 10.8188) rotate(-43.614) scale(5.53341 10.1303)">
<stop offset="0.857" stop-color="#545051" stop-opacity="0"/>
<stop offset="1" stop-color="#545051"/>
</radialGradient>
<radialGradient id="paint56_radial_7054_16751" cx="0" cy="0" r="1" gradientUnits="userSpaceOnUse" gradientTransform="translate(26.5183 8.6113) rotate(6.66679) scale(4.89098 2.04777)">
<stop stop-color="#200E25"/>
<stop offset="1" stop-color="#200E25" stop-opacity="0"/>
</radialGradient>
<radialGradient id="paint57_radial_7054_16751" cx="0" cy="0" r="1" gradientUnits="userSpaceOnUse" gradientTransform="translate(27.1675 14.4995) rotate(90) scale(1.21275 1.92901)">
<stop offset="0.802" stop-color="#7D574A"/>
<stop offset="1" stop-color="#664842"/>
</radialGradient>
<radialGradient id="paint58_radial_7054_16751" cx="0" cy="0" r="1" gradientUnits="userSpaceOnUse" gradientTransform="translate(26.827 14.6253) rotate(-127.812) scale(0.565748 0.778908)">
<stop offset="0.766" stop-color="#FFE6E2" stop-opacity="0"/>
<stop offset="0.966" stop-color="#FFE6E2"/>
</radialGradient>
<linearGradient id="paint59_linear_7054_16751" x1="28.3293" y1="14.5803" x2="27.8622" y2="14.8682" gradientUnits="userSpaceOnUse">
<stop stop-color="#B4948D"/>
<stop offset="1" stop-color="#B4948D" stop-opacity="0"/>
</linearGradient>
<radialGradient id="paint60_radial_7054_16751" cx="0" cy="0" r="1" gradientUnits="userSpaceOnUse" gradientTransform="translate(20.6405 14.4995) rotate(90) scale(1.21281 1.92911)">
<stop offset="0.802" stop-color="#7D574A"/>
<stop offset="1" stop-color="#664842"/>
</radialGradient>
<linearGradient id="paint61_linear_7054_16751" x1="21.7538" y1="14.5803" x2="21.2852" y2="14.8696" gradientUnits="userSpaceOnUse">
<stop stop-color="#B4948D"/>
<stop offset="1" stop-color="#B4948D" stop-opacity="0"/>
</linearGradient>
<radialGradient id="paint62_radial_7054_16751" cx="0" cy="0" r="1" gradientUnits="userSpaceOnUse" gradientTransform="translate(20.4362 14.784) rotate(-118.811) scale(0.739018 0.888335)">
<stop offset="0.766" stop-color="#FFE6E2" stop-opacity="0"/>
<stop offset="0.966" stop-color="#FFE6E2"/>
</radialGradient>
<linearGradient id="paint63_linear_7054_16751" x1="33.5317" y1="14.6214" x2="31.7266" y2="17.8762" gradientUnits="userSpaceOnUse">
<stop stop-color="#FFD6BD"/>
<stop offset="1" stop-color="#F0B8A6"/>
</linearGradient>
<radialGradient id="paint64_radial_7054_16751" cx="0" cy="0" r="1" gradientUnits="userSpaceOnUse" gradientTransform="translate(30.8123 14.5219) rotate(74.347) scale(3.48417 3.32416)">
<stop offset="0.856" stop-color="#CE978E" stop-opacity="0"/>
<stop offset="1" stop-color="#CE978E"/>
</radialGradient>
<radialGradient id="paint65_radial_7054_16751" cx="0" cy="0" r="1" gradientUnits="userSpaceOnUse" gradientTransform="translate(31.3506 15.3352) rotate(-53.9199) scale(2.00058 1.67688)">
<stop offset="0.664" stop-color="#F7B99C"/>
<stop offset="1" stop-color="#F7B99C" stop-opacity="0"/>
</radialGradient>
<radialGradient id="paint66_radial_7054_16751" cx="0" cy="0" r="1" gradientUnits="userSpaceOnUse" gradientTransform="translate(31.5209 15.5937) rotate(-69.2632) scale(2.47938 3.3128)">
<stop offset="0.803" stop-color="#EBBB9D" stop-opacity="0"/>
<stop offset="1" stop-color="#EBBB9D"/>
</radialGradient>
<linearGradient id="paint67_linear_7054_16751" x1="15.1561" y1="15.673" x2="17.3372" y2="15.4836" gradientUnits="userSpaceOnUse">
<stop stop-color="#D19787"/>
<stop offset="1" stop-color="#C9887D"/>
</linearGradient>
<radialGradient id="paint68_radial_7054_16751" cx="0" cy="0" r="1" gradientUnits="userSpaceOnUse" gradientTransform="translate(16.5529 15.4836) rotate(-173.034) scale(2.43053 2.60906)">
<stop offset="0.775" stop-color="#E8AF99" stop-opacity="0"/>
<stop offset="1" stop-color="#E8AF99"/>
</radialGradient>
<radialGradient id="paint69_radial_7054_16751" cx="0" cy="0" r="1" gradientUnits="userSpaceOnUse" gradientTransform="translate(16.5528 15.4821) rotate(170.26) scale(1.38997 1.70557)">
<stop stop-color="#C18472"/>
<stop offset="1" stop-color="#CA8B7A"/>
</radialGradient>
<linearGradient id="paint70_linear_7054_16751" x1="32.0995" y1="14.0662" x2="32.0995" y2="16.9127" gradientUnits="userSpaceOnUse">
<stop stop-color="#F9BB9E"/>
<stop offset="1" stop-color="#F6BBA0"/>
</linearGradient>
<radialGradient id="paint71_radial_7054_16751" cx="0" cy="0" r="1" gradientUnits="userSpaceOnUse" gradientTransform="translate(27.7621 8.68591) rotate(-100.732) scale(5.39751 12.4128)">
<stop stop-color="#534D5A"/>
<stop offset="1" stop-color="#372E41"/>
</radialGradient>
<radialGradient id="paint72_radial_7054_16751" cx="0" cy="0" r="1" gradientUnits="userSpaceOnUse" gradientTransform="translate(23.8497 4.20945) rotate(90) scale(2.93481 10.7457)">
<stop offset="0.263" stop-color="#160C20"/>
<stop offset="1" stop-color="#160C20" stop-opacity="0"/>
</radialGradient>
<linearGradient id="paint73_linear_7054_16751" x1="26.5258" y1="5.81332" x2="24.6443" y2="-0.612457" gradientUnits="userSpaceOnUse">
<stop stop-color="#3D294B"/>
<stop offset="1" stop-color="#433A4D"/>
</linearGradient>
<radialGradient id="paint74_radial_7054_16751" cx="0" cy="0" r="1" gradientUnits="userSpaceOnUse" gradientTransform="translate(32.3567 3.51914) rotate(90) scale(1.37695 18.6348)">
<stop stop-color="#6A6273"/>
<stop offset="0.867" stop-color="#696070" stop-opacity="0"/>
</radialGradient>
<radialGradient id="paint75_radial_7054_16751" cx="0" cy="0" r="1" gradientUnits="userSpaceOnUse" gradientTransform="translate(10.3695 4.4371) scale(11.3828 1.28516)">
<stop stop-color="#75707B"/>
<stop offset="0.935" stop-color="#75707B" stop-opacity="0"/>
</radialGradient>
</defs>
</svg>
