<svg width="15" height="15" viewBox="0 0 15 15" fill="none" xmlns="http://www.w3.org/2000/svg">
<path d="M13.5346 5.4131L4.00733 0.648723C3.60712 0.448611 3.16239 0.354124 2.71539 0.374235C2.26839 0.394347 1.83394 0.528389 1.45332 0.763633C1.07269 0.998876 0.758514 1.32751 0.540625 1.71833C0.322735 2.10915 0.208364 2.54918 0.208374 2.99664V12.0033C0.208364 12.4508 0.322735 12.8908 0.540625 13.2816C0.758514 13.6724 1.07269 14.0011 1.45332 14.2363C1.83394 14.4716 2.26839 14.6056 2.71539 14.6257C3.16239 14.6458 3.60712 14.5513 4.00733 14.3512L13.5346 9.58685C15.2555 8.72643 15.2555 6.27351 13.5346 5.4131Z" fill="white"/>
</svg>
