<svg version="1.1" id="Layer_1" xmlns="http://www.w3.org/2000/svg" xmlns:xlink="http://www.w3.org/1999/xlink" x="0px" y="0px"
	 width="100%" viewBox="0 0 976 976" enable-background="new 0 0 976 976" xml:space="preserve">
<path fill="#000000" opacity="1.000000" stroke="none" 
	d="
M464.000000,1.000000 
	C469.688049,1.000000 475.376068,1.000000 481.925110,1.108679 
	C494.739594,2.187454 506.747284,2.033730 518.711731,2.370370 
	C544.934021,3.108178 570.825989,5.986376 596.305603,11.975725 
	C701.426086,36.685810 790.562378,88.341972 861.763367,170.079636 
	C908.860840,224.146835 942.618286,285.524414 962.954102,354.284088 
	C969.043640,374.874237 973.413208,395.849426 977.000000,417.000000 
	C977.000000,467.020905 977.000000,517.041809 976.941895,567.912231 
	C976.706726,569.400391 976.463379,570.028687 976.362366,570.679077 
	C971.265564,603.504578 962.634766,635.406189 950.561523,666.318481 
	C913.911011,760.158752 854.220215,836.113647 772.111755,894.342224 
	C722.257996,929.696838 667.439636,954.367126 608.027283,968.866028 
	C595.098145,972.021301 581.957581,974.046692 569.000000,977.000000 
	C517.312439,977.000000 465.624878,977.000000 413.158813,976.798584 
	C409.945221,975.270813 407.195221,975.535461 404.592743,975.054382 
	C374.248962,969.444824 344.643250,961.193054 315.858276,950.068176 
	C235.003815,918.819214 166.661835,869.947693 112.095901,802.658569 
	C46.478161,721.740662 8.706038,629.145142 2.269462,524.930847 
	C-0.332097,482.809143 0.614240,440.528870 9.378887,398.670166 
	C25.957903,319.491028 58.189438,247.746414 108.947090,184.714630 
	C163.257065,117.271500 230.709885,67.304108 311.305206,35.262859 
	C345.769745,21.561239 381.290985,11.951154 417.984100,6.449312 
	C433.280060,4.155799 448.596527,2.270563 464.000000,1.000000 
M552.128357,36.459564 
	C535.849548,35.447838 519.578247,34.288967 503.290375,33.454918 
	C469.031189,31.700623 435.105133,34.732510 401.555756,41.606247 
	C322.401184,57.823761 252.058655,92.276810 191.015930,145.177292 
	C135.409073,193.366928 93.812157,251.793411 66.000542,319.968536 
	C43.998154,373.903351 33.031166,430.045563 32.350430,488.248047 
	C32.182819,502.578430 33.096256,516.845398 34.216022,531.127014 
	C35.934826,553.048889 39.369007,574.689087 44.442204,596.045471 
	C62.424583,671.744934 97.016373,738.839844 149.075302,796.796021 
	C150.421967,798.295288 151.355392,800.570618 154.245697,800.513062 
	C155.156876,798.200134 156.004745,795.866638 156.984299,793.589783 
	C166.364746,771.786255 177.194366,750.668213 191.815323,731.964172 
	C221.482803,694.011841 257.794830,663.793701 301.089172,642.413879 
	C348.824402,618.841125 399.377197,605.417847 452.559937,602.651489 
	C496.850922,600.347778 541.040588,600.417114 584.822388,609.560791 
	C645.710693,622.277283 701.429443,645.718872 748.653564,687.084961 
	C783.644348,717.735352 811.465820,753.617432 827.839539,797.655273 
	C828.268311,798.808350 828.383606,800.397339 831.403992,800.635193 
	C831.912415,799.934204 832.764343,798.471619 833.885437,797.257507 
	C846.345398,783.764893 857.760071,769.412842 868.035156,754.223145 
	C920.661072,676.425720 950.526794,591.359375 949.856567,496.600647 
	C949.681152,471.803558 949.941895,447.047943 945.840515,422.406830 
	C935.631836,361.073761 915.379578,303.475159 882.278687,250.745956 
	C825.949524,161.014572 748.002197,97.591209 648.657837,60.630089 
	C617.678650,49.104294 585.725525,41.316902 552.128357,36.459564 
z"/>
<path fill="#000000" opacity="1.000000" stroke="none" 
	d="
M425.689453,513.481445 
	C368.026703,488.568573 332.379456,445.377380 320.363495,384.493530 
	C309.559906,329.752594 322.890747,280.363007 359.980865,237.761612 
	C388.307678,205.225677 423.620544,185.447906 466.033813,179.046478 
	C512.652222,172.010406 555.424927,182.954224 593.573059,210.460770 
	C628.698181,235.787521 651.354736,270.077209 661.653748,312.035004 
	C666.271851,330.849091 665.981506,350.266418 664.589661,369.633972 
	C661.359741,414.580963 641.067444,451.130585 608.638123,481.032806 
	C580.282043,507.179260 546.333923,521.860291 507.672516,525.552002 
	C479.404938,528.251282 452.295929,524.172241 425.689453,513.481445 
z"/>
</svg>