<svg width="31" height="31" viewBox="0 0 31 31" fill="none" xmlns="http://www.w3.org/2000/svg">
<path d="M15.479 0.791656C11.5836 0.791656 7.84781 2.33909 5.09337 5.09353C2.33893 7.84797 0.791504 11.5838 0.791504 15.4792C0.791504 19.3745 2.33893 23.1103 5.09337 25.8648C7.84781 28.6192 11.5836 30.1667 15.479 30.1667C19.3744 30.1667 23.1102 28.6192 25.8646 25.8648C28.6191 23.1103 30.1665 19.3745 30.1665 15.4792C30.1665 11.5838 28.6191 7.84797 25.8646 5.09353C23.1102 2.33909 19.3744 0.791656 15.479 0.791656ZM4.70817 10.5833H8.62484C9.14422 10.5833 9.64233 10.7896 10.0096 11.1569C10.3768 11.5242 10.5832 12.0223 10.5832 12.5417V14.5C10.5832 15.4792 9.839 16.2625 8.899 16.3996L11.1903 20.375H8.91859L6.6665 16.4583V20.375H4.70817M14.4998 10.5833H18.4165V12.5417H14.4998V14.5H18.4165V16.4583H14.4998V18.4167H18.4165V20.375H14.4998C13.9805 20.375 13.4823 20.1687 13.1151 19.8014C12.7478 19.4341 12.5415 18.936 12.5415 18.4167V12.5417C12.5415 12.0223 12.7478 11.5242 13.1151 11.1569C13.4823 10.7896 13.9805 10.5833 14.4998 10.5833ZM22.3332 10.5833H26.2498V12.5417H22.3332V18.4167H26.2498V20.375H22.3332C21.8138 20.375 21.3157 20.1687 20.9484 19.8014C20.5812 19.4341 20.3748 18.936 20.3748 18.4167V12.5417C20.3748 12.0223 20.5812 11.5242 20.9484 11.1569C21.3157 10.7896 21.8138 10.5833 22.3332 10.5833ZM6.6665 12.5417V14.5H8.62484V12.5417" fill="#EF4031"/>
</svg>
