<svg width="40" height="40" viewBox="0 0 40 40" fill="none" xmlns="http://www.w3.org/2000/svg">
<path d="M18.3833 23.205L24.5 19.27C24.8511 19.0433 25.0267 18.7311 25.0267 18.3333C25.0267 17.9355 24.8511 17.6239 24.5 17.3983L18.3833 13.4617C18.0211 13.2072 17.6444 13.185 17.2533 13.395C16.8622 13.6039 16.6667 13.935 16.6667 14.3883V22.2783C16.6667 22.7317 16.8622 23.0628 17.2533 23.2717C17.6444 23.4817 18.0217 23.4594 18.385 23.205M7.69167 30C6.925 30 6.28445 29.7433 5.77 29.23C5.25556 28.7167 4.99889 28.0755 5 27.3067V9.35999C5 8.59221 5.25723 7.95166 5.77167 7.43832C6.28611 6.92499 6.92611 6.66777 7.69167 6.66666H32.3083C33.075 6.66666 33.715 6.92388 34.2283 7.43832C34.7417 7.95277 34.9989 8.59332 35 9.35999V27.3083C35 28.075 34.7428 28.7155 34.2283 29.23C33.7139 29.7444 33.0739 30.0011 32.3083 30H25V31.9867C25 32.3744 24.8722 32.6955 24.6167 32.95C24.3611 33.2044 24.04 33.3322 23.6533 33.3333H16.3467C15.96 33.3333 15.6389 33.2055 15.3833 32.95C15.1278 32.6944 15 32.3733 15 31.9867V30H7.69167ZM7.69167 28.3333H32.3083C32.5639 28.3333 32.7989 28.2267 33.0133 28.0133C33.2278 27.8 33.3344 27.5644 33.3333 27.3067V9.35999C33.3333 9.10332 33.2267 8.86777 33.0133 8.65332C32.8 8.43888 32.565 8.33221 32.3083 8.33332H7.69167C7.43611 8.33332 7.20111 8.43999 6.98667 8.65332C6.77223 8.86666 6.66556 9.10221 6.66667 9.35999V27.3083C6.66667 27.5639 6.77334 27.7989 6.98667 28.0133C7.2 28.2278 7.435 28.3344 7.69167 28.3333Z" fill="#172B47"/>
</svg>
