<svg width="21" height="30" viewBox="0 0 21 30" fill="none" xmlns="http://www.w3.org/2000/svg">
<path d="M10.5 18.5833C9.35417 18.5833 8.38021 18.1336 7.57812 17.2343C6.77604 16.335 6.375 15.243 6.375 13.9583V4.70825C6.375 3.42353 6.77604 2.33152 7.57812 1.43221C8.38021 0.532905 9.35417 0.083252 10.5 0.083252C11.6458 0.083252 12.6198 0.532905 13.4219 1.43221C14.224 2.33152 14.625 3.42353 14.625 4.70825V13.9583C14.625 15.243 14.224 16.335 13.4219 17.2343C12.6198 18.1336 11.6458 18.5833 10.5 18.5833ZM9.125 29.3749V24.6343C6.74167 24.2746 4.77083 23.0798 3.2125 21.0499C1.65417 19.0201 0.875 16.6562 0.875 13.9583H3.625C3.625 16.0909 4.29554 17.909 5.63663 19.4127C6.97771 20.9163 8.59883 21.6676 10.5 21.6666C12.4012 21.6656 14.0227 20.9137 15.3647 19.4111C16.7067 17.9085 17.3768 16.0909 17.375 13.9583H20.125C20.125 16.6562 19.3458 19.0201 17.7875 21.0499C16.2292 23.0798 14.2583 24.2746 11.875 24.6343V29.3749H9.125Z" fill="white"/>
</svg>
