<svg width="32" height="32" viewBox="0 0 32 32" fill="none" xmlns="http://www.w3.org/2000/svg">
<path d="M23.4347 13.9733C23.597 13.7688 23.6729 13.509 23.6461 13.2493C23.6194 12.9896 23.4921 12.7507 23.2916 12.5836C23.091 12.4164 22.8331 12.3344 22.5728 12.3549C22.3125 12.3754 22.0706 12.4969 21.8987 12.6933L19.5027 15.568C19.0094 16.1613 18.7041 16.5227 18.4547 16.748C18.3895 16.8113 18.3165 16.8659 18.2374 16.9107L18.2227 16.9173L18.2081 16.9107C18.1285 16.866 18.055 16.8114 17.9894 16.748C17.7401 16.5213 17.4361 16.1613 16.9414 15.568L16.5521 15.1013C16.1147 14.5747 15.7187 14.1013 15.3507 13.768C14.9494 13.4053 14.4441 13.0827 13.7774 13.0827C13.1107 13.0827 12.6067 13.4053 12.2041 13.768C11.8361 14.1013 11.4414 14.5747 11.0041 15.1013L8.56408 18.0267C8.48003 18.1276 8.41669 18.2441 8.37767 18.3695C8.33865 18.495 8.32472 18.6268 8.33667 18.7577C8.3608 19.0218 8.48888 19.2656 8.69274 19.4353C8.89661 19.6051 9.15955 19.6869 9.42372 19.6628C9.6879 19.6386 9.93167 19.5105 10.1014 19.3067L12.4974 16.432C12.9907 15.8387 13.2961 15.4773 13.5454 15.252C13.6106 15.1888 13.6837 15.1341 13.7627 15.0893L13.7774 15.0827L13.7921 15.0893C13.8716 15.134 13.9451 15.1887 14.0107 15.252C14.2601 15.4787 14.5641 15.8387 15.0587 16.432L15.4481 16.8987C15.8867 17.4253 16.2814 17.8987 16.6494 18.232C17.0507 18.5947 17.5561 18.9173 18.2227 18.9173C18.8894 18.9173 19.3934 18.5947 19.7961 18.232C20.1641 17.8987 20.5587 17.4253 20.9961 16.8987L23.4347 13.9733Z" fill="#172B47"/>
<path fill-rule="evenodd" clip-rule="evenodd" d="M15.9241 1.66666C12.8454 1.66666 10.4334 1.66666 8.55075 1.91999C6.62541 2.17866 5.10541 2.71999 3.91208 3.91199C2.71875 5.10532 2.17875 6.62532 1.92008 8.55199C1.66675 10.4333 1.66675 12.8453 1.66675 15.924V16.076C1.66675 19.1547 1.66675 21.5667 1.92008 23.4493C2.17875 25.3747 2.72008 26.8947 3.91208 28.088C5.10541 29.2813 6.62541 29.8213 8.55208 30.08C10.4334 30.3333 12.8454 30.3333 15.9241 30.3333H16.0761C19.1547 30.3333 21.5667 30.3333 23.4494 30.08C25.3747 29.8213 26.8947 29.28 28.0881 28.088C29.2814 26.8947 29.8214 25.3747 30.0801 23.448C30.3334 21.5667 30.3334 19.1547 30.3334 16.076V15.924C30.3334 12.8453 30.3334 10.4333 30.0801 8.55066C29.8214 6.62532 29.2801 5.10532 28.0881 3.91199C26.8947 2.71866 25.3747 2.17866 23.4481 1.91999C21.5667 1.66666 19.1547 1.66666 16.0761 1.66666H15.9241ZM5.32675 5.32666C6.08675 4.56666 7.11341 4.13066 8.81875 3.90132C10.5521 3.66932 12.8294 3.66666 16.0001 3.66666C19.1707 3.66666 21.4481 3.66932 23.1814 3.90132C24.8867 4.13066 25.9147 4.56799 26.6747 5.32666C27.4334 6.08666 27.8694 7.11332 28.0987 8.81866C28.3307 10.552 28.3334 12.8293 28.3334 16C28.3334 19.1707 28.3307 21.448 28.0987 23.1813C27.8694 24.8867 27.4321 25.9147 26.6734 26.6747C25.9134 27.4333 24.8867 27.8693 23.1814 28.0987C21.4481 28.3307 19.1707 28.3333 16.0001 28.3333C12.8294 28.3333 10.5521 28.3307 8.81875 28.0987C7.11341 27.8693 6.08541 27.432 5.32541 26.6733C4.56675 25.9133 4.13075 24.8867 3.90141 23.1813C3.66941 21.448 3.66675 19.1707 3.66675 16C3.66675 12.8293 3.66941 10.552 3.90141 8.81866C4.13075 7.11332 4.56808 6.08666 5.32675 5.32666Z" fill="#172B47"/>
</svg>
