<svg width="15" height="15" viewBox="0 0 15 15" fill="none" xmlns="http://www.w3.org/2000/svg">
<g clip-path="url(#clip0_9149_21022)">
<path d="M3.00006 0V8.05C2.43492 8.16476 1.92683 8.47136 1.56188 8.91787C1.19692 9.36438 0.997559 9.92332 0.997559 10.5C0.997559 11.0767 1.19692 11.6356 1.56188 12.0821C1.92683 12.5286 2.43492 12.8352 3.00006 12.95V15H4.00006V12.95C4.56521 12.8352 5.0733 12.5286 5.43825 12.0821C5.80321 11.6356 6.00257 11.0767 6.00257 10.5C6.00257 9.92332 5.80321 9.36438 5.43825 8.91787C5.0733 8.47136 4.56521 8.16476 4.00006 8.05V0H3.00006ZM11.0001 0V2.05C10.4349 2.16476 9.92683 2.47136 9.56188 2.91787C9.19693 3.36438 8.99756 3.92332 8.99756 4.5C8.99756 5.07668 9.19693 5.63562 9.56188 6.08213C9.92683 6.52864 10.4349 6.83524 11.0001 6.95V15H12.0001V6.95C12.5652 6.83524 13.0733 6.52864 13.4383 6.08213C13.8032 5.63562 14.0026 5.07668 14.0026 4.5C14.0026 3.92332 13.8032 3.36438 13.4383 2.91787C13.0733 2.47136 12.5652 2.16476 12.0001 2.05V0H11.0001Z" fill="#F1F1F1"/>
</g>
<defs>
<clipPath id="clip0_9149_21022">
<rect width="15" height="15" fill="white"/>
</clipPath>
</defs>
</svg>
