<svg width="16" height="16" viewBox="0 0 16 16" fill="none" xmlns="http://www.w3.org/2000/svg">
<path d="M13.147 8.085C13.0964 8.05562 13.0407 8.0275 12.9832 8C13.0407 7.9725 13.0964 7.94437 13.147 7.915C13.4336 7.75204 13.6851 7.534 13.8871 7.27343C14.0892 7.01286 14.2376 6.71491 14.324 6.39673C14.4104 6.07855 14.433 5.74642 14.3905 5.41947C14.348 5.09252 14.2412 4.7772 14.0764 4.49168C13.9115 4.20615 13.6918 3.95605 13.4299 3.75578C13.168 3.55551 12.8691 3.40902 12.5503 3.32475C12.2316 3.24048 11.8993 3.22009 11.5727 3.26475C11.246 3.30942 10.9314 3.41825 10.647 3.585C10.5964 3.61437 10.5439 3.6475 10.492 3.68437C10.497 3.62187 10.5001 3.55937 10.5001 3.49687C10.5001 2.83383 10.2367 2.19795 9.76787 1.7291C9.29903 1.26026 8.66314 0.996872 8.0001 0.996872C7.33706 0.996872 6.70118 1.26026 6.23234 1.7291C5.7635 2.19795 5.5001 2.83383 5.5001 3.49687C5.5001 3.55562 5.5001 3.61812 5.50823 3.68437C5.45635 3.64875 5.40385 3.61437 5.35323 3.585C5.0688 3.41825 4.7542 3.30942 4.42754 3.26475C4.10088 3.22009 3.76861 3.24048 3.44986 3.32475C3.13111 3.40902 2.83218 3.55551 2.57028 3.75578C2.30838 3.95605 2.08867 4.20615 1.92382 4.49168C1.75897 4.7772 1.65222 5.09252 1.60972 5.41947C1.56722 5.74642 1.58982 6.07855 1.6762 6.39673C1.76259 6.71491 1.91106 7.01286 2.11306 7.27343C2.31506 7.534 2.56661 7.75204 2.85323 7.915C2.90385 7.94437 2.95948 7.9725 3.01698 8C2.95948 8.0275 2.90385 8.05562 2.85323 8.085C2.56661 8.24795 2.31506 8.46599 2.11306 8.72656C1.91106 8.98713 1.76259 9.28508 1.6762 9.60327C1.58982 9.92145 1.56722 10.2536 1.60972 10.5805C1.65222 10.9075 1.75897 11.2228 1.92382 11.5083C2.08867 11.7938 2.30838 12.0439 2.57028 12.2442C2.83218 12.4445 3.13111 12.591 3.44986 12.6752C3.76861 12.7595 4.10088 12.7799 4.42754 12.7352C4.7542 12.6906 5.0688 12.5817 5.35323 12.415C5.40385 12.3856 5.45635 12.3525 5.50823 12.3156C5.50323 12.3781 5.5001 12.4406 5.5001 12.5C5.5001 13.163 5.7635 13.7989 6.23234 14.2678C6.70118 14.7366 7.33706 15 8.0001 15C8.66314 15 9.29903 14.7366 9.76787 14.2678C10.2367 13.7989 10.5001 13.163 10.5001 12.5C10.5001 12.4412 10.497 12.3787 10.492 12.3156C10.5439 12.3512 10.5964 12.3856 10.647 12.415C11.0257 12.6344 11.4556 12.7499 11.8932 12.75C12.1131 12.7497 12.3321 12.7207 12.5445 12.6637C13.0221 12.5357 13.451 12.269 13.777 11.8972C14.103 11.5254 14.3114 11.0653 14.3759 10.575C14.4404 10.0848 14.3581 9.58644 14.1393 9.14299C13.9206 8.69954 13.5752 8.33092 13.147 8.08375V8.085ZM8.0001 9.75C7.65399 9.75 7.31564 9.64736 7.02786 9.45507C6.74007 9.26278 6.51577 8.98946 6.38331 8.66969C6.25086 8.34992 6.21621 7.99805 6.28373 7.65859C6.35125 7.31912 6.51792 7.0073 6.76267 6.76256C7.00741 6.51782 7.31923 6.35115 7.6587 6.28362C7.99816 6.2161 8.35003 6.25075 8.6698 6.38321C8.98957 6.51566 9.26288 6.73996 9.45517 7.02775C9.64747 7.31553 9.7501 7.65388 9.7501 8C9.7501 8.46413 9.56573 8.90925 9.23754 9.23743C8.90935 9.56562 8.46423 9.75 8.0001 9.75Z" fill="#2F66EE"/>
</svg>
