<svg width="34" height="34" viewBox="0 0 34 34" fill="none" xmlns="http://www.w3.org/2000/svg">
<path d="M0.333313 16.9999C0.333313 7.79492 7.79498 0.333252 17 0.333252C26.205 0.333252 33.6666 7.79492 33.6666 16.9999C33.6666 26.2049 26.205 33.6666 17 33.6666C7.79498 33.6666 0.333313 26.2049 0.333313 16.9999ZM11.5833 15.3333C12.1358 15.3333 12.6658 15.1138 13.0565 14.7231C13.4472 14.3324 13.6666 13.8025 13.6666 13.2499C13.6666 12.6974 13.4472 12.1675 13.0565 11.7768C12.6658 11.3861 12.1358 11.1666 11.5833 11.1666C11.0308 11.1666 10.5009 11.3861 10.1102 11.7768C9.71947 12.1675 9.49998 12.6974 9.49998 13.2499C9.49998 13.8025 9.71947 14.3324 10.1102 14.7231C10.5009 15.1138 11.0308 15.3333 11.5833 15.3333ZM24.5 13.2499C24.5 12.6974 24.2805 12.1675 23.8898 11.7768C23.4991 11.3861 22.9692 11.1666 22.4166 11.1666C21.8641 11.1666 21.3342 11.3861 20.9435 11.7768C20.5528 12.1675 20.3333 12.6974 20.3333 13.2499C20.3333 13.8025 20.5528 14.3324 20.9435 14.7231C21.3342 15.1138 21.8641 15.3333 22.4166 15.3333C22.9692 15.3333 23.4991 15.1138 23.8898 14.7231C24.2805 14.3324 24.5 13.8025 24.5 13.2499ZM12.3766 25.9008C13.8035 26.6429 15.3918 27.0205 17 26.9999C18.608 27.0197 20.1959 26.6421 21.6229 25.9007C23.0499 25.1593 24.2718 24.077 25.18 22.7499C25.3244 22.5145 25.3694 22.2314 25.3051 21.9629C25.2408 21.6943 25.0724 21.4623 24.8371 21.3178C24.6017 21.1734 24.3186 21.1284 24.05 21.1927C23.7814 21.257 23.5494 21.4254 23.405 21.6608C22.684 22.6848 21.7234 23.5169 20.607 24.0845C19.4906 24.652 18.2522 24.9377 17 24.9166C15.7477 24.9371 14.5095 24.6511 13.393 24.0837C12.2765 23.5162 11.3157 22.6844 10.5941 21.6608C10.4497 21.4254 10.2177 21.257 9.94913 21.1927C9.68056 21.1284 9.39744 21.1734 9.16206 21.3178C8.92668 21.4623 8.75832 21.6943 8.69401 21.9629C8.6297 22.2314 8.67471 22.5145 8.81915 22.7499C9.72696 24.0775 10.9491 25.16 12.3766 25.9008Z" fill="white"/>
</svg>
