<svg width="22" height="22" viewBox="0 0 22 22" fill="none" xmlns="http://www.w3.org/2000/svg">
<path d="M8.39026 4.95725C9.55168 2.87459 10.1319 1.83325 11 1.83325C11.8681 1.83325 12.4483 2.87459 13.6098 4.95725L13.9104 5.49625C14.2404 6.08842 14.4054 6.3845 14.6621 6.57975C14.9188 6.775 15.2396 6.84742 15.8813 6.99225L16.4643 7.12425C18.7193 7.63483 19.8458 7.88967 20.1144 8.75225C20.3821 9.61392 19.6139 10.5132 18.0767 12.3108L17.6788 12.7755C17.2425 13.2861 17.0234 13.5418 16.9253 13.8572C16.8273 14.1734 16.8603 14.5144 16.9263 15.1955L16.9868 15.8161C17.2187 18.215 17.3351 19.414 16.6329 19.9466C15.9308 20.4792 14.8748 19.9933 12.7646 19.0217L12.2173 18.7705C11.6178 18.4937 11.3181 18.3562 11 18.3562C10.6819 18.3562 10.3822 18.4937 9.78268 18.7705L9.23635 19.0217C7.12526 19.9933 6.06926 20.4792 5.36801 19.9475C4.66493 19.414 4.78135 18.215 5.01326 15.8161L5.07376 15.1964C5.13976 14.5144 5.17276 14.1734 5.07376 13.8581C4.9766 13.5418 4.75751 13.2861 4.32118 12.7764L3.92335 12.3108C2.3861 10.5141 1.61793 9.61484 1.8856 8.75225C2.15326 7.88967 3.28168 7.63392 5.53668 7.12425L6.11968 6.99225C6.76043 6.84742 7.08035 6.775 7.33793 6.57975C7.59551 6.3845 7.7596 6.08842 8.0896 5.49625L8.39026 4.95725Z" fill="white"/>
</svg>
