<?xml version="1.0" standalone="no"?>
<!DOCTYPE svg PUBLIC "-//W3C//DTD SVG 20010904//EN"
 "http://www.w3.org/TR/2001/REC-SVG-20010904/DTD/svg10.dtd">
<svg version="1.0" xmlns="http://www.w3.org/2000/svg"
 width="32.000000pt" height="32.000000pt" viewBox="0 0 32.000000 32.000000"
 preserveAspectRatio="xMidYMid meet">

<g transform="translate(0.000000,32.000000) scale(0.100000,-0.100000)"
fill="#000000" stroke="none">
<path d="M107 294 c-4 -4 -7 -16 -7 -26 0 -11 -7 -18 -18 -18 -10 0 -28 -7
-40 -16 -20 -14 -22 -24 -22 -99 0 -113 2 -115 140 -115 138 0 140 2 140 115
0 75 -2 85 -22 99 -12 9 -30 16 -40 16 -10 0 -18 9 -20 23 -3 19 -10 22 -53
25 -28 2 -54 0 -58 -4z m93 -29 c0 -11 -11 -15 -40 -15 -29 0 -40 4 -40 15 0
11 11 15 40 15 29 0 40 -4 40 -15z m68 -47 c7 -7 12 -42 12 -89 0 -61 -3 -78
-16 -83 -9 -3 -60 -6 -114 -6 -80 0 -99 3 -104 16 -11 28 -6 150 6 162 16 16
200 16 216 0z"/>
<path d="M138 179 c-26 -14 -22 -38 7 -51 14 -6 25 -15 25 -20 0 -11 -14 -10
-27 3 -7 7 -13 7 -17 1 -3 -5 4 -18 15 -28 19 -17 20 -17 41 3 23 24 18 40
-20 54 -19 7 -22 13 -14 21 8 8 15 8 27 -2 8 -7 19 -10 23 -6 4 4 -2 14 -12
22 -23 16 -25 17 -48 3z"/>
</g>
</svg>
