<svg width="24" height="24" viewBox="0 0 24 24" fill="none" xmlns="http://www.w3.org/2000/svg">
<path fill-rule="evenodd" clip-rule="evenodd" d="M5 3H19L8.816 13.184C8.65173 12.7625 8.38421 12.3891 8.038 12.098C7.81 11.9 7.491 11.721 6.855 11.362L3.942 9.722C2.993 9.189 2.519 8.922 2.26 8.492C2 8.061 2 7.541 2 6.503V5.813C2 4.487 2 3.823 2.44 3.411C2.878 3 3.585 3 5 3Z" fill="#BF1E2D"/>
<path opacity="0.5" d="M22.0004 6.504V5.814C22.0004 4.488 22.0004 3.824 21.5604 3.412C21.1224 3 20.4154 3 19.0004 3L8.81543 13.184C8.86543 13.3127 8.90576 13.447 8.93643 13.587C9.00043 13.872 9.00043 14.206 9.00043 14.873V17.543C9.00043 18.452 9.00043 18.907 9.25243 19.261C9.50443 19.616 9.95243 19.791 10.8464 20.141C12.7254 20.875 13.6644 21.242 14.3324 20.824C15.0004 20.406 15.0004 19.452 15.0004 17.542V14.872C15.0004 14.206 15.0004 13.872 15.0634 13.587C15.1893 13.004 15.506 12.4797 15.9634 12.097C16.1904 11.9 16.5084 11.721 17.1454 11.362L20.0584 9.722C21.0064 9.189 21.4814 8.922 21.7404 8.492C22.0004 8.062 22.0004 7.542 22.0004 6.504Z" fill="#BF1E2D"/>
</svg>
