<svg width="19" height="19" viewBox="0 0 19 19" fill="none" xmlns="http://www.w3.org/2000/svg">
<path d="M4.74967 10.2917C3.00801 10.2917 1.58301 11.7167 1.58301 13.4583C1.58301 15.2 3.00801 16.625 4.74967 16.625C6.49134 16.625 7.91634 15.2 7.91634 13.4583C7.91634 11.7167 6.49134 10.2917 4.74967 10.2917ZM9.49967 2.375C7.75801 2.375 6.33301 3.8 6.33301 5.54167C6.33301 7.28333 7.75801 8.70833 9.49967 8.70833C11.2413 8.70833 12.6663 7.28333 12.6663 5.54167C12.6663 3.8 11.2413 2.375 9.49967 2.375ZM14.2497 10.2917C12.508 10.2917 11.083 11.7167 11.083 13.4583C11.083 15.2 12.508 16.625 14.2497 16.625C15.9913 16.625 17.4163 15.2 17.4163 13.4583C17.4163 11.7167 15.9913 10.2917 14.2497 10.2917Z" fill="#BF1E2D"/>
</svg>
