<svg width="15" height="15" viewBox="0 0 15 15" fill="none" xmlns="http://www.w3.org/2000/svg">
<path d="M8.20801 0.416656V7.49999H6.79134V0.416656H8.20801ZM10.8855 1.64066L11.4585 2.05786C12.6074 2.89368 13.4622 4.07164 13.9005 5.423C14.3389 6.77437 14.3383 8.2298 13.8988 9.5808C13.4594 10.9318 12.6036 12.1091 11.4541 12.9439C10.3046 13.7788 8.92036 14.2284 7.49967 14.2284C6.07899 14.2284 4.69476 13.7788 3.54526 12.9439C2.39577 12.1091 1.54 10.9318 1.10054 9.5808C0.661081 8.2298 0.660484 6.77437 1.09883 5.423C1.53719 4.07164 2.39199 2.89368 3.5408 2.05786L4.11313 1.63995L4.94755 2.78532L4.37522 3.20324C3.46803 3.86295 2.79294 4.79287 2.44666 5.85978C2.10038 6.92668 2.10069 8.07582 2.44754 9.14254C2.79439 10.2093 3.46999 11.1388 4.37753 11.798C5.28507 12.4573 6.37798 12.8123 7.49967 12.8123C8.62137 12.8123 9.71428 12.4573 10.6218 11.798C11.5294 11.1388 12.205 10.2093 12.5518 9.14254C12.8987 8.07582 12.899 6.92668 12.5527 5.85978C12.2064 4.79287 11.5313 3.86295 10.6241 3.20324L10.0518 2.78532L10.8855 1.64066Z" fill="white"/>
</svg>
