<svg width="20" height="20" viewBox="0 0 20 20" fill="none" xmlns="http://www.w3.org/2000/svg">
<path d="M10.0003 18.3334C8.84755 18.3334 7.76422 18.1145 6.75033 17.6767C5.73644 17.239 4.85449 16.6454 4.10449 15.8959C3.35449 15.1465 2.76088 14.2645 2.32366 13.2501C1.88644 12.2356 1.66755 11.1523 1.66699 10.0001C1.66644 8.84786 1.88533 7.76453 2.32366 6.75008C2.76199 5.73564 3.3556 4.85369 4.10449 4.10425C4.85338 3.3548 5.73533 2.76119 6.75033 2.32341C7.76533 1.88564 8.84866 1.66675 10.0003 1.66675C11.152 1.66675 12.2353 1.88564 13.2503 2.32341C14.2653 2.76119 15.1473 3.3548 15.8962 4.10425C16.6451 4.85369 17.2389 5.73564 17.6778 6.75008C18.1167 7.76453 18.3353 8.84786 18.3337 10.0001C18.332 11.1523 18.1131 12.2356 17.677 13.2501C17.2409 14.2645 16.6473 15.1465 15.8962 15.8959C15.1451 16.6454 14.2631 17.2392 13.2503 17.6776C12.2375 18.1159 11.1542 18.3345 10.0003 18.3334ZM7.58366 16.2084L8.58366 13.9167C8.00033 13.7084 7.49699 13.3856 7.07366 12.9484C6.65033 12.5112 6.32033 12.0006 6.08366 11.4167L3.79199 12.3751C4.11144 13.264 4.60449 14.0417 5.27116 14.7084C5.93783 15.3751 6.70866 15.8751 7.58366 16.2084ZM6.08366 8.58342C6.31977 8.00008 6.64977 7.4898 7.07366 7.05258C7.49755 6.61536 8.00088 6.2923 8.58366 6.08342L7.62533 3.79175C6.73644 4.12508 5.95866 4.62508 5.29199 5.29175C4.62533 5.95842 4.12533 6.73619 3.79199 7.62508L6.08366 8.58342ZM10.0003 12.5001C10.6948 12.5001 11.285 12.257 11.7712 11.7709C12.2573 11.2848 12.5003 10.6945 12.5003 10.0001C12.5003 9.30564 12.2573 8.71536 11.7712 8.22925C11.285 7.74314 10.6948 7.50008 10.0003 7.50008C9.30588 7.50008 8.7156 7.74314 8.22949 8.22925C7.74338 8.71536 7.50033 9.30564 7.50033 10.0001C7.50033 10.6945 7.74338 11.2848 8.22949 11.7709C8.7156 12.257 9.30588 12.5001 10.0003 12.5001ZM12.417 16.2084C13.292 15.8751 14.0595 15.3787 14.7195 14.7192C15.3795 14.0598 15.8759 13.2923 16.2087 12.4167L13.917 11.4167C13.7087 12.0001 13.3892 12.5037 12.9587 12.9276C12.5281 13.3515 12.0281 13.6812 11.4587 13.9167L12.417 16.2084ZM13.917 8.54175L16.2087 7.58342C15.8753 6.70842 15.3789 5.94119 14.7195 5.28175C14.06 4.6223 13.2925 4.12564 12.417 3.79175L11.4587 6.12508C12.0281 6.33342 12.5212 6.64953 12.9378 7.07341C13.3545 7.4973 13.6809 7.98675 13.917 8.54175Z" fill="#BF1E2D"/>
</svg>
