<svg width="13" height="13" viewBox="0 0 13 13" fill="none" xmlns="http://www.w3.org/2000/svg">
<path d="M10.3958 6.5C10.114 6.5 9.84379 6.38806 9.64453 6.1888C9.44528 5.98954 9.33333 5.71929 9.33333 5.4375C9.33333 5.15571 9.44528 4.88546 9.64453 4.6862C9.84379 4.48694 10.114 4.375 10.3958 4.375C10.6776 4.375 10.9479 4.48694 11.1471 4.6862C11.3464 4.88546 11.4583 5.15571 11.4583 5.4375C11.4583 5.71929 11.3464 5.98954 11.1471 6.1888C10.9479 6.38806 10.6776 6.5 10.3958 6.5ZM8.27083 3.66667C7.98904 3.66667 7.71879 3.55473 7.51953 3.35547C7.32027 3.15621 7.20833 2.88596 7.20833 2.60417C7.20833 2.32237 7.32027 2.05212 7.51953 1.85287C7.71879 1.65361 7.98904 1.54167 8.27083 1.54167C8.55263 1.54167 8.82288 1.65361 9.02213 1.85287C9.22139 2.05212 9.33333 2.32237 9.33333 2.60417C9.33333 2.88596 9.22139 3.15621 9.02213 3.35547C8.82288 3.55473 8.55263 3.66667 8.27083 3.66667ZM4.72917 3.66667C4.44737 3.66667 4.17712 3.55473 3.97787 3.35547C3.77861 3.15621 3.66667 2.88596 3.66667 2.60417C3.66667 2.32237 3.77861 2.05212 3.97787 1.85287C4.17712 1.65361 4.44737 1.54167 4.72917 1.54167C5.01096 1.54167 5.28121 1.65361 5.48047 1.85287C5.67973 2.05212 5.79167 2.32237 5.79167 2.60417C5.79167 2.88596 5.67973 3.15621 5.48047 3.35547C5.28121 3.55473 5.01096 3.66667 4.72917 3.66667ZM2.60417 6.5C2.32237 6.5 2.05212 6.38806 1.85287 6.1888C1.65361 5.98954 1.54167 5.71929 1.54167 5.4375C1.54167 5.15571 1.65361 4.88546 1.85287 4.6862C2.05212 4.48694 2.32237 4.375 2.60417 4.375C2.88596 4.375 3.15621 4.48694 3.35547 4.6862C3.55473 4.88546 3.66667 5.15571 3.66667 5.4375C3.66667 5.71929 3.55473 5.98954 3.35547 6.1888C3.15621 6.38806 2.88596 6.5 2.60417 6.5ZM6.5 0.125C4.80924 0.125 3.18774 0.79665 1.99219 1.99219C0.79665 3.18774 0.125 4.80924 0.125 6.5C0.125 8.19075 0.79665 9.81226 1.99219 11.0078C3.18774 12.2033 4.80924 12.875 6.5 12.875C6.78179 12.875 7.05204 12.7631 7.2513 12.5638C7.45056 12.3645 7.5625 12.0943 7.5625 11.8125C7.5625 11.5363 7.45625 11.2883 7.28625 11.1042C7.12333 10.9129 7.01708 10.665 7.01708 10.3958C7.01708 10.114 7.12902 9.84379 7.32828 9.64453C7.52754 9.44528 7.79779 9.33333 8.07958 9.33333H9.33333C10.2726 9.33333 11.1735 8.96019 11.8377 8.296C12.5019 7.63181 12.875 6.73097 12.875 5.79167C12.875 2.66083 10.0204 0.125 6.5 0.125Z" fill="#CBD87E"/>
</svg>
