<svg width="30" height="30" viewBox="0 0 30 30" fill="none" xmlns="http://www.w3.org/2000/svg">
<path d="M23.8467 0.00390625C25.5152 0.0884629 26.8418 1.46863 26.8418 3.1582V12.3311C28.7882 14.1986 29.9998 16.8259 30 19.7363L29.9863 20.2646C29.7116 25.6875 25.2275 30 19.7363 30L19.209 29.9863C16.5111 29.8496 14.0898 28.6698 12.3359 26.8438H3.1582V26.8428C2.24721 26.8427 1.41831 26.6144 0.823242 26.0195C0.302473 25.4987 0.0624916 24.7988 0.0107422 24.0215L0 23.6846V3.1582C0 1.46874 1.3267 0.0886155 2.99512 0.00390625L3.1582 0H23.6846L23.8467 0.00390625ZM19.7363 11.0537C14.9413 11.054 11.0541 14.9413 11.0537 19.7363C11.0537 24.5317 14.941 28.4196 19.7363 28.4199C24.5319 28.4199 28.4199 24.5319 28.4199 19.7363C28.4195 14.9411 24.5317 11.0537 19.7363 11.0537ZM18.9482 19.5283L23.749 21.8193L23.0684 23.2451L17.3682 20.5264V14.2109H18.9482V19.5283ZM1.58008 17.3672H9.75195C10.2137 15.4143 11.2318 13.678 12.6318 12.334V11.0527H1.58008V17.3672ZM1.58008 9.47266H12.6318V3.1582H1.58008V9.47266ZM14.2119 9.47266H25.2617V3.1582H14.2119V9.47266ZM1.58691 23.9209C1.62141 24.4386 1.77049 24.7323 1.94043 24.9023C2.1348 25.0965 2.49101 25.2627 3.1582 25.2627V25.2637H11.0898C10.1569 23.807 9.58028 22.0998 9.4873 20.2646L9.47363 19.7363C9.47365 19.4708 9.48701 19.2078 9.50684 18.9473H1.58008V23.6846L1.58691 23.9209Z" fill="black"/>
</svg>
