<svg width="91" height="78" viewBox="0 0 91 78" fill="none" xmlns="http://www.w3.org/2000/svg">
<path d="M50.1796 26.7433L44.5967 26.351L30.8155 10.4866L24.8403 15.6773L33.4308 25.5663L27.8478 25.174L21.8526 18.2726L17.7178 21.8645C17.2915 22.2348 16.8123 22.4012 16.28 22.3638C15.7478 22.3264 15.2966 22.0946 14.9263 21.6683C14.556 21.2421 14.3896 20.7629 14.427 20.2306C14.4644 19.6984 14.6962 19.2471 15.1224 18.8769L35.3457 1.30917C35.77 0.940641 36.2482 0.775073 36.7804 0.812475C37.3127 0.849876 37.7649 1.08083 38.1372 1.50533C38.5095 1.92984 38.6749 2.40994 38.6335 2.94564C38.5921 3.48134 38.3613 3.93173 37.941 4.2968L33.8032 7.89132L50.1796 26.7433ZM43.2489 73.076L80.3852 40.8162L42.2957 38.1369L43.2489 73.076ZM88.422 41.3782L85.9681 41.2085L45.8442 76.0636C44.5695 77.1709 43.1711 77.3897 41.6491 76.7198C40.1271 76.0499 39.3333 74.8786 39.2675 73.2058L38.3456 37.8621L2.74053 35.3573C2.21945 35.3207 1.77248 35.1079 1.3996 34.7188C1.02672 34.3298 0.862065 33.8386 0.905642 33.245C0.949219 32.6515 1.16334 32.1859 1.54801 31.8483C1.93268 31.5106 2.42364 31.3637 3.02088 31.4076L88.6942 37.425C89.2152 37.4617 89.6622 37.6745 90.0351 38.0635C90.408 38.4525 90.5735 38.9448 90.5317 39.5403C90.4898 40.1358 90.2748 40.6004 89.8867 40.9341C89.4986 41.2677 89.0076 41.4146 88.4138 41.3748" fill="white" fill-opacity="0.3"/>
</svg>
