<svg width="14" height="14" viewBox="0 0 14 14" fill="none" xmlns="http://www.w3.org/2000/svg">
<path d="M6.3875 7.40836L5.54167 6.57711C5.43472 6.47016 5.30114 6.41669 5.14092 6.41669C4.9807 6.41669 4.84206 6.47502 4.725 6.59169C4.61806 6.69863 4.56459 6.83474 4.56459 7.00002C4.56459 7.1653 4.61806 7.30141 4.725 7.40836L5.97917 8.66252C6.09584 8.77919 6.23195 8.83752 6.3875 8.83752C6.54306 8.83752 6.67917 8.77919 6.79584 8.66252L9.275 6.18336C9.39167 6.06669 9.44747 5.93058 9.44242 5.77502C9.43736 5.61947 9.38156 5.48336 9.275 5.36669C9.15833 5.25002 9.01989 5.18936 8.85967 5.18469C8.69945 5.18002 8.56081 5.23583 8.44375 5.35211L6.3875 7.40836ZM4.75417 12.6875L3.90834 11.2584L2.30417 10.9084C2.15834 10.8792 2.04167 10.8039 1.95417 10.6826C1.86667 10.5613 1.83264 10.4275 1.85209 10.2813L2.0125 8.63336L0.918752 7.37919C0.82153 7.27224 0.772919 7.14586 0.772919 7.00002C0.772919 6.85419 0.82153 6.7278 0.918752 6.62086L2.0125 5.36669L1.85209 3.71877C1.83264 3.57294 1.86667 3.43916 1.95417 3.31744C2.04167 3.19572 2.15834 3.12047 2.30417 3.09169L3.90834 2.74169L4.75417 1.31252C4.83195 1.18613 4.93889 1.10097 5.075 1.05702C5.21111 1.01308 5.34722 1.02047 5.48334 1.07919L7 1.72086L8.51667 1.07919C8.65278 1.02086 8.78889 1.01347 8.925 1.05702C9.06111 1.10058 9.16806 1.18575 9.24584 1.31252L10.0917 2.74169L11.6958 3.09169C11.8417 3.12086 11.9583 3.1963 12.0458 3.31802C12.1333 3.43975 12.1674 3.57333 12.1479 3.71877L11.9875 5.36669L13.0813 6.62086C13.1785 6.7278 13.2271 6.85419 13.2271 7.00002C13.2271 7.14586 13.1785 7.27224 13.0813 7.37919L11.9875 8.63336L12.1479 10.2813C12.1674 10.4271 12.1333 10.5609 12.0458 10.6826C11.9583 10.8043 11.8417 10.8796 11.6958 10.9084L10.0917 11.2584L9.24584 12.6875C9.16806 12.8139 9.06111 12.8991 8.925 12.943C8.78889 12.987 8.65278 12.9796 8.51667 12.9209L7 12.2792L5.48334 12.9209C5.34722 12.9792 5.21111 12.9866 5.075 12.943C4.93889 12.8995 4.83195 12.8143 4.75417 12.6875Z" fill="#BF1E2D"/>
</svg>
