<svg width="20" height="14" viewBox="0 0 20 14" fill="none" xmlns="http://www.w3.org/2000/svg">
<path d="M1 10.75V3.25C1 2.71957 1.21071 2.21086 1.58579 1.83579C1.96086 1.46071 2.46957 1.25 3 1.25H11.5C12.0304 1.25 12.5391 1.46071 12.9142 1.83579C13.2893 2.21086 13.5 2.71957 13.5 3.25V10.75C13.5 11.2804 13.2893 11.7891 12.9142 12.1642C12.5391 12.5393 12.0304 12.75 11.5 12.75H3C2.46957 12.75 1.96086 12.5393 1.58579 12.1642C1.21071 11.7891 1 11.2804 1 10.75ZM18.168 1.991L14.168 5.554C14.1153 5.60081 14.0731 5.65825 14.0441 5.72253C14.0152 5.78682 14.0001 5.8565 14 5.927V7.705C14.0001 7.7755 14.0152 7.84518 14.0441 7.90947C14.0731 7.97375 14.1153 8.03119 14.168 8.078L18.168 11.641C18.2401 11.705 18.3291 11.7468 18.4244 11.7614C18.5196 11.776 18.6171 11.7627 18.705 11.7232C18.7929 11.6837 18.8675 11.6196 18.9199 11.5386C18.9722 11.4577 19 11.3634 19 11.267V2.365C19 2.26862 18.9722 2.17429 18.9199 2.09335C18.8675 2.01242 18.7929 1.94834 18.705 1.90882C18.6171 1.86931 18.5196 1.85604 18.4244 1.87062C18.3291 1.8852 18.2401 1.927 18.168 1.991Z" stroke="#172B47" stroke-opacity="0.99" stroke-width="1.5" stroke-linecap="round" stroke-linejoin="round"/>
</svg>
