<svg width="20" height="20" viewBox="0 0 20 20" fill="none" xmlns="http://www.w3.org/2000/svg">
<path d="M7.39026 3.95725C8.55168 1.87459 9.13193 0.833252 10 0.833252C10.8681 0.833252 11.4483 1.87459 12.6098 3.95725L12.9104 4.49625C13.2404 5.08842 13.4054 5.3845 13.6621 5.57975C13.9188 5.775 14.2396 5.84742 14.8813 5.99225L15.4643 6.12425C17.7193 6.63483 18.8458 6.88967 19.1144 7.75225C19.3821 8.61392 18.6139 9.51317 17.0767 11.3108L16.6788 11.7755C16.2425 12.2861 16.0234 12.5418 15.9253 12.8572C15.8273 13.1734 15.8603 13.5144 15.9263 14.1955L15.9868 14.8161C16.2187 17.215 16.3351 18.414 15.6329 18.9466C14.9308 19.4792 13.8748 18.9933 11.7646 18.0217L11.2173 17.7705C10.6178 17.4937 10.3181 17.3562 10 17.3562C9.68193 17.3562 9.38218 17.4937 8.78268 17.7705L8.23635 18.0217C6.12526 18.9933 5.06926 19.4792 4.36801 18.9475C3.66493 18.414 3.78135 17.215 4.01326 14.8161L4.07376 14.1964C4.13976 13.5144 4.17276 13.1734 4.07376 12.8581C3.9766 12.5418 3.75751 12.2861 3.32118 11.7764L2.92335 11.3108C1.3861 9.51408 0.617929 8.61484 0.885595 7.75225C1.15326 6.88967 2.28168 6.63392 4.53668 6.12425L5.11968 5.99225C5.76043 5.84742 6.08035 5.775 6.33793 5.57975C6.59551 5.3845 6.7596 5.08842 7.0896 4.49625L7.39026 3.95725Z" fill="#FFC107"/>
</svg>
